if (_typeface_js && _typeface_js.loadFace) _typeface_js.loadFace({"glyphs":{"0":{"ha":772,"x_min":60,"x_max":704,"o":"m 382 985 q 608 876 528 985 q 704 468 704 746 q 622 97 704 225 q 382 -32 539 -32 q 142 98 224 -32 q 60 476 60 228 q 156 876 60 747 q 382 985 238 985 m 579 479 q 382 876 579 876 q 185 475 185 876 q 379 69 185 69 q 531 169 482 69 q 579 479 579 269 z "},"1":{"ha":772,"x_min":142,"x_max":482,"o":"m 360 701 l 142 701 l 142 789 q 326 839 283 807 q 401 985 369 871 l 482 985 l 482 0 l 360 0 l 360 701 z "},"2":{"ha":772,"x_min":47,"x_max":710,"o":"m 703 121 l 703 0 l 47 0 q 113 251 56 163 q 324 426 169 339 l 451 499 q 585 693 585 575 q 529 825 585 772 q 390 878 474 878 q 290 852 335 878 q 221 782 244 826 q 192 643 197 738 l 69 643 q 122 857 74 782 q 394 985 206 985 q 618 907 532 985 q 710 696 710 824 q 501 399 710 513 l 363 324 q 233 226 272 271 q 185 121 194 182 l 703 121 z "},"3":{"ha":772,"x_min":44,"x_max":703,"o":"m 307 451 l 307 556 q 469 576 424 557 q 549 710 549 608 q 502 833 549 788 q 375 878 456 878 q 274 854 318 878 q 210 790 231 831 q 188 667 189 750 l 65 667 q 374 985 72 985 q 594 913 514 985 q 674 714 674 840 q 536 510 674 564 q 664 424 625 479 q 703 275 703 369 q 612 51 703 135 q 369 -32 521 -32 q 88 111 164 -32 q 44 286 51 178 l 167 286 q 224 128 174 179 q 374 76 274 76 q 524 128 469 76 q 578 274 578 181 q 374 453 578 453 l 322 451 l 307 451 z "},"4":{"ha":772,"x_min":39,"x_max":722,"o":"m 454 236 l 39 236 l 39 365 l 486 985 l 576 985 l 576 346 l 722 346 l 722 236 l 576 236 l 576 0 l 454 0 l 454 236 m 454 346 l 454 776 l 146 346 l 454 346 z "},"5":{"ha":772,"x_min":49,"x_max":713,"o":"m 661 985 l 661 864 l 251 864 l 213 589 q 394 649 294 649 q 624 558 536 649 q 713 321 713 467 q 618 67 713 165 q 375 -32 524 -32 q 221 -1 292 -32 q 108 86 150 31 q 49 242 71 132 l 171 242 q 372 76 214 76 q 530 138 472 76 q 588 304 588 199 q 529 477 588 414 q 372 540 471 540 q 275 520 315 540 q 192 449 235 500 l 79 449 l 153 985 l 661 985 z "},"6":{"ha":772,"x_min":60,"x_max":713,"o":"m 692 728 l 569 728 q 511 838 554 799 q 404 876 468 876 q 242 780 299 876 q 185 503 186 683 q 411 613 265 613 q 628 525 543 613 q 713 300 713 438 q 622 62 713 156 q 390 -32 531 -32 q 143 90 225 -32 q 60 449 60 215 q 149 844 60 706 q 263 947 193 910 q 413 985 332 985 q 599 917 525 985 q 692 728 674 849 m 396 504 q 249 447 306 504 q 192 297 192 389 q 249 140 192 203 q 392 76 306 76 q 532 137 476 76 q 588 290 588 197 q 536 447 588 389 q 396 504 485 504 z "},"7":{"ha":772,"x_min":64,"x_max":722,"o":"m 722 985 l 722 882 q 459 448 556 660 q 322 0 363 236 l 192 0 q 333 428 247 243 q 596 864 419 613 l 64 864 l 64 985 l 722 985 z "},"8":{"ha":772,"x_min":51,"x_max":713,"o":"m 543 518 q 713 272 713 438 q 620 53 713 138 q 382 -32 528 -32 q 144 53 236 -32 q 51 274 51 139 q 219 518 51 438 q 115 610 144 565 q 86 722 86 654 q 169 911 86 838 q 382 985 251 985 q 595 911 513 985 q 678 722 678 838 q 649 608 678 653 q 543 518 619 564 m 506 834 q 483 855 506 834 q 382 876 460 876 q 258 834 304 876 q 211 721 211 792 q 258 609 211 651 q 382 567 304 567 q 506 608 458 567 q 553 719 553 650 q 506 834 553 792 m 531 410 q 502 437 531 410 q 382 464 474 464 q 233 410 290 464 q 176 271 176 357 q 233 131 176 185 q 379 76 289 76 q 530 130 472 76 q 588 271 588 183 q 531 410 588 357 z "},"9":{"ha":772,"x_min":53,"x_max":707,"o":"m 74 225 l 196 225 q 254 115 211 154 q 361 76 297 76 q 523 173 467 76 q 581 450 579 269 q 356 340 489 340 q 138 428 222 340 q 53 653 53 515 q 144 891 53 797 q 375 985 235 985 q 624 863 540 985 q 707 504 707 738 q 617 108 707 247 q 503 6 574 43 q 353 -32 433 -32 q 166 36 240 -32 q 74 225 92 104 m 374 878 q 233 817 289 878 q 178 663 178 756 q 229 506 178 564 q 369 449 281 449 q 516 507 458 449 q 574 656 574 565 q 517 815 574 751 q 374 878 460 878 z "},"�":{"ha":386,"x_min":0,"x_max":0,"o":"m 0 0 z "}," ":{"ha":386,"x_min":0,"x_max":0,"o":""},"!":{"ha":386,"x_min":172,"x_max":289,"o":"m 289 1013 l 289 543 l 258 233 l 204 233 l 174 543 l 174 1013 l 289 1013 m 289 144 l 289 0 l 172 0 l 172 144 l 289 144 z "},"\"":{"ha":493,"x_min":72,"x_max":424,"o":"m 72 985 l 201 985 l 201 831 l 164 644 l 110 644 l 72 831 l 72 985 m 294 985 l 424 985 l 424 831 l 386 644 l 332 644 l 294 831 l 294 985 z "},"#":{"ha":772,"x_min":19,"x_max":753,"o":"m 674 968 l 624 696 l 753 696 l 753 601 l 606 601 l 563 360 l 708 360 l 708 265 l 546 265 l 492 -28 l 386 -28 l 439 265 l 267 265 l 213 -28 l 107 -28 l 160 265 l 19 265 l 19 360 l 178 360 l 221 601 l 71 601 l 71 696 l 239 696 l 289 968 l 394 968 l 344 696 l 518 696 l 567 968 l 674 968 m 500 601 l 328 601 l 283 360 l 457 360 l 500 601 z "},"$":{"ha":772,"x_min":46,"x_max":719,"o":"m 338 1069 l 419 1069 l 419 994 q 617 912 546 985 q 689 721 689 839 l 579 721 q 533 846 578 797 q 419 897 489 894 l 419 551 q 601 485 560 508 q 719 271 719 418 q 685 122 719 189 q 592 17 651 54 q 419 -32 524 -24 l 419 -175 l 338 -175 l 338 -32 q 115 61 190 -22 q 46 289 39 144 l 156 289 q 190 143 165 181 q 338 64 239 76 l 338 442 q 163 514 208 481 q 64 717 64 585 q 134 906 64 835 q 338 994 204 978 l 338 1069 m 338 563 l 338 896 q 218 842 260 885 q 176 731 176 799 q 338 563 176 606 m 419 429 l 419 64 q 547 115 504 74 q 606 254 606 171 q 566 360 606 322 q 419 429 526 397 z "},"%":{"ha":1235,"x_min":40,"x_max":1193,"o":"m 276 951 q 445 882 376 951 q 514 711 514 813 q 444 546 514 615 q 278 476 375 476 q 110 547 181 476 q 40 714 40 617 q 110 881 40 811 q 276 951 179 951 m 276 854 q 178 813 219 854 q 136 714 136 772 q 178 615 136 657 q 278 574 219 574 q 376 615 335 574 q 418 713 418 656 q 377 813 418 772 q 276 854 336 854 m 846 985 l 938 985 l 389 -28 l 297 -28 l 846 985 m 956 447 q 1124 378 1056 447 q 1193 208 1193 308 q 1123 43 1193 113 q 957 -26 1053 -26 q 789 44 858 -26 q 719 211 719 114 q 789 378 719 308 q 956 447 858 447 m 956 350 q 857 309 899 350 q 815 211 815 268 q 857 112 815 153 q 957 71 899 71 q 1056 112 1014 71 q 1097 208 1097 153 q 1056 309 1097 268 q 956 350 1015 350 z "},"&":{"ha":926,"x_min":72,"x_max":885,"o":"m 685 464 l 796 464 q 715 210 796 333 l 885 0 l 733 0 l 647 108 q 540 18 579 42 q 357 -32 463 -32 q 151 44 229 -32 q 72 244 72 119 q 120 402 72 339 q 297 540 168 465 q 208 670 232 622 q 185 767 185 718 q 254 922 185 858 q 422 985 324 985 q 585 924 521 985 q 649 767 649 863 q 607 639 649 692 q 457 525 565 586 l 642 299 q 685 464 688 378 m 396 599 q 508 686 478 650 q 539 769 539 722 q 505 854 539 821 q 418 888 471 888 q 331 855 364 888 q 299 768 299 822 q 316 701 299 731 q 396 599 333 671 m 581 190 l 358 468 q 226 360 264 408 q 189 254 189 313 q 242 128 189 181 q 371 76 296 76 q 581 190 472 76 z "},"’":{"ha":307,"x_min":89,"x_max":218,"o":"m 89 1013 l 218 1013 l 218 872 q 89 690 218 701 l 89 743 q 141 778 125 749 q 156 868 157 807 l 89 868 l 89 1013 z "},"(":{"ha":463,"x_min":101,"x_max":404,"o":"m 328 1013 l 404 1013 q 214 360 214 706 q 404 -294 214 15 l 328 -294 q 163 19 224 -158 q 101 360 101 196 q 163 700 101 524 q 328 1013 224 876 z "},")":{"ha":463,"x_min":53,"x_max":356,"o":"m 129 -294 l 53 -294 q 243 358 243 13 q 53 1013 243 703 l 129 1013 q 294 699 233 876 q 356 358 356 522 q 294 18 356 194 q 129 -294 233 -158 z "},"*":{"ha":540,"x_min":56,"x_max":476,"o":"m 222 1013 l 310 1013 l 303 857 l 450 910 l 476 828 l 326 786 l 424 663 l 353 613 l 267 742 l 179 613 l 110 663 l 206 786 l 56 828 l 82 910 l 229 857 l 222 1013 z "},"+":{"ha":811,"x_min":69,"x_max":742,"o":"m 742 371 l 742 274 l 454 274 l 454 -14 l 357 -14 l 357 274 l 69 274 l 69 371 l 357 371 l 357 658 l 454 658 l 454 371 l 742 371 z "},",":{"ha":386,"x_min":121,"x_max":267,"o":"m 121 144 l 267 144 l 267 -22 q 121 -204 267 -204 l 121 -151 q 187 -124 169 -150 q 204 -25 204 -97 l 204 0 l 121 0 l 121 144 z "},"-":{"ha":463,"x_min":64,"x_max":394,"o":"m 394 433 l 394 333 l 64 333 l 64 433 l 394 433 z "},".":{"ha":386,"x_min":121,"x_max":265,"o":"m 265 144 l 265 0 l 121 0 l 121 144 l 265 144 z "},"/":{"ha":386,"x_min":-11,"x_max":394,"o":"m 318 1013 l 394 1013 l 65 -28 l -11 -28 l 318 1013 z "},":":{"ha":386,"x_min":153,"x_max":297,"o":"m 297 144 l 297 0 l 153 0 l 153 144 l 297 144 m 297 728 l 297 583 l 153 583 l 153 728 l 297 728 z "},";":{"ha":386,"x_min":153,"x_max":299,"o":"m 299 728 l 299 583 l 154 583 l 154 728 l 299 728 m 153 144 l 299 144 l 299 -22 q 153 -204 299 -204 l 153 -151 q 219 -124 201 -150 q 236 -25 236 -97 l 236 0 l 153 0 l 153 144 z "},"<":{"ha":811,"x_min":63,"x_max":742,"o":"m 63 275 l 63 371 l 742 658 l 742 549 l 194 325 l 742 97 l 742 -12 l 63 275 z "},"=":{"ha":811,"x_min":69,"x_max":742,"o":"m 742 490 l 742 393 l 69 393 l 69 490 l 742 490 m 742 251 l 742 154 l 69 154 l 69 251 l 742 251 z "},">":{"ha":811,"x_min":69,"x_max":749,"o":"m 749 371 l 749 275 l 69 -12 l 69 97 l 617 321 l 69 549 l 69 658 l 749 371 z "},"?":{"ha":772,"x_min":107,"x_max":707,"o":"m 458 276 l 333 276 l 333 353 q 372 474 333 422 q 403 510 390 497 q 478 579 417 524 q 582 763 582 672 q 533 877 582 833 q 404 921 485 921 q 249 840 290 921 q 225 704 225 793 l 107 704 q 184 947 107 864 q 411 1029 261 1029 q 626 957 546 1029 q 707 763 707 885 q 676 639 707 693 q 568 514 646 585 q 478 418 497 449 q 458 342 458 388 l 458 276 m 458 144 l 458 0 l 333 0 l 333 144 l 458 144 z "},"@":{"ha":1410,"x_min":47,"x_max":1321,"o":"m 924 696 l 1039 696 l 914 307 q 897 238 897 258 q 918 194 897 213 q 967 176 939 176 q 1128 275 1056 176 q 1200 496 1200 374 q 1055 796 1200 669 q 711 922 910 922 q 328 760 492 922 q 165 379 165 597 q 315 45 165 181 q 686 -90 465 -90 q 954 -46 796 -90 l 993 -139 q 679 -197 838 -197 q 361 -123 507 -197 q 131 79 215 -49 q 47 358 47 207 q 106 626 47 494 q 267 850 164 757 q 482 981 358 933 q 729 1029 606 1029 q 1147 876 972 1029 q 1321 513 1321 724 q 1201 203 1321 342 q 943 79 1096 79 q 790 186 810 79 q 593 86 699 86 q 431 159 496 86 q 367 340 367 232 q 475 608 367 492 q 724 725 583 725 q 893 604 840 725 l 924 696 m 715 636 q 560 546 628 636 q 492 339 492 456 q 532 223 492 271 q 629 175 572 175 q 771 265 710 175 q 821 378 797 304 q 846 503 844 451 q 811 598 849 560 q 715 636 774 636 z "},"A":{"ha":926,"x_min":24,"x_max":907,"o":"m 658 304 l 268 304 l 161 0 l 24 0 l 385 1013 l 551 1013 l 907 0 l 763 0 l 658 304 m 622 413 l 467 874 l 300 413 l 622 413 z "},"B":{"ha":926,"x_min":110,"x_max":865,"o":"m 110 0 l 110 1013 l 521 1013 q 740 942 664 1013 q 821 756 821 869 q 681 535 821 600 q 822 439 778 497 q 865 289 865 381 q 788 85 865 167 q 567 0 708 0 l 110 0 m 239 576 l 489 576 q 636 613 589 576 q 692 738 692 656 q 636 863 692 819 q 489 899 589 899 l 239 899 l 239 576 m 239 114 l 554 114 q 689 163 644 114 q 736 288 736 213 q 689 414 736 364 q 554 463 644 463 l 239 463 l 239 114 z "},"C":{"ha":1003,"x_min":67,"x_max":940,"o":"m 919 699 l 788 699 q 714 851 767 803 q 514 915 646 915 q 281 803 367 915 q 196 496 196 690 q 285 194 196 306 q 525 82 374 82 q 669 116 607 82 q 761 213 731 150 q 807 369 792 271 l 940 369 q 524 -32 894 -32 q 214 86 328 -32 q 67 494 67 238 q 208 903 67 749 q 529 1029 322 1029 q 919 699 860 1029 z "},"D":{"ha":1003,"x_min":124,"x_max":926,"o":"m 124 0 l 124 1013 l 514 1013 q 817 878 707 1013 q 926 507 926 743 q 816 135 926 271 q 514 0 706 0 l 124 0 m 253 114 l 492 114 q 719 214 642 114 q 797 506 797 314 q 719 799 797 699 q 492 899 642 899 l 253 899 l 253 114 z "},"E":{"ha":926,"x_min":125,"x_max":851,"o":"m 254 461 l 254 114 l 851 114 l 851 0 l 125 0 l 125 1013 l 826 1013 l 826 899 l 254 899 l 254 575 l 806 575 l 806 461 l 254 461 z "},"F":{"ha":849,"x_min":125,"x_max":804,"o":"m 254 461 l 254 0 l 125 0 l 125 1013 l 804 1013 l 804 899 l 254 899 l 254 575 l 738 575 l 738 461 l 254 461 z "},"G":{"ha":1081,"x_min":61,"x_max":985,"o":"m 985 535 l 985 -6 l 903 -6 l 871 129 q 525 -32 726 -32 q 190 115 319 -32 q 61 496 61 263 q 109 745 61 632 q 244 932 157 858 q 547 1029 363 1029 q 833 944 721 1029 q 971 706 944 860 l 839 706 q 740 859 818 803 q 546 915 661 915 q 288 802 385 915 q 190 503 190 689 q 219 324 190 408 q 297 185 247 239 q 553 82 392 82 q 781 169 692 82 q 871 393 871 257 l 871 421 l 563 421 l 563 535 l 985 535 z "},"H":{"ha":1003,"x_min":115,"x_max":894,"o":"m 765 461 l 246 461 l 246 0 l 115 0 l 115 1013 l 244 1013 l 244 575 l 765 575 l 765 1013 l 894 1013 l 894 0 l 765 0 l 765 461 z "},"I":{"ha":386,"x_min":139,"x_max":269,"o":"m 269 1013 l 269 0 l 139 0 l 139 1013 l 269 1013 z "},"J":{"ha":694,"x_min":24,"x_max":592,"o":"m 463 1013 l 592 1013 l 592 253 q 515 44 592 121 q 306 -32 438 -32 q 99 40 175 -32 q 24 236 24 113 l 24 325 l 156 325 l 156 260 q 194 124 156 171 q 307 76 233 76 q 431 139 390 76 q 463 300 463 186 l 463 1013 z "},"K":{"ha":926,"x_min":110,"x_max":914,"o":"m 239 354 l 239 0 l 110 0 l 110 1013 l 239 1013 l 239 500 l 743 1013 l 910 1013 l 497 600 l 914 0 l 761 0 l 404 519 l 239 354 z "},"L":{"ha":772,"x_min":111,"x_max":740,"o":"m 240 1013 l 240 114 l 740 114 l 740 0 l 111 0 l 111 1013 l 240 1013 z "},"M":{"ha":1157,"x_min":104,"x_max":1057,"o":"m 650 0 l 514 0 l 226 849 l 226 0 l 104 0 l 104 1013 l 283 1013 l 583 131 l 878 1013 l 1057 1013 l 1057 0 l 935 0 l 935 849 l 650 0 z "},"N":{"ha":1003,"x_min":106,"x_max":897,"o":"m 897 1013 l 897 0 l 751 0 l 228 821 l 228 0 l 106 0 l 106 1013 l 246 1013 l 775 185 l 775 1013 l 897 1013 z "},"O":{"ha":1081,"x_min":53,"x_max":1031,"o":"m 540 1029 q 897 882 763 1029 q 1031 490 1031 735 q 984 255 1031 365 q 856 75 938 144 q 542 -32 729 -32 q 188 115 322 -32 q 53 499 53 261 q 188 883 53 736 q 540 1029 322 1029 m 540 915 q 281 801 379 915 q 182 499 182 686 q 281 197 182 311 q 542 82 381 82 q 802 196 703 82 q 901 493 901 310 q 803 800 901 685 q 540 915 704 915 z "},"P":{"ha":926,"x_min":126,"x_max":857,"o":"m 256 429 l 256 0 l 126 0 l 126 1013 l 544 1013 q 776 935 694 1013 q 857 715 857 858 q 769 501 857 581 q 574 429 689 429 l 256 429 m 256 543 l 525 543 q 670 590 618 543 q 722 721 722 638 q 670 851 722 804 q 525 899 618 899 l 256 899 l 256 543 z "},"Q":{"ha":1081,"x_min":53,"x_max":1031,"o":"m 1018 -1 l 953 -82 l 807 39 q 542 -32 688 -32 q 188 115 322 -32 q 53 499 53 261 q 188 883 53 736 q 542 1029 322 1029 q 895 883 760 1029 q 1031 501 1031 738 q 888 106 1031 263 l 1018 -1 m 668 285 l 792 183 q 901 500 901 307 q 802 801 901 686 q 542 915 703 915 q 281 801 381 915 q 182 499 182 686 q 281 197 182 311 q 540 82 379 82 q 707 121 624 82 l 604 207 l 668 285 z "},"R":{"ha":1003,"x_min":129,"x_max":943,"o":"m 258 436 l 258 0 l 129 0 l 129 1013 l 596 1013 q 824 942 744 1013 q 904 742 904 872 q 867 599 904 656 q 744 500 829 542 q 853 413 826 464 q 882 236 881 361 q 896 96 885 135 q 943 32 907 57 l 943 0 l 786 0 q 757 165 757 67 l 758 256 q 718 392 758 349 q 592 436 678 436 l 258 436 m 258 550 l 571 550 q 722 592 674 550 q 769 724 769 633 q 717 860 769 815 q 571 899 672 899 l 258 899 l 258 550 z "},"S":{"ha":926,"x_min":67,"x_max":863,"o":"m 828 715 l 706 715 q 639 867 704 814 q 453 921 574 921 q 288 874 350 921 q 226 750 226 826 q 264 658 226 692 q 393 600 301 625 l 647 532 q 806 438 750 504 q 863 278 863 371 q 833 149 863 213 q 751 46 803 86 q 467 -32 650 -32 q 126 113 232 -32 q 67 322 68 192 l 189 322 q 242 167 188 232 q 475 82 313 82 q 661 125 599 82 q 713 187 693 149 q 733 265 733 225 q 547 429 733 381 l 296 496 q 97 732 97 547 q 194 949 97 869 q 457 1029 290 1029 q 729 947 632 1029 q 828 715 826 864 z "},"T":{"ha":849,"x_min":29,"x_max":824,"o":"m 492 899 l 492 0 l 363 0 l 363 899 l 29 899 l 29 1013 l 824 1013 l 824 899 l 492 899 z "},"U":{"ha":1003,"x_min":118,"x_max":896,"o":"m 767 1013 l 896 1013 l 896 301 q 790 58 896 149 q 506 -32 683 -32 q 222 58 325 -32 q 118 301 118 147 l 118 1013 l 247 1013 l 247 301 q 321 135 247 192 q 506 82 394 82 q 697 140 628 82 q 767 301 767 199 l 767 1013 z "},"V":{"ha":926,"x_min":42,"x_max":896,"o":"m 544 0 l 406 0 l 42 1013 l 181 1013 l 478 156 l 758 1013 l 896 1013 l 544 0 z "},"W":{"ha":1311,"x_min":31,"x_max":1290,"o":"m 1033 0 l 892 0 l 658 832 l 432 0 l 290 0 l 31 1013 l 175 1013 l 365 190 l 590 1013 l 729 1013 l 960 190 l 1146 1013 l 1290 1013 l 1033 0 z "},"X":{"ha":926,"x_min":31,"x_max":901,"o":"m 543 519 l 901 0 l 742 0 l 465 422 l 188 0 l 31 0 l 389 519 l 53 1013 l 210 1013 l 469 615 l 731 1013 l 885 1013 l 543 519 z "},"Y":{"ha":926,"x_min":18,"x_max":918,"o":"m 538 397 l 538 0 l 408 0 l 408 397 l 18 1013 l 178 1013 l 475 519 l 764 1013 l 918 1013 l 538 397 z "},"Z":{"ha":849,"x_min":39,"x_max":810,"o":"m 807 1013 l 807 896 l 201 114 l 810 114 l 810 0 l 39 0 l 39 114 l 647 899 l 78 899 l 78 1013 l 807 1013 z "},"[":{"ha":386,"x_min":89,"x_max":347,"o":"m 347 1013 l 347 913 l 204 913 l 204 -194 l 347 -194 l 347 -294 l 89 -294 l 89 1013 l 347 1013 z "},"\\":{"ha":386,"x_min":-11,"x_max":394,"o":"m 65 1013 l 394 -28 l 318 -28 l -11 1013 l 65 1013 z "},"]":{"ha":386,"x_min":32,"x_max":290,"o":"m 32 -294 l 32 -194 l 175 -194 l 175 913 l 32 913 l 32 1013 l 290 1013 l 290 -294 l 32 -294 z "},"^":{"ha":651,"x_min":61,"x_max":590,"o":"m 274 985 l 375 985 l 590 457 l 494 457 l 325 874 l 157 457 l 61 457 l 274 985 z "},"_":{"ha":772,"x_min":-31,"x_max":803,"o":"m 803 -175 l 803 -244 l -31 -244 l -31 -175 l 803 -175 z "},"‘":{"ha":308,"x_min":90,"x_max":219,"o":"m 219 663 l 90 663 l 90 803 q 124 932 90 885 q 219 985 157 979 l 219 932 q 153 807 151 922 l 219 807 l 219 663 z "},"a":{"ha":772,"x_min":58,"x_max":743,"o":"m 743 68 l 743 -19 q 664 -32 694 -32 q 580 -6 608 -32 q 544 75 551 19 q 297 -32 428 -32 q 123 26 188 -32 q 58 183 58 85 q 186 378 58 325 q 260 399 221 392 q 419 422 299 407 q 514 449 488 431 q 540 503 540 467 l 540 533 q 498 614 540 586 q 378 642 456 642 q 256 610 297 642 q 207 513 214 579 l 90 513 q 140 664 94 613 q 382 749 217 749 q 586 698 517 749 q 656 550 656 647 l 656 122 q 718 65 656 65 q 743 68 731 65 m 540 229 l 540 360 q 354 319 494 339 q 220 274 261 306 q 179 186 179 243 q 217 100 179 131 q 322 69 254 69 q 494 135 422 69 q 540 229 540 176 z "},"b":{"ha":772,"x_min":75,"x_max":726,"o":"m 75 1013 l 190 1013 l 190 629 q 415 749 269 749 q 643 646 560 749 q 726 367 726 543 q 640 77 726 186 q 410 -32 554 -32 q 179 93 261 -32 l 179 0 l 75 0 l 75 1013 m 393 640 q 246 563 301 640 q 190 358 190 486 q 246 153 190 231 q 393 76 301 76 q 547 153 488 76 q 606 354 606 231 q 548 563 606 485 q 393 640 490 640 z "},"c":{"ha":694,"x_min":43,"x_max":663,"o":"m 654 483 l 538 483 q 482 601 526 560 q 365 642 438 642 q 217 565 271 642 q 164 351 164 488 q 218 149 164 222 q 368 75 272 75 q 546 250 517 75 l 663 250 q 574 42 651 117 q 365 -32 496 -32 q 130 72 217 -32 q 43 351 43 175 q 131 640 43 532 q 367 749 219 749 q 606 640 526 749 q 654 483 646 581 z "},"d":{"ha":772,"x_min":36,"x_max":688,"o":"m 688 1013 l 688 0 l 585 0 l 585 96 q 483 -2 538 28 q 353 -32 428 -32 q 121 74 206 -32 q 36 365 36 181 q 122 644 36 539 q 349 749 207 749 q 572 636 499 749 l 572 1013 l 688 1013 m 368 640 q 215 563 274 640 q 157 358 157 485 q 215 153 157 231 q 369 76 274 76 q 517 153 461 76 q 572 356 572 229 q 517 563 572 486 q 368 640 461 640 z "},"e":{"ha":772,"x_min":56,"x_max":713,"o":"m 713 325 l 176 325 q 215 169 178 225 q 390 75 275 75 q 581 221 532 75 l 697 221 q 593 35 675 101 q 386 -32 511 -32 q 144 72 233 -32 q 56 354 56 175 q 147 641 56 533 q 389 749 238 749 q 570 697 492 749 q 683 557 649 646 q 713 325 713 481 m 179 419 l 588 419 q 589 428 589 422 q 531 580 589 518 q 388 642 472 642 q 243 581 300 642 q 179 419 186 521 z "},"f":{"ha":386,"x_min":25,"x_max":358,"o":"m 358 728 l 358 633 l 238 633 l 238 0 l 122 0 l 122 633 l 25 633 l 25 728 l 122 728 l 122 851 q 167 973 122 929 q 293 1017 213 1017 q 358 1010 325 1017 l 358 914 q 318 915 332 915 q 238 842 238 915 l 238 728 l 358 728 z "},"g":{"ha":772,"x_min":40,"x_max":679,"o":"m 572 728 l 679 728 l 679 119 q 662 -85 679 -10 q 603 -210 644 -160 q 502 -278 568 -253 q 354 -303 436 -303 q 150 -244 226 -303 q 64 -83 74 -186 l 182 -83 q 226 -167 190 -139 q 358 -206 276 -206 q 519 -137 471 -206 q 561 61 561 -81 l 561 99 q 460 -1 513 29 q 340 -32 408 -32 q 132 65 218 -32 q 40 351 40 172 q 126 639 40 529 q 350 749 211 749 q 572 622 486 749 l 572 728 m 363 642 q 215 565 269 642 q 161 358 161 489 q 215 151 161 226 q 364 75 269 75 q 508 149 456 75 q 561 354 561 224 q 509 566 561 490 q 363 642 457 642 z "},"h":{"ha":772,"x_min":97,"x_max":675,"o":"m 97 1013 l 213 1013 l 213 628 q 316 722 264 694 q 446 749 368 749 q 613 695 551 749 q 675 550 675 642 l 675 0 l 560 0 l 560 504 q 513 614 560 581 q 410 647 468 647 q 267 580 321 647 q 213 401 213 513 l 213 0 l 97 0 l 97 1013 z "},"i":{"ha":308,"x_min":92,"x_max":208,"o":"m 208 728 l 208 0 l 93 0 l 93 728 l 208 728 m 208 1013 l 208 867 l 92 867 l 92 1013 l 208 1013 z "},"j":{"ha":308,"x_min":-25,"x_max":213,"o":"m 97 728 l 213 728 l 213 -151 q 14 -303 213 -303 q -25 -299 -4 -303 l -25 -200 q 3 -201 -1 -201 q 76 -181 56 -201 q 97 -106 97 -160 l 97 728 m 213 1013 l 213 867 l 97 867 l 97 1013 l 213 1013 z "},"k":{"ha":694,"x_min":81,"x_max":697,"o":"m 196 1013 l 196 419 l 504 728 l 653 728 l 400 476 l 697 0 l 554 0 l 308 394 l 196 283 l 196 0 l 81 0 l 81 1013 l 196 1013 z "},"l":{"ha":308,"x_min":94,"x_max":211,"o":"m 211 1013 l 211 0 l 94 0 l 94 1013 l 211 1013 z "},"m":{"ha":1157,"x_min":97,"x_max":1058,"o":"m 97 728 l 204 728 l 204 625 q 303 719 251 690 q 428 749 356 749 q 624 638 563 749 q 725 724 675 699 q 847 749 775 749 q 1003 697 949 749 q 1058 546 1058 644 l 1058 0 l 942 0 l 942 501 q 906 609 942 571 q 807 647 871 647 q 686 592 736 647 q 636 457 636 536 l 636 0 l 519 0 l 519 501 q 484 609 519 571 q 385 647 449 647 q 264 592 314 647 q 214 457 214 536 l 214 0 l 97 0 l 97 728 z "},"n":{"ha":772,"x_min":97,"x_max":676,"o":"m 97 728 l 204 728 l 204 606 q 309 715 253 682 q 446 749 365 749 q 614 694 551 749 q 676 550 676 640 l 676 0 l 561 0 l 561 504 q 521 608 561 569 q 411 647 481 647 q 268 580 322 647 q 214 401 214 513 l 214 0 l 97 0 l 97 728 z "},"o":{"ha":772,"x_min":50,"x_max":708,"o":"m 378 749 q 622 645 535 749 q 708 353 708 542 q 620 71 708 174 q 379 -32 532 -32 q 137 72 224 -32 q 50 358 50 175 q 138 645 50 542 q 378 749 225 749 m 379 642 q 226 566 282 642 q 171 358 171 490 q 226 151 171 226 q 379 75 282 75 q 531 151 475 75 q 588 354 588 226 q 533 565 588 489 q 379 642 478 642 z "},"p":{"ha":772,"x_min":75,"x_max":726,"o":"m 75 -303 l 75 728 l 182 728 l 182 618 q 414 749 264 749 q 642 642 558 749 q 726 351 726 535 q 641 73 726 178 q 415 -32 556 -32 q 192 76 281 -32 l 192 -303 l 75 -303 m 394 640 q 247 563 303 640 q 192 358 192 486 q 247 153 192 231 q 394 76 303 76 q 547 153 489 76 q 606 354 606 231 q 548 563 606 485 q 394 640 490 640 z "},"q":{"ha":772,"x_min":36,"x_max":688,"o":"m 688 -303 l 572 -303 l 572 83 q 347 -32 493 -32 q 119 71 203 -32 q 36 350 36 174 q 122 640 36 531 q 353 749 208 749 q 585 631 501 749 l 585 728 l 688 728 l 688 -303 m 369 640 q 215 563 274 640 q 157 358 157 485 q 215 153 157 231 q 369 76 274 76 q 517 153 461 76 q 572 354 572 229 q 517 563 572 485 q 369 640 463 640 z "},"r":{"ha":463,"x_min":96,"x_max":446,"o":"m 96 728 l 203 728 l 203 596 q 299 713 253 678 q 401 749 346 749 q 446 744 417 749 l 446 626 q 294 590 342 625 q 213 378 213 531 l 213 0 l 96 0 l 96 728 z "},"s":{"ha":694,"x_min":47,"x_max":638,"o":"m 608 525 l 486 525 q 340 642 482 642 q 228 612 269 642 q 186 532 186 582 q 218 469 186 493 q 321 428 250 444 l 432 401 q 589 327 540 375 q 638 199 638 279 q 556 31 638 93 q 338 -32 475 -32 q 47 217 56 -32 l 169 217 q 203 124 178 151 q 347 75 249 75 q 470 106 424 75 q 517 189 517 138 q 490 253 517 229 q 404 290 464 276 l 296 317 q 116 394 167 347 q 65 526 65 440 q 142 688 65 628 q 344 749 218 749 q 539 690 471 749 q 608 525 607 632 z "},"t":{"ha":386,"x_min":19,"x_max":353,"o":"m 353 728 l 353 633 l 233 633 l 233 135 q 247 83 233 96 q 297 69 260 69 q 353 75 332 69 l 353 -22 q 258 -32 299 -32 q 154 -2 190 -32 q 118 83 118 28 l 118 633 l 19 633 l 19 728 l 118 728 l 118 928 l 233 928 l 233 728 l 353 728 z "},"u":{"ha":772,"x_min":90,"x_max":669,"o":"m 669 0 l 565 0 l 565 101 q 458 -1 514 29 q 322 -32 403 -32 q 153 22 217 -32 q 90 167 90 76 l 90 728 l 206 728 l 206 213 q 246 108 206 147 q 356 69 286 69 q 500 137 446 69 q 554 315 554 204 l 554 728 l 669 728 l 669 0 z "},"v":{"ha":694,"x_min":14,"x_max":675,"o":"m 396 0 l 269 0 l 14 728 l 144 728 l 339 138 l 544 728 l 675 728 l 396 0 z "},"w":{"ha":1003,"x_min":8,"x_max":983,"o":"m 769 0 l 638 0 l 490 571 l 350 0 l 219 0 l 8 728 l 136 728 l 285 161 l 424 728 l 565 728 l 708 161 l 853 728 l 983 728 l 769 0 z "},"x":{"ha":694,"x_min":24,"x_max":657,"o":"m 406 376 l 657 0 l 522 0 l 340 279 l 156 0 l 24 0 l 281 371 l 38 728 l 169 728 l 344 464 l 519 728 l 650 728 l 406 376 z "},"y":{"ha":694,"x_min":28,"x_max":664,"o":"m 539 728 l 664 728 l 340 -153 q 261 -268 310 -232 q 153 -303 214 -303 q 75 -285 110 -303 l 75 -181 q 136 -189 113 -189 q 194 -173 172 -189 q 229 -118 215 -157 l 274 -3 l 28 728 l 151 728 l 338 161 l 539 728 z "},"z":{"ha":694,"x_min":43,"x_max":635,"o":"m 615 728 l 615 625 l 183 101 l 635 101 l 635 0 l 43 0 l 43 104 l 478 626 l 72 626 l 72 728 l 615 728 z "},"{":{"ha":464,"x_min":60,"x_max":383,"o":"m 383 1013 l 383 922 l 363 922 q 293 903 311 922 q 275 829 275 883 l 275 578 q 250 433 275 482 q 161 360 225 385 q 275 140 275 307 l 275 -111 q 293 -185 275 -165 q 363 -204 311 -204 l 383 -204 l 383 -294 l 319 -294 q 208 -247 247 -294 q 168 -112 168 -199 l 168 119 q 144 257 168 215 q 60 311 121 299 l 60 407 q 144 460 121 419 q 168 599 168 501 l 168 831 q 208 965 168 917 q 319 1013 247 1013 l 383 1013 z "},"|":{"ha":361,"x_min":139,"x_max":222,"o":"m 139 1013 l 222 1013 l 222 -294 l 139 -294 l 139 1013 z "},"}":{"ha":464,"x_min":40,"x_max":364,"o":"m 40 -294 l 40 -204 l 63 -204 q 133 -185 114 -204 q 151 -111 151 -165 l 151 140 q 265 358 151 307 q 151 578 151 411 l 151 829 q 133 903 151 883 q 63 922 114 922 l 40 922 l 40 1013 l 106 1013 q 218 965 178 1013 q 258 831 258 917 l 258 599 q 281 461 258 503 q 364 407 304 419 l 364 311 q 281 257 304 299 q 258 119 258 215 l 258 -112 q 218 -247 258 -199 q 106 -294 178 -294 l 40 -294 z "},"~":{"ha":811,"x_min":104,"x_max":706,"o":"m 632 571 l 706 571 l 706 549 q 666 420 706 468 q 560 372 626 372 q 447 408 506 372 l 311 496 q 251 515 279 515 q 189 467 211 515 q 178 407 182 447 l 104 407 q 148 556 110 504 q 254 608 186 608 q 329 586 292 608 l 492 490 q 561 467 531 467 q 617 491 600 467 q 632 571 633 515 z "},"¡":{"ha":463,"x_min":168,"x_max":285,"o":"m 169 -285 l 169 185 l 200 494 l 254 494 l 285 185 l 285 -285 l 169 -285 m 168 583 l 168 728 l 285 728 l 285 583 l 168 583 z "},"¢":{"ha":772,"x_min":72,"x_max":708,"o":"m 433 642 l 433 74 q 592 250 567 89 l 708 250 q 628 49 701 125 q 433 -32 554 -26 l 433 -167 l 375 -167 l 375 -31 q 153 84 235 -18 q 72 351 72 186 q 153 626 72 521 q 375 747 235 732 l 375 872 l 433 872 l 433 749 q 624 672 556 740 q 700 483 693 603 l 583 483 q 537 594 576 553 q 433 642 497 636 m 375 76 l 375 640 q 193 351 193 607 q 241 162 193 233 q 375 76 289 90 z "},"£":{"ha":772,"x_min":36,"x_max":743,"o":"m 508 522 l 508 446 l 319 446 q 340 347 340 386 q 305 236 340 293 q 176 85 269 179 q 346 139 258 139 q 460 118 394 139 q 569 96 536 96 q 685 138 625 96 l 743 46 q 561 -32 664 -32 q 358 17 497 -32 q 267 32 313 32 q 115 -19 193 32 l 49 72 q 183 214 144 154 q 222 338 222 274 q 189 446 222 390 l 36 446 l 36 522 l 149 522 q 88 635 101 601 q 75 715 75 669 q 170 927 75 842 q 406 1013 265 1013 q 565 976 494 1013 q 672 875 635 940 q 711 690 710 811 l 589 690 q 400 904 583 904 q 258 856 311 904 q 204 726 204 807 q 215 658 204 688 q 264 561 225 629 q 286 522 269 556 l 508 522 z "},"⁄":{"ha":232,"x_min":-242,"x_max":467,"o":"m 386 985 l 467 985 l -161 -28 l -242 -28 l 386 985 z "},"¥":{"ha":772,"x_min":15,"x_max":757,"o":"m 688 492 l 688 421 l 451 421 l 451 314 l 688 314 l 688 243 l 451 243 l 451 0 l 329 0 l 329 243 l 90 243 l 90 314 l 329 314 l 329 421 l 90 421 l 90 492 l 300 492 l 15 985 l 133 985 l 390 538 l 639 985 l 757 985 l 478 492 l 688 492 z "},"ƒ":{"ha":772,"x_min":15,"x_max":753,"o":"m 649 642 l 649 544 l 474 544 l 369 -7 q 279 -215 343 -150 q 92 -294 203 -294 q 15 -281 42 -294 l 39 -164 q 110 -186 74 -186 q 243 -29 213 -186 l 351 544 l 194 544 l 194 642 l 368 642 l 399 786 q 483 958 421 897 q 643 1025 554 1025 q 753 999 692 1025 l 711 889 q 639 914 667 914 q 508 739 540 914 l 492 642 l 649 642 z "},"§":{"ha":772,"x_min":60,"x_max":703,"o":"m 644 728 l 528 728 l 528 740 l 528 764 q 491 867 528 829 q 393 906 454 906 q 305 872 340 906 q 269 788 269 839 q 287 733 269 757 q 349 681 304 710 l 551 550 q 669 444 636 496 q 703 318 703 393 q 551 101 703 158 q 609 18 593 54 q 625 -62 625 -18 q 551 -229 625 -162 q 365 -296 476 -296 q 213 -253 278 -296 q 122 -139 147 -211 q 107 -19 107 -93 l 225 -19 q 250 -128 225 -94 q 367 -189 290 -189 q 463 -156 426 -189 q 500 -69 500 -122 q 424 53 500 0 l 188 215 q 90 314 119 263 q 60 433 60 365 q 94 552 60 503 q 206 642 129 601 q 144 783 144 713 q 219 946 144 879 q 401 1013 293 1013 q 577 944 510 1013 q 644 767 644 876 l 644 739 l 644 728 m 261 318 l 492 147 q 593 289 593 201 q 492 444 593 374 l 268 596 q 192 528 214 560 q 169 456 169 497 q 188 386 169 414 q 261 318 206 358 z "},"¤":{"ha":772,"x_min":93,"x_max":679,"o":"m 674 264 l 593 189 l 519 263 q 381 221 464 221 q 250 256 307 221 l 179 185 l 101 264 l 168 332 q 124 474 124 392 q 168 615 124 553 l 93 692 l 171 765 l 247 689 q 382 725 308 725 q 518 686 463 725 l 600 760 l 679 679 l 603 603 q 639 474 639 546 q 599 339 639 404 l 674 264 m 381 618 q 276 575 319 618 q 233 472 233 532 q 277 370 233 413 q 382 328 321 328 q 485 370 442 328 q 529 471 529 413 q 486 575 529 532 q 381 618 443 618 z "},"'":{"ha":265,"x_min":67,"x_max":197,"o":"m 67 985 l 197 985 l 197 831 l 160 644 l 104 644 l 67 831 l 67 985 z "},"“":{"ha":463,"x_min":67,"x_max":415,"o":"m 196 663 l 67 663 l 67 803 q 100 932 67 885 q 196 985 133 979 l 196 932 q 129 807 128 922 l 196 807 l 196 663 m 415 663 l 286 663 l 286 803 q 319 932 286 885 q 415 985 353 979 l 415 932 q 349 807 347 922 l 415 807 l 415 663 z "},"«":{"ha":772,"x_min":136,"x_max":632,"o":"m 136 315 l 136 439 l 347 608 l 347 493 l 200 378 l 347 263 l 347 147 l 136 315 m 421 315 l 421 439 l 632 608 l 632 493 l 485 378 l 632 263 l 632 147 l 421 315 z "},"‹":{"ha":463,"x_min":126,"x_max":338,"o":"m 126 315 l 126 439 l 338 608 l 338 493 l 190 378 l 338 263 l 338 147 l 126 315 z "},"›":{"ha":463,"x_min":118,"x_max":332,"o":"m 332 440 l 332 317 l 118 147 l 118 263 l 268 378 l 118 493 l 118 608 l 332 440 z "},"ﬁ":{"ha":694,"x_min":17,"x_max":606,"o":"m 350 728 l 350 633 l 229 633 l 229 0 l 114 0 l 114 633 l 17 633 l 17 728 l 114 728 l 114 851 q 159 973 114 929 q 285 1017 204 1017 q 350 1010 317 1017 l 350 914 q 310 915 324 915 q 229 842 229 915 l 229 728 l 350 728 m 606 728 l 606 0 l 490 0 l 490 728 l 606 728 m 606 1013 l 606 867 l 490 867 l 490 1013 l 606 1013 z "},"ﬂ":{"ha":694,"x_min":24,"x_max":597,"o":"m 357 728 l 357 633 l 236 633 l 236 0 l 121 0 l 121 633 l 24 633 l 24 728 l 121 728 l 121 851 q 166 973 121 929 q 292 1017 211 1017 q 357 1010 324 1017 l 357 914 q 317 915 331 915 q 236 842 236 915 l 236 728 l 357 728 m 597 1013 l 597 0 l 482 0 l 482 1013 l 597 1013 z "},"–":{"ha":772,"x_min":-7,"x_max":779,"o":"m 779 433 l 779 333 l -7 333 l -7 433 l 779 433 z "},"†":{"ha":772,"x_min":53,"x_max":713,"o":"m 713 697 l 713 583 l 443 583 l 443 -246 l 321 -246 l 321 583 l 53 583 l 53 697 l 321 697 l 321 985 l 443 985 l 443 697 l 713 697 z "},"‡":{"ha":772,"x_min":53,"x_max":713,"o":"m 713 697 l 713 583 l 443 583 l 443 157 l 713 157 l 713 43 l 443 43 l 443 -246 l 321 -246 l 321 43 l 53 43 l 53 157 l 321 157 l 321 583 l 53 583 l 53 697 l 321 697 l 321 985 l 443 985 l 443 697 l 713 697 z "},"·":{"ha":386,"x_min":121,"x_max":293,"o":"m 293 593 l 293 419 l 121 419 l 121 593 l 293 593 z "},"¶":{"ha":746,"x_min":67,"x_max":725,"o":"m 725 1013 l 725 924 l 646 924 l 646 -246 l 557 -246 l 557 924 l 443 924 l 443 -246 l 354 -246 l 354 360 q 181 421 247 365 q 67 679 67 515 q 157 916 67 819 q 378 1013 247 1013 l 725 1013 z "},"•":{"ha":486,"x_min":69,"x_max":417,"o":"m 120 602 q 145 627 120 602 q 243 653 171 653 q 366 601 315 653 q 417 476 417 550 q 365 356 417 407 q 243 306 314 306 q 120 356 171 306 q 69 479 69 407 q 120 602 69 551 z "},"‚":{"ha":308,"x_min":89,"x_max":219,"o":"m 90 144 l 219 144 l 219 4 q 89 -178 219 -167 l 89 -125 q 157 0 161 -115 l 90 0 l 90 144 z "},"„":{"ha":463,"x_min":65,"x_max":417,"o":"m 65 144 l 194 144 l 194 4 q 65 -178 194 -167 l 65 -125 q 117 -90 101 -119 q 132 0 133 -61 l 65 0 l 65 144 m 288 144 l 417 144 l 417 4 q 288 -178 417 -167 l 288 -125 q 340 -90 324 -119 q 354 0 356 -61 l 288 0 l 288 144 z "},"”":{"ha":463,"x_min":68,"x_max":419,"o":"m 68 985 l 197 985 l 197 844 q 68 663 197 674 l 68 715 q 120 750 104 721 q 135 840 136 779 l 68 840 l 68 985 m 290 985 l 419 985 l 419 844 q 290 663 419 674 l 290 715 q 342 750 326 721 q 357 840 358 779 l 290 840 l 290 985 z "},"»":{"ha":772,"x_min":136,"x_max":626,"o":"m 350 440 l 350 317 l 136 147 l 136 263 l 286 378 l 136 493 l 136 608 l 350 440 m 626 440 l 626 317 l 413 147 l 413 263 l 563 378 l 413 493 l 413 608 l 626 440 z "},"…":{"ha":1389,"x_min":160,"x_max":1229,"o":"m 304 144 l 304 0 l 160 0 l 160 144 l 304 144 m 767 144 l 767 0 l 622 0 l 622 144 l 767 144 m 1229 144 l 1229 0 l 1085 0 l 1085 144 l 1229 144 z "},"‰":{"ha":1389,"x_min":13,"x_max":1379,"o":"m 219 1011 q 367 950 307 1011 q 428 800 428 889 q 367 654 428 715 q 221 593 306 593 q 74 655 135 593 q 13 803 13 717 q 74 950 13 889 q 219 1011 135 1011 m 219 928 q 131 891 168 928 q 94 803 94 854 q 132 713 94 750 q 221 676 169 676 q 309 713 272 676 q 346 801 346 750 q 309 891 346 854 q 219 928 272 928 m 683 1025 l 775 1025 l 226 -28 l 135 -28 l 683 1025 m 671 388 q 819 326 758 388 q 879 176 879 265 q 818 31 879 92 q 672 -31 757 -31 q 525 31 586 -31 q 464 179 464 93 q 525 326 464 265 q 671 388 586 388 m 671 304 q 583 267 619 304 q 546 179 546 231 q 583 90 546 128 q 671 53 619 53 q 760 90 722 53 q 797 178 797 126 q 760 267 797 231 q 671 304 724 304 m 1171 388 q 1319 326 1258 388 q 1379 176 1379 265 q 1318 31 1379 92 q 1172 -31 1257 -31 q 1025 31 1086 -31 q 964 179 964 93 q 1025 326 964 265 q 1171 388 1086 388 m 1171 304 q 1083 267 1119 304 q 1046 179 1046 231 q 1083 90 1046 128 q 1171 53 1119 53 q 1260 90 1222 53 q 1297 178 1297 126 q 1260 267 1297 231 q 1171 304 1224 304 z "},"¿":{"ha":849,"x_min":132,"x_max":733,"o":"m 382 451 l 507 451 l 507 375 q 468 254 507 306 q 361 149 443 222 q 257 -35 257 56 q 306 -149 257 -106 q 436 -193 356 -193 q 592 -112 550 -193 q 615 24 615 -65 l 733 24 q 656 -219 733 -136 q 429 -301 579 -301 q 213 -229 293 -301 q 132 -35 132 -157 q 163 89 132 35 q 271 214 193 143 q 363 309 343 279 q 382 386 382 339 l 382 451 m 382 583 l 382 728 l 507 728 l 507 583 l 382 583 z "},"`":{"ha":463,"x_min":31,"x_max":321,"o":"m 188 1028 l 321 822 l 238 822 l 31 1028 l 188 1028 z "},"´":{"ha":463,"x_min":128,"x_max":418,"o":"m 261 1028 l 418 1028 l 211 822 l 128 822 l 261 1028 z "},"ˆ":{"ha":463,"x_min":28,"x_max":426,"o":"m 161 1029 l 293 1029 l 426 821 l 339 821 l 226 954 l 117 821 l 28 821 l 161 1029 z "},"˜":{"ha":463,"x_min":7,"x_max":443,"o":"m 363 996 l 443 996 q 319 851 422 851 q 201 886 290 851 q 133 904 153 904 q 88 853 101 904 l 7 853 q 49 958 18 921 q 126 996 81 996 q 224 969 158 996 q 311 944 278 944 q 363 996 346 944 z "},"¯":{"ha":463,"x_min":39,"x_max":419,"o":"m 419 974 l 419 876 l 39 876 l 39 974 l 419 974 z "},"˘":{"ha":463,"x_min":21,"x_max":439,"o":"m 21 1017 l 103 1017 q 231 925 114 925 q 319 949 286 925 q 357 1017 353 972 l 439 1017 q 228 829 424 829 q 50 908 108 829 q 21 1017 22 947 z "},"˙":{"ha":463,"x_min":160,"x_max":304,"o":"m 304 994 l 304 850 l 160 850 l 160 994 l 304 994 z "},"¨":{"ha":463,"x_min":42,"x_max":411,"o":"m 186 993 l 186 850 l 42 850 l 42 993 l 186 993 m 411 993 l 411 850 l 267 850 l 267 993 l 411 993 z "},"˚":{"ha":463,"x_min":110,"x_max":354,"o":"m 232 1047 q 319 1012 283 1047 q 354 925 354 976 q 318 840 354 875 q 232 804 282 804 q 146 840 182 804 q 110 926 110 876 q 146 1011 110 975 q 232 1047 182 1047 m 232 986 q 189 968 207 986 q 171 926 171 950 q 189 883 171 901 q 232 865 207 865 q 275 883 257 865 q 293 925 293 901 q 276 969 293 951 q 232 986 258 986 z "},"¸":{"ha":463,"x_min":54,"x_max":399,"o":"m 229 0 l 282 0 l 250 -78 q 289 -75 268 -75 q 370 -99 342 -75 q 399 -168 399 -124 q 353 -262 399 -228 q 228 -297 307 -297 q 54 -250 163 -297 l 83 -194 l 96 -200 q 219 -240 176 -240 q 273 -222 251 -240 q 294 -178 294 -204 q 231 -126 294 -126 q 188 -137 210 -126 l 171 -128 l 229 0 z "},"˝":{"ha":463,"x_min":-49,"x_max":483,"o":"m 85 1028 l 242 1028 l 35 819 l -49 819 l 85 1028 m 326 1028 l 483 1028 l 276 819 l 193 819 l 326 1028 z "},"˛":{"ha":463,"x_min":79,"x_max":368,"o":"m 214 0 l 311 0 q 208 -74 235 -43 q 181 -147 181 -104 q 281 -222 181 -222 q 368 -208 332 -222 l 368 -271 q 263 -285 301 -285 q 167 -267 217 -285 q 79 -154 79 -233 q 115 -64 79 -104 q 214 0 150 -24 z "},"ˇ":{"ha":463,"x_min":26,"x_max":425,"o":"m 292 821 l 160 821 l 26 1029 l 114 1029 l 226 896 l 336 1029 l 425 1029 l 292 821 z "},"—":{"ha":1389,"x_min":-12,"x_max":1390,"o":"m 1390 433 l 1390 333 l -12 333 l -12 433 l 1390 433 z "},"Æ":{"ha":1389,"x_min":15,"x_max":1319,"o":"m 650 297 l 276 297 l 158 0 l 15 0 l 431 1013 l 1294 1013 l 1294 899 l 779 899 l 779 575 l 1268 575 l 1268 461 l 779 461 l 779 114 l 1319 114 l 1319 0 l 650 0 l 650 297 m 650 411 l 650 899 l 511 899 l 319 411 l 650 411 z "},"ª":{"ha":514,"x_min":51,"x_max":463,"o":"m 444 492 l 444 421 l 60 421 l 60 492 l 444 492 m 463 624 l 463 563 q 418 554 440 554 q 342 614 353 554 q 196 554 274 554 q 90 590 129 554 q 51 688 51 626 q 131 808 51 774 q 269 833 175 826 q 323 846 308 836 q 338 879 338 856 l 338 897 q 244 958 338 958 q 177 942 197 958 q 150 881 157 925 l 68 881 q 247 1031 72 1031 q 417 900 417 1031 l 417 651 q 449 619 417 619 q 463 624 454 619 m 338 718 l 338 789 q 232 767 318 781 q 155 742 178 760 q 132 692 132 725 q 211 626 132 626 q 300 654 263 626 q 338 718 338 682 z "},"Ł":{"ha":772,"x_min":0,"x_max":767,"o":"m 240 564 l 478 732 l 478 626 l 240 457 l 240 114 l 767 114 l 767 0 l 111 0 l 111 389 l 0 310 l 0 417 l 111 494 l 111 1013 l 240 1013 l 240 564 z "},"Ø":{"ha":1081,"x_min":42,"x_max":1033,"o":"m 42 26 l 154 150 q 49 500 49 297 q 184 883 49 736 q 538 1029 319 1029 q 857 917 728 1029 l 978 1049 l 1033 999 l 910 864 q 1026 497 1026 717 q 891 115 1026 261 q 538 -32 756 -32 q 203 93 338 -32 l 96 -24 l 42 26 m 242 244 l 775 826 q 538 915 674 915 q 277 801 376 915 q 178 500 178 686 q 242 244 178 356 m 824 769 l 286 185 q 538 82 389 82 q 798 197 699 82 q 897 497 897 311 q 824 769 897 656 z "},"Œ":{"ha":1389,"x_min":60,"x_max":1332,"o":"m 858 454 l 858 114 l 1332 114 l 1332 0 l 729 0 l 729 103 q 474 -28 636 -28 q 181 100 292 -28 q 60 494 60 239 q 203 921 60 781 q 326 1001 254 972 q 475 1029 399 1029 q 729 907 643 1029 l 729 1013 l 1325 1013 l 1325 899 l 858 899 l 858 568 l 1314 568 l 1314 454 l 858 454 m 729 253 l 729 749 q 475 915 647 915 q 260 807 335 915 q 189 500 189 700 q 260 194 189 300 q 474 86 335 86 q 729 253 647 86 z "},"º":{"ha":507,"x_min":56,"x_max":450,"o":"m 436 492 l 436 421 l 71 421 l 71 492 l 436 492 m 253 1031 q 399 968 347 1031 q 450 789 450 906 q 398 617 450 679 q 253 554 346 554 q 108 617 160 554 q 56 793 56 679 q 108 968 56 906 q 253 1031 160 1031 m 253 958 q 167 914 199 958 q 136 793 136 869 q 167 671 136 715 q 253 626 199 626 q 338 670 307 626 q 369 790 369 714 q 339 914 369 869 q 253 958 308 958 z "},"æ":{"ha":1235,"x_min":47,"x_max":1174,"o":"m 1043 221 l 1160 221 q 1056 35 1138 103 q 850 -32 974 -32 q 704 -1 769 -32 q 603 83 639 29 q 581 121 597 92 q 433 4 503 40 q 281 -32 363 -32 q 111 26 175 -32 q 47 183 47 85 q 176 378 47 324 q 408 421 243 407 q 504 444 479 426 q 529 503 529 463 l 529 533 q 365 642 529 642 q 196 513 210 642 l 79 513 q 129 664 83 613 q 368 749 206 749 q 611 635 546 749 q 713 718 649 688 q 851 749 776 749 q 1031 697 953 749 q 1144 557 1108 646 q 1174 325 1174 481 l 638 325 q 676 169 639 225 q 851 75 736 75 q 1043 221 992 75 m 529 218 l 529 358 q 343 318 483 339 q 208 274 249 304 q 168 186 168 243 q 206 101 168 132 q 307 69 243 69 q 461 122 392 69 q 529 218 529 175 m 640 419 l 1049 419 q 993 580 1049 518 q 849 642 938 642 q 704 581 761 642 q 640 419 647 521 z "},"ı":{"ha":386,"x_min":131,"x_max":247,"o":"m 247 728 l 247 0 l 131 0 l 131 728 l 247 728 z "},"ł":{"ha":308,"x_min":0,"x_max":294,"o":"m 203 585 l 294 656 l 294 567 l 203 496 l 203 0 l 88 0 l 88 435 l 0 365 l 0 454 l 88 524 l 88 1013 l 203 1013 l 203 585 z "},"ø":{"ha":849,"x_min":25,"x_max":735,"o":"m 735 710 l 647 611 q 708 358 708 510 q 622 72 708 175 q 381 -32 535 -32 q 154 54 238 -32 l 69 -42 l 25 -3 l 117 100 q 50 358 50 199 q 138 645 50 542 q 379 749 225 749 q 610 658 519 749 l 690 749 l 735 710 m 563 515 l 232 142 q 379 75 292 75 q 532 151 476 75 q 588 358 588 226 q 563 515 588 450 m 200 196 l 532 569 q 379 642 475 642 q 226 566 282 642 q 171 358 171 490 q 200 196 171 264 z "},"œ":{"ha":1311,"x_min":56,"x_max":1249,"o":"m 1117 221 l 1233 221 q 1129 35 1211 101 q 924 -32 1047 -32 q 654 111 740 -32 q 385 -32 567 -32 q 142 70 228 -32 q 56 360 56 172 q 142 647 56 546 q 385 749 228 749 q 657 601 572 749 q 770 710 700 671 q 925 749 840 749 q 1106 697 1028 749 q 1219 557 1185 646 q 1249 325 1249 481 l 713 325 q 751 169 714 225 q 926 75 811 75 q 1117 221 1068 75 m 538 566 q 510 604 538 566 q 385 642 482 642 q 232 566 288 642 q 176 360 176 490 q 232 151 176 226 q 385 75 288 75 q 537 150 481 75 q 593 356 593 225 q 538 566 593 490 m 715 419 l 1124 419 q 1068 580 1124 518 q 924 642 1013 642 q 779 581 836 642 q 715 419 722 521 z "},"ß":{"ha":849,"x_min":175,"x_max":786,"o":"m 419 485 l 419 599 l 432 599 q 569 642 515 599 q 622 753 622 685 q 576 862 622 819 q 458 904 531 904 q 336 862 382 904 q 290 747 290 819 l 290 0 l 175 0 l 175 747 q 247 936 175 872 q 468 1013 336 1013 q 667 942 592 1013 q 743 757 743 871 q 592 557 743 613 q 740 462 693 522 q 786 304 786 401 q 702 62 786 151 q 475 -28 618 -28 q 414 -22 446 -28 l 414 86 l 425 86 l 464 86 q 609 144 553 86 q 665 296 665 203 q 632 415 665 367 q 539 476 599 463 q 419 485 496 485 z "},"Ä":{"ha":926,"x_min":24,"x_max":907,"o":"m 658 304 l 268 304 l 161 0 l 24 0 l 385 1013 l 551 1013 l 907 0 l 763 0 l 658 304 m 622 413 l 467 874 l 300 413 l 622 413 m 425 1269 l 425 1126 l 281 1126 l 281 1269 l 425 1269 m 650 1269 l 650 1126 l 506 1126 l 506 1269 l 650 1269 z "},"Á":{"ha":926,"x_min":24,"x_max":907,"o":"m 658 304 l 268 304 l 161 0 l 24 0 l 385 1013 l 551 1013 l 907 0 l 763 0 l 658 304 m 622 413 l 467 874 l 300 413 l 622 413 m 514 1304 l 671 1304 l 464 1099 l 381 1099 l 514 1304 z "},"À":{"ha":926,"x_min":24,"x_max":907,"o":"m 658 304 l 268 304 l 161 0 l 24 0 l 385 1013 l 551 1013 l 907 0 l 763 0 l 658 304 m 622 413 l 467 874 l 300 413 l 622 413 m 422 1304 l 556 1099 l 472 1099 l 265 1304 l 422 1304 z "},"Â":{"ha":926,"x_min":24,"x_max":907,"o":"m 658 304 l 268 304 l 161 0 l 24 0 l 385 1013 l 551 1013 l 907 0 l 763 0 l 658 304 m 622 413 l 467 874 l 300 413 l 622 413 m 400 1306 l 532 1306 l 665 1097 l 578 1097 l 465 1231 l 356 1097 l 267 1097 l 400 1306 z "},"Ă":{"ha":926,"x_min":24,"x_max":907,"o":"m 658 304 l 268 304 l 161 0 l 24 0 l 385 1013 l 551 1013 l 907 0 l 763 0 l 658 304 m 622 413 l 467 874 l 300 413 l 622 413 m 257 1293 l 339 1293 q 467 1201 350 1201 q 556 1225 522 1201 q 593 1293 589 1249 l 675 1293 q 464 1106 660 1106 q 286 1185 344 1106 q 257 1293 258 1221 z "},"Ã":{"ha":926,"x_min":24,"x_max":907,"o":"m 658 304 l 268 304 l 161 0 l 24 0 l 385 1013 l 551 1013 l 907 0 l 763 0 l 658 304 m 622 413 l 467 874 l 300 413 l 622 413 m 603 1272 l 683 1272 q 560 1128 663 1128 q 442 1163 531 1128 q 374 1181 393 1181 q 328 1129 342 1181 l 247 1129 q 290 1235 258 1197 q 367 1272 321 1272 q 464 1246 399 1272 q 551 1221 518 1221 q 603 1272 586 1221 z "},"Å":{"ha":926,"x_min":24,"x_max":907,"o":"m 658 304 l 268 304 l 161 0 l 24 0 l 385 1013 l 551 1013 l 907 0 l 763 0 l 658 304 m 622 413 l 467 874 l 300 413 l 622 413 m 465 1324 q 552 1288 517 1324 q 588 1201 588 1253 q 551 1116 588 1151 q 465 1081 515 1081 q 379 1117 415 1081 q 343 1203 343 1153 q 379 1288 343 1251 q 465 1324 415 1324 m 465 1263 q 422 1244 440 1263 q 404 1203 404 1226 q 422 1160 404 1178 q 465 1142 440 1142 q 508 1160 490 1142 q 526 1201 526 1178 q 509 1245 526 1228 q 465 1263 492 1263 z "},"Ą":{"ha":926,"x_min":24,"x_max":961,"o":"m 658 304 l 268 304 l 161 0 l 24 0 l 385 1013 l 551 1013 l 907 0 q 774 -146 774 -64 q 874 -222 774 -222 q 961 -208 925 -222 l 961 -271 q 856 -285 894 -285 q 760 -267 810 -285 q 672 -154 672 -233 q 705 -68 672 -104 q 813 0 738 -32 l 763 0 l 658 304 m 622 413 l 467 874 l 300 413 l 622 413 z "},"Ç":{"ha":1003,"x_min":67,"x_max":940,"o":"m 526 -32 l 508 -78 q 547 -75 526 -75 q 628 -99 600 -75 q 657 -168 657 -124 q 611 -262 657 -228 q 486 -297 565 -297 q 313 -250 419 -297 l 342 -194 l 354 -200 q 478 -240 433 -240 q 531 -222 510 -240 q 553 -178 553 -204 q 489 -126 553 -126 q 446 -137 468 -126 l 431 -128 l 474 -32 q 354 -6 396 -21 q 267 40 313 8 q 119 228 172 108 q 67 494 67 347 q 208 903 67 749 q 529 1029 322 1029 q 919 699 860 1029 l 788 699 q 714 851 767 803 q 515 915 646 915 q 281 803 367 915 q 196 496 196 690 q 285 193 196 306 q 525 81 374 81 q 669 115 607 81 q 761 211 731 149 q 807 369 792 271 l 940 369 q 526 -32 894 -32 z "},"Ć":{"ha":1003,"x_min":67,"x_max":940,"o":"m 919 699 l 788 699 q 714 851 767 803 q 514 915 646 915 q 281 803 367 915 q 196 496 196 690 q 285 194 196 306 q 525 82 374 82 q 669 116 607 82 q 761 213 731 150 q 807 369 792 271 l 940 369 q 524 -32 894 -32 q 214 86 328 -32 q 67 494 67 238 q 208 903 67 749 q 529 1029 322 1029 q 919 699 860 1029 m 564 1304 l 721 1304 l 514 1099 l 431 1099 l 564 1304 z "},"Č":{"ha":1003,"x_min":67,"x_max":940,"o":"m 919 699 l 788 699 q 714 851 767 803 q 514 915 646 915 q 281 803 367 915 q 196 496 196 690 q 285 194 196 306 q 525 82 374 82 q 669 116 607 82 q 761 213 731 150 q 807 369 792 271 l 940 369 q 524 -32 894 -32 q 214 86 328 -32 q 67 494 67 238 q 208 903 67 749 q 529 1029 322 1029 q 919 699 860 1029 m 594 1097 l 463 1097 l 329 1306 l 417 1306 l 529 1172 l 639 1306 l 728 1306 l 594 1097 z "},"Ď":{"ha":1003,"x_min":124,"x_max":926,"o":"m 124 0 l 124 1013 l 514 1013 q 817 878 707 1013 q 926 507 926 743 q 816 135 926 271 q 514 0 706 0 l 124 0 m 253 114 l 492 114 q 719 214 642 114 q 797 506 797 314 q 719 799 797 699 q 492 899 642 899 l 253 899 l 253 114 m 536 1097 l 404 1097 l 271 1306 l 358 1306 l 471 1172 l 581 1306 l 669 1306 l 536 1097 z "},"Ë":{"ha":926,"x_min":125,"x_max":851,"o":"m 254 461 l 254 114 l 851 114 l 851 0 l 125 0 l 125 1013 l 826 1013 l 826 899 l 254 899 l 254 575 l 806 575 l 806 461 l 254 461 m 438 1269 l 438 1126 l 293 1126 l 293 1269 l 438 1269 m 663 1269 l 663 1126 l 518 1126 l 518 1269 l 663 1269 z "},"É":{"ha":926,"x_min":125,"x_max":851,"o":"m 254 461 l 254 114 l 851 114 l 851 0 l 125 0 l 125 1013 l 826 1013 l 826 899 l 254 899 l 254 575 l 806 575 l 806 461 l 254 461 m 508 1304 l 665 1304 l 458 1099 l 375 1099 l 508 1304 z "},"È":{"ha":926,"x_min":125,"x_max":851,"o":"m 254 461 l 254 114 l 851 114 l 851 0 l 125 0 l 125 1013 l 826 1013 l 826 899 l 254 899 l 254 575 l 806 575 l 806 461 l 254 461 m 444 1304 l 578 1099 l 494 1099 l 288 1304 l 444 1304 z "},"Ê":{"ha":926,"x_min":125,"x_max":851,"o":"m 254 461 l 254 114 l 851 114 l 851 0 l 125 0 l 125 1013 l 826 1013 l 826 899 l 254 899 l 254 575 l 806 575 l 806 461 l 254 461 m 413 1306 l 544 1306 l 678 1097 l 590 1097 l 478 1231 l 368 1097 l 279 1097 l 413 1306 z "},"Ě":{"ha":926,"x_min":125,"x_max":851,"o":"m 254 461 l 254 114 l 851 114 l 851 0 l 125 0 l 125 1013 l 826 1013 l 826 899 l 254 899 l 254 575 l 806 575 l 806 461 l 254 461 m 544 1097 l 413 1097 l 279 1306 l 367 1306 l 479 1172 l 589 1306 l 678 1306 l 544 1097 z "},"Ė":{"ha":926,"x_min":125,"x_max":851,"o":"m 254 461 l 254 114 l 851 114 l 851 0 l 125 0 l 125 1013 l 826 1013 l 826 899 l 254 899 l 254 575 l 806 575 l 806 461 l 254 461 m 551 1271 l 551 1126 l 407 1126 l 407 1271 l 551 1271 z "},"Ę":{"ha":926,"x_min":125,"x_max":906,"o":"m 254 461 l 254 114 l 851 114 l 851 0 q 718 -147 718 -62 q 818 -222 718 -222 q 906 -208 869 -222 l 906 -271 q 801 -285 842 -285 q 704 -267 756 -285 q 617 -154 617 -233 q 650 -67 617 -104 q 757 0 683 -31 l 125 0 l 125 1013 l 826 1013 l 826 899 l 254 899 l 254 575 l 806 575 l 806 461 l 254 461 z "},"Ğ":{"ha":1081,"x_min":61,"x_max":985,"o":"m 985 535 l 985 -6 l 903 -6 l 871 129 q 525 -32 726 -32 q 190 115 319 -32 q 61 496 61 263 q 109 745 61 632 q 244 932 157 858 q 547 1029 363 1029 q 833 944 721 1029 q 971 706 944 860 l 839 706 q 740 859 818 803 q 546 915 661 915 q 288 802 385 915 q 190 503 190 689 q 219 324 190 408 q 297 185 247 239 q 553 82 392 82 q 781 169 692 82 q 871 393 871 257 l 871 421 l 563 421 l 563 535 l 985 535 m 346 1293 l 428 1293 q 556 1201 439 1201 q 644 1225 611 1201 q 682 1293 678 1249 l 764 1293 q 553 1106 749 1106 q 375 1185 433 1106 q 346 1293 347 1221 z "},"Ï":{"ha":386,"x_min":13,"x_max":382,"o":"m 268 1013 l 268 0 l 139 0 l 139 1013 l 268 1013 m 157 1260 l 157 1117 l 13 1117 l 13 1260 l 157 1260 m 382 1260 l 382 1117 l 238 1117 l 238 1260 l 382 1260 z "},"Í":{"ha":386,"x_min":99,"x_max":389,"o":"m 268 1013 l 268 0 l 139 0 l 139 1013 l 268 1013 m 232 1304 l 389 1304 l 182 1099 l 99 1099 l 232 1304 z "},"Ì":{"ha":386,"x_min":1,"x_max":292,"o":"m 268 1013 l 268 0 l 139 0 l 139 1013 l 268 1013 m 158 1304 l 292 1099 l 208 1099 l 1 1304 l 158 1304 z "},"Î":{"ha":386,"x_min":-1,"x_max":397,"o":"m 268 1013 l 268 0 l 139 0 l 139 1013 l 268 1013 m 132 1306 l 264 1306 l 397 1097 l 310 1097 l 197 1231 l 88 1097 l -1 1097 l 132 1306 z "},"İ":{"ha":386,"x_min":128,"x_max":272,"o":"m 271 1013 l 271 0 l 140 0 l 140 1013 l 271 1013 m 272 1271 l 272 1126 l 128 1126 l 128 1271 l 272 1271 z "},"Ĺ":{"ha":772,"x_min":97,"x_max":740,"o":"m 240 1013 l 240 114 l 740 114 l 740 0 l 111 0 l 111 1013 l 240 1013 m 231 1304 l 388 1304 l 181 1099 l 97 1099 l 231 1304 z "},"Ľ":{"ha":772,"x_min":111,"x_max":740,"o":"m 240 1013 l 240 114 l 740 114 l 740 0 l 111 0 l 111 1013 l 240 1013 m 379 1013 l 518 1013 l 518 869 q 482 749 518 796 q 390 701 446 701 l 379 701 l 379 754 q 456 874 460 754 l 379 874 l 379 1013 z "},"Ń":{"ha":1003,"x_min":106,"x_max":897,"o":"m 897 1013 l 897 0 l 751 0 l 228 821 l 228 0 l 106 0 l 106 1013 l 246 1013 l 775 185 l 775 1013 l 897 1013 m 540 1304 l 697 1304 l 490 1099 l 407 1099 l 540 1304 z "},"Ň":{"ha":1003,"x_min":106,"x_max":897,"o":"m 897 1013 l 897 0 l 751 0 l 228 821 l 228 0 l 106 0 l 106 1013 l 246 1013 l 775 185 l 775 1013 l 897 1013 m 568 1097 l 436 1097 l 303 1306 l 390 1306 l 503 1172 l 613 1306 l 701 1306 l 568 1097 z "},"Ñ":{"ha":1003,"x_min":106,"x_max":897,"o":"m 897 1013 l 897 0 l 751 0 l 228 821 l 228 0 l 106 0 l 106 1013 l 246 1013 l 775 185 l 775 1013 l 897 1013 m 649 1272 l 729 1272 q 606 1128 708 1128 q 488 1163 576 1128 q 419 1181 439 1181 q 374 1129 388 1181 l 293 1129 q 335 1235 304 1197 q 413 1272 367 1272 q 510 1246 444 1272 q 597 1221 564 1221 q 649 1272 632 1221 z "},"Ö":{"ha":1081,"x_min":53,"x_max":1031,"o":"m 540 1029 q 897 882 763 1029 q 1031 490 1031 735 q 984 255 1031 365 q 856 75 938 144 q 542 -32 729 -32 q 188 115 322 -32 q 53 499 53 261 q 188 883 53 736 q 540 1029 322 1029 m 540 915 q 281 801 379 915 q 182 499 182 686 q 281 197 182 311 q 542 82 381 82 q 802 196 703 82 q 901 493 901 310 q 803 800 901 685 q 540 915 704 915 m 501 1269 l 501 1126 l 357 1126 l 357 1269 l 501 1269 m 726 1269 l 726 1126 l 582 1126 l 582 1269 l 726 1269 z "},"Ó":{"ha":1081,"x_min":53,"x_max":1031,"o":"m 540 1029 q 897 882 763 1029 q 1031 490 1031 735 q 984 255 1031 365 q 856 75 938 144 q 542 -32 729 -32 q 188 115 322 -32 q 53 499 53 261 q 188 883 53 736 q 540 1029 322 1029 m 540 915 q 281 801 379 915 q 182 499 182 686 q 281 197 182 311 q 542 82 381 82 q 802 196 703 82 q 901 493 901 310 q 803 800 901 685 q 540 915 704 915 m 581 1304 l 738 1304 l 531 1099 l 447 1099 l 581 1304 z "},"Ò":{"ha":1081,"x_min":53,"x_max":1031,"o":"m 540 1029 q 897 882 763 1029 q 1031 490 1031 735 q 984 255 1031 365 q 856 75 938 144 q 542 -32 729 -32 q 188 115 322 -32 q 53 499 53 261 q 188 883 53 736 q 540 1029 322 1029 m 540 915 q 281 801 379 915 q 182 499 182 686 q 281 197 182 311 q 542 82 381 82 q 802 196 703 82 q 901 493 901 310 q 803 800 901 685 q 540 915 704 915 m 499 1304 l 632 1099 l 549 1099 l 342 1304 l 499 1304 z "},"Ô":{"ha":1081,"x_min":53,"x_max":1031,"o":"m 540 1029 q 897 882 763 1029 q 1031 490 1031 735 q 984 255 1031 365 q 856 75 938 144 q 542 -32 729 -32 q 188 115 322 -32 q 53 499 53 261 q 188 883 53 736 q 540 1029 322 1029 m 540 915 q 281 801 379 915 q 182 499 182 686 q 281 197 182 311 q 542 82 381 82 q 802 196 703 82 q 901 493 901 310 q 803 800 901 685 q 540 915 704 915 m 476 1306 l 608 1306 l 742 1097 l 654 1097 l 542 1231 l 432 1097 l 343 1097 l 476 1306 z "},"Õ":{"ha":1081,"x_min":53,"x_max":1031,"o":"m 540 1029 q 897 882 763 1029 q 1031 490 1031 735 q 984 255 1031 365 q 856 75 938 144 q 542 -32 729 -32 q 188 115 322 -32 q 53 499 53 261 q 188 883 53 736 q 540 1029 322 1029 m 540 915 q 281 801 379 915 q 182 499 182 686 q 281 197 182 311 q 542 82 381 82 q 802 196 703 82 q 901 493 901 310 q 803 800 901 685 q 540 915 704 915 m 683 1272 l 764 1272 q 640 1128 743 1128 q 522 1163 611 1128 q 454 1181 474 1181 q 408 1129 422 1181 l 328 1129 q 370 1235 339 1197 q 447 1272 401 1272 q 544 1246 479 1272 q 632 1221 599 1221 q 683 1272 667 1221 z "},"Ő":{"ha":1081,"x_min":53,"x_max":1031,"o":"m 540 1029 q 897 882 763 1029 q 1031 490 1031 735 q 984 255 1031 365 q 856 75 938 144 q 542 -32 729 -32 q 188 115 322 -32 q 53 499 53 261 q 188 883 53 736 q 540 1029 322 1029 m 540 915 q 281 801 379 915 q 182 499 182 686 q 281 197 182 311 q 542 82 381 82 q 802 196 703 82 q 901 493 901 310 q 803 800 901 685 q 540 915 704 915 m 506 1304 l 663 1304 l 456 1096 l 372 1096 l 506 1304 m 747 1304 l 904 1304 l 697 1096 l 614 1096 l 747 1304 z "},"Ŕ":{"ha":1003,"x_min":129,"x_max":943,"o":"m 258 436 l 258 0 l 129 0 l 129 1013 l 596 1013 q 824 942 744 1013 q 904 742 904 872 q 867 599 904 656 q 744 500 829 542 q 853 413 826 464 q 882 236 881 361 q 896 96 885 135 q 943 32 907 57 l 943 0 l 786 0 q 757 165 757 67 l 758 256 q 718 392 758 349 q 592 436 678 436 l 258 436 m 258 550 l 571 550 q 722 592 674 550 q 769 724 769 633 q 717 860 769 815 q 571 899 672 899 l 258 899 l 258 550 m 532 1304 l 689 1304 l 482 1099 l 399 1099 l 532 1304 z "},"Ř":{"ha":1003,"x_min":129,"x_max":943,"o":"m 258 436 l 258 0 l 129 0 l 129 1013 l 596 1013 q 824 942 744 1013 q 904 742 904 872 q 867 599 904 656 q 744 500 829 542 q 853 413 826 464 q 882 236 881 361 q 896 96 885 135 q 943 32 907 57 l 943 0 l 786 0 q 757 165 757 67 l 758 256 q 718 392 758 349 q 592 436 678 436 l 258 436 m 258 550 l 571 550 q 722 592 674 550 q 769 724 769 633 q 717 860 769 815 q 571 899 672 899 l 258 899 l 258 550 m 561 1097 l 429 1097 l 296 1306 l 383 1306 l 496 1172 l 606 1306 l 694 1306 l 561 1097 z "},"Ś":{"ha":926,"x_min":67,"x_max":863,"o":"m 828 715 l 706 715 q 639 867 704 814 q 453 921 574 921 q 288 874 350 921 q 226 750 226 826 q 264 658 226 692 q 393 600 301 625 l 647 532 q 806 438 750 504 q 863 278 863 371 q 833 149 863 213 q 751 46 803 86 q 467 -32 650 -32 q 126 113 232 -32 q 67 322 68 192 l 189 322 q 242 167 188 232 q 475 82 313 82 q 661 125 599 82 q 713 187 693 149 q 733 265 733 225 q 547 429 733 381 l 296 496 q 97 732 97 547 q 194 949 97 869 q 457 1029 290 1029 q 729 947 632 1029 q 828 715 826 864 m 503 1304 l 660 1304 l 453 1099 l 369 1099 l 503 1304 z "},"Š":{"ha":926,"x_min":67,"x_max":863,"o":"m 828 715 l 706 715 q 639 867 704 814 q 453 921 574 921 q 288 874 350 921 q 226 750 226 826 q 264 658 226 692 q 393 600 301 625 l 647 532 q 806 438 750 504 q 863 278 863 371 q 833 149 863 213 q 751 46 803 86 q 467 -32 650 -32 q 126 113 232 -32 q 67 322 68 192 l 189 322 q 242 167 188 232 q 475 82 313 82 q 661 125 599 82 q 713 187 693 149 q 733 265 733 225 q 547 429 733 381 l 296 496 q 97 732 97 547 q 194 949 97 869 q 457 1029 290 1029 q 729 947 632 1029 q 828 715 826 864 m 528 1097 l 396 1097 l 263 1306 l 350 1306 l 463 1172 l 572 1306 l 661 1306 l 528 1097 z "},"Ş":{"ha":926,"x_min":67,"x_max":863,"o":"m 465 -33 l 444 -78 q 483 -75 464 -75 q 565 -99 536 -75 q 593 -168 593 -124 q 547 -262 593 -228 q 422 -297 501 -297 q 249 -250 357 -297 l 278 -194 l 290 -200 q 414 -240 369 -240 q 467 -222 446 -240 q 489 -178 489 -204 q 425 -126 489 -126 q 382 -136 406 -126 l 367 -128 l 410 -32 q 394 -28 397 -28 l 333 -18 q 135 101 207 8 q 67 322 64 193 l 189 322 q 242 167 188 232 q 475 82 313 82 q 661 125 599 82 q 713 187 693 149 q 733 265 733 225 q 547 429 733 381 l 296 496 q 97 732 97 547 q 194 949 97 869 q 457 1029 290 1029 q 729 947 632 1029 q 828 715 826 864 l 706 715 q 639 867 704 814 q 453 921 574 921 q 288 874 350 921 q 226 750 226 826 q 264 658 226 692 q 393 600 301 625 l 647 532 q 806 438 750 504 q 863 278 863 371 q 812 113 863 188 q 676 3 761 38 q 465 -33 599 -28 z "},"Ť":{"ha":849,"x_min":29,"x_max":824,"o":"m 492 899 l 492 0 l 363 0 l 363 899 l 29 899 l 29 1013 l 824 1013 l 824 899 l 492 899 m 493 1097 l 361 1097 l 228 1306 l 315 1306 l 428 1172 l 538 1306 l 626 1306 l 493 1097 z "},"Ü":{"ha":1003,"x_min":118,"x_max":896,"o":"m 767 1013 l 896 1013 l 896 301 q 790 58 896 149 q 506 -32 683 -32 q 222 58 325 -32 q 118 301 118 147 l 118 1013 l 247 1013 l 247 301 q 321 135 247 192 q 506 82 394 82 q 697 140 628 82 q 767 301 767 199 l 767 1013 m 467 1269 l 467 1126 l 322 1126 l 322 1269 l 467 1269 m 692 1269 l 692 1126 l 547 1126 l 547 1269 l 692 1269 z "},"Ú":{"ha":1003,"x_min":118,"x_max":896,"o":"m 767 1013 l 896 1013 l 896 301 q 790 58 896 149 q 506 -32 683 -32 q 222 58 325 -32 q 118 301 118 147 l 118 1013 l 247 1013 l 247 301 q 321 135 247 192 q 506 82 394 82 q 697 140 628 82 q 767 301 767 199 l 767 1013 m 538 1304 l 694 1304 l 488 1099 l 404 1099 l 538 1304 z "},"Ù":{"ha":1003,"x_min":118,"x_max":896,"o":"m 767 1013 l 896 1013 l 896 301 q 790 58 896 149 q 506 -32 683 -32 q 222 58 325 -32 q 118 301 118 147 l 118 1013 l 247 1013 l 247 301 q 321 135 247 192 q 506 82 394 82 q 697 140 628 82 q 767 301 767 199 l 767 1013 m 464 1304 l 597 1099 l 514 1099 l 307 1304 l 464 1304 z "},"Û":{"ha":1003,"x_min":118,"x_max":896,"o":"m 767 1013 l 896 1013 l 896 301 q 790 58 896 149 q 506 -32 683 -32 q 222 58 325 -32 q 118 301 118 147 l 118 1013 l 247 1013 l 247 301 q 321 135 247 192 q 506 82 394 82 q 697 140 628 82 q 767 301 767 199 l 767 1013 m 442 1306 l 574 1306 l 707 1097 l 619 1097 l 507 1231 l 397 1097 l 308 1097 l 442 1306 z "},"Ů":{"ha":1003,"x_min":118,"x_max":896,"o":"m 767 1013 l 896 1013 l 896 301 q 790 58 896 149 q 506 -32 683 -32 q 222 58 325 -32 q 118 301 118 147 l 118 1013 l 247 1013 l 247 301 q 321 135 247 192 q 506 82 394 82 q 697 140 628 82 q 767 301 767 199 l 767 1013 m 507 1324 q 594 1288 558 1324 q 629 1201 629 1253 q 593 1116 629 1151 q 507 1081 557 1081 q 421 1117 457 1081 q 385 1203 385 1153 q 421 1288 385 1251 q 507 1324 457 1324 m 507 1263 q 464 1244 482 1263 q 446 1203 446 1226 q 464 1160 446 1178 q 507 1142 482 1142 q 550 1160 532 1142 q 568 1201 568 1178 q 551 1245 568 1228 q 507 1263 533 1263 z "},"Ű":{"ha":1003,"x_min":118,"x_max":896,"o":"m 767 1013 l 896 1013 l 896 301 q 790 58 896 149 q 506 -32 683 -32 q 222 58 325 -32 q 118 301 118 147 l 118 1013 l 247 1013 l 247 301 q 321 135 247 192 q 506 82 394 82 q 697 140 628 82 q 767 301 767 199 l 767 1013 m 457 1304 l 614 1304 l 407 1096 l 324 1096 l 457 1304 m 699 1304 l 856 1304 l 649 1096 l 565 1096 l 699 1304 z "},"Ý":{"ha":925,"x_min":18,"x_max":918,"o":"m 538 397 l 538 0 l 408 0 l 408 397 l 18 1013 l 178 1013 l 475 519 l 764 1013 l 918 1013 l 538 397 m 507 1304 l 664 1304 l 457 1099 l 374 1099 l 507 1304 z "},"Ź":{"ha":849,"x_min":39,"x_max":810,"o":"m 807 1013 l 807 896 l 201 114 l 810 114 l 810 0 l 39 0 l 39 114 l 647 899 l 78 899 l 78 1013 l 807 1013 m 482 1304 l 639 1304 l 432 1099 l 349 1099 l 482 1304 z "},"Ž":{"ha":849,"x_min":39,"x_max":810,"o":"m 807 1013 l 807 896 l 201 114 l 810 114 l 810 0 l 39 0 l 39 114 l 647 899 l 78 899 l 78 1013 l 807 1013 m 508 1097 l 376 1097 l 243 1306 l 331 1306 l 443 1172 l 553 1306 l 642 1306 l 508 1097 z "},"Ż":{"ha":849,"x_min":39,"x_max":810,"o":"m 807 1013 l 807 896 l 201 114 l 810 114 l 810 0 l 39 0 l 39 114 l 647 899 l 78 899 l 78 1013 l 807 1013 m 515 1271 l 515 1126 l 371 1126 l 371 1271 l 515 1271 z "},"Ā":{"ha":926,"x_min":24,"x_max":907,"o":"m 658 304 l 268 304 l 161 0 l 24 0 l 385 1013 l 551 1013 l 907 0 l 763 0 l 658 304 m 622 413 l 467 874 l 300 413 l 622 413 m 656 1250 l 656 1153 l 275 1153 l 275 1250 l 656 1250 z "},"Ţ":{"ha":849,"x_min":29,"x_max":824,"o":"m 492 899 l 492 0 l 363 0 l 363 899 l 29 899 l 29 1013 l 824 1013 l 824 899 l 492 899 m 361 -83 l 500 -83 l 500 -226 q 463 -350 500 -304 q 361 -394 425 -396 l 361 -342 q 438 -222 442 -342 l 361 -222 l 361 -83 z "},"Ÿ":{"ha":926,"x_min":18,"x_max":918,"o":"m 538 397 l 538 0 l 408 0 l 408 397 l 18 1013 l 178 1013 l 475 519 l 764 1013 l 918 1013 l 538 397 m 433 1269 l 433 1126 l 289 1126 l 289 1269 l 433 1269 m 658 1269 l 658 1126 l 514 1126 l 514 1269 l 658 1269 z "},"Ē":{"ha":926,"x_min":125,"x_max":851,"o":"m 254 461 l 254 114 l 851 114 l 851 0 l 125 0 l 125 1013 l 826 1013 l 826 899 l 254 899 l 254 575 l 806 575 l 806 461 l 254 461 m 669 1250 l 669 1153 l 289 1153 l 289 1250 l 669 1250 z "},"Ī":{"ha":386,"x_min":28,"x_max":381,"o":"m 269 1013 l 269 0 l 139 0 l 139 1013 l 269 1013 m 381 1250 l 381 1153 l 28 1153 l 28 1250 l 381 1250 z "},"Į":{"ha":386,"x_min":92,"x_max":325,"o":"m 269 1013 l 269 0 q 192 -149 192 -71 q 211 -201 192 -181 q 263 -221 231 -221 q 325 -208 288 -221 l 325 -271 q 243 -283 281 -283 q 133 -250 175 -283 q 92 -161 92 -217 q 115 -79 92 -115 q 199 0 139 -43 l 139 0 l 139 1013 l 269 1013 z "},"Ķ":{"ha":926,"x_min":110,"x_max":914,"o":"m 239 354 l 239 0 l 110 0 l 110 1013 l 239 1013 l 239 500 l 743 1013 l 910 1013 l 497 600 l 914 0 l 761 0 l 404 519 l 239 354 m 415 -83 l 554 -83 l 554 -226 q 517 -350 554 -304 q 415 -394 479 -396 l 415 -342 q 492 -222 496 -342 l 415 -222 l 415 -83 z "},"Ļ":{"ha":772,"x_min":111,"x_max":740,"o":"m 240 1013 l 240 114 l 740 114 l 740 0 l 111 0 l 111 1013 l 240 1013 m 357 -83 l 496 -83 l 496 -226 q 458 -350 496 -304 q 357 -394 421 -396 l 357 -342 q 433 -222 438 -342 l 357 -222 l 357 -83 z "},"Ņ":{"ha":1003,"x_min":106,"x_max":897,"o":"m 897 1013 l 897 0 l 751 0 l 228 821 l 228 0 l 106 0 l 106 1013 l 246 1013 l 775 185 l 775 1013 l 897 1013 m 414 -83 l 553 -83 l 553 -226 q 515 -350 553 -304 q 414 -394 478 -396 l 414 -342 q 490 -222 494 -342 l 414 -222 l 414 -83 z "},"Ō":{"ha":1081,"x_min":53,"x_max":1031,"o":"m 540 1029 q 897 882 763 1029 q 1031 490 1031 735 q 984 255 1031 365 q 856 75 938 144 q 542 -32 729 -32 q 188 115 322 -32 q 53 499 53 261 q 188 883 53 736 q 540 1029 322 1029 m 540 915 q 281 801 379 915 q 182 499 182 686 q 281 197 182 311 q 542 82 381 82 q 802 196 703 82 q 901 493 901 310 q 803 800 901 685 q 540 915 704 915 m 732 1250 l 732 1153 l 351 1153 l 351 1250 l 732 1250 z "},"Ŗ":{"ha":1003,"x_min":129,"x_max":943,"o":"m 258 436 l 258 0 l 129 0 l 129 1013 l 596 1013 q 824 942 744 1013 q 904 742 904 872 q 867 599 904 656 q 744 500 829 542 q 853 413 826 464 q 882 236 881 361 q 896 96 885 135 q 943 32 907 57 l 943 0 l 786 0 q 757 165 757 67 l 758 256 q 718 392 758 349 q 592 436 678 436 l 258 436 m 258 550 l 571 550 q 722 592 674 550 q 769 724 769 633 q 717 860 769 815 q 571 899 672 899 l 258 899 l 258 550 m 443 -83 l 582 -83 l 582 -226 q 544 -350 582 -304 q 443 -394 507 -396 l 443 -342 q 519 -222 524 -342 l 443 -222 l 443 -83 z "},"Ģ":{"ha":1081,"x_min":61,"x_max":985,"o":"m 985 535 l 985 -6 l 903 -6 l 871 129 q 525 -32 726 -32 q 190 115 319 -32 q 61 496 61 263 q 109 745 61 632 q 244 932 157 858 q 547 1029 363 1029 q 833 944 721 1029 q 971 706 944 860 l 839 706 q 740 859 818 803 q 546 915 661 915 q 288 802 385 915 q 190 503 190 689 q 219 324 190 408 q 297 185 247 239 q 553 82 392 82 q 781 169 692 82 q 871 393 871 257 l 871 421 l 563 421 l 563 535 l 985 535 m 468 -83 l 607 -83 l 607 -226 q 569 -350 607 -304 q 468 -394 532 -396 l 468 -342 q 544 -222 549 -342 l 468 -222 l 468 -83 z "},"Ū":{"ha":1003,"x_min":118,"x_max":896,"o":"m 767 1013 l 896 1013 l 896 301 q 790 58 896 149 q 506 -32 683 -32 q 222 58 325 -32 q 118 301 118 147 l 118 1013 l 247 1013 l 247 301 q 321 135 247 192 q 506 82 394 82 q 697 140 628 82 q 767 301 767 199 l 767 1013 m 697 1250 l 697 1153 l 317 1153 l 317 1250 l 697 1250 z "},"Ų":{"ha":1003,"x_min":118,"x_max":896,"o":"m 836 -208 l 836 -271 q 732 -285 769 -285 q 635 -267 686 -285 q 547 -156 547 -233 q 571 -80 547 -112 q 649 -14 594 -47 q 508 -32 569 -32 q 222 57 326 -32 q 118 301 118 146 l 118 1013 l 247 1013 l 247 301 q 321 135 247 192 q 506 82 394 82 q 697 140 628 82 q 767 301 767 199 l 767 1013 l 896 1013 l 896 301 q 826 92 896 185 q 739 0 806 64 q 649 -147 649 -86 q 749 -222 649 -222 q 836 -208 800 -222 z "},"ä":{"ha":772,"x_min":58,"x_max":743,"o":"m 743 68 l 743 -19 q 664 -32 694 -32 q 580 -6 608 -32 q 544 75 551 19 q 297 -32 428 -32 q 123 26 188 -32 q 58 183 58 85 q 186 378 58 325 q 260 399 221 392 q 419 422 299 407 q 514 449 488 431 q 540 503 540 467 l 540 533 q 498 614 540 586 q 378 642 456 642 q 256 610 297 642 q 207 513 214 579 l 90 513 q 140 664 94 613 q 382 749 217 749 q 586 698 517 749 q 656 550 656 647 l 656 122 q 718 65 656 65 q 743 68 731 65 m 540 229 l 540 360 q 354 319 494 339 q 220 274 261 306 q 179 186 179 243 q 217 100 179 131 q 322 69 254 69 q 494 135 422 69 q 540 229 540 176 m 339 993 l 339 850 l 194 850 l 194 993 l 339 993 m 564 993 l 564 850 l 419 850 l 419 993 l 564 993 z "},"á":{"ha":772,"x_min":58,"x_max":743,"o":"m 743 68 l 743 -19 q 664 -32 694 -32 q 580 -6 608 -32 q 544 75 551 19 q 297 -32 428 -32 q 123 26 188 -32 q 58 183 58 85 q 186 378 58 325 q 260 399 221 392 q 419 422 299 407 q 514 449 488 431 q 540 503 540 467 l 540 533 q 498 614 540 586 q 378 642 456 642 q 256 610 297 642 q 207 513 214 579 l 90 513 q 140 664 94 613 q 382 749 217 749 q 586 698 517 749 q 656 550 656 647 l 656 122 q 718 65 656 65 q 743 68 731 65 m 540 229 l 540 360 q 354 319 494 339 q 220 274 261 306 q 179 186 179 243 q 217 100 179 131 q 322 69 254 69 q 494 135 422 69 q 540 229 540 176 m 421 1028 l 578 1028 l 371 822 l 288 822 l 421 1028 z "},"à":{"ha":772,"x_min":58,"x_max":743,"o":"m 743 68 l 743 -19 q 664 -32 694 -32 q 580 -6 608 -32 q 544 75 551 19 q 297 -32 428 -32 q 123 26 188 -32 q 58 183 58 85 q 186 378 58 325 q 260 399 221 392 q 419 422 299 407 q 514 449 488 431 q 540 503 540 467 l 540 533 q 498 614 540 586 q 378 642 456 642 q 256 610 297 642 q 207 513 214 579 l 90 513 q 140 664 94 613 q 382 749 217 749 q 586 698 517 749 q 656 550 656 647 l 656 122 q 718 65 656 65 q 743 68 731 65 m 540 229 l 540 360 q 354 319 494 339 q 220 274 261 306 q 179 186 179 243 q 217 100 179 131 q 322 69 254 69 q 494 135 422 69 q 540 229 540 176 m 347 1028 l 481 822 l 397 822 l 190 1028 l 347 1028 z "},"â":{"ha":772,"x_min":58,"x_max":743,"o":"m 743 68 l 743 -19 q 664 -32 694 -32 q 580 -6 608 -32 q 544 75 551 19 q 297 -32 428 -32 q 123 26 188 -32 q 58 183 58 85 q 186 378 58 325 q 260 399 221 392 q 419 422 299 407 q 514 449 488 431 q 540 503 540 467 l 540 533 q 498 614 540 586 q 378 642 456 642 q 256 610 297 642 q 207 513 214 579 l 90 513 q 140 664 94 613 q 382 749 217 749 q 586 698 517 749 q 656 550 656 647 l 656 122 q 718 65 656 65 q 743 68 731 65 m 540 229 l 540 360 q 354 319 494 339 q 220 274 261 306 q 179 186 179 243 q 217 100 179 131 q 322 69 254 69 q 494 135 422 69 q 540 229 540 176 m 317 1029 l 449 1029 l 582 821 l 494 821 l 382 954 l 272 821 l 183 821 l 317 1029 z "},"ă":{"ha":772,"x_min":58,"x_max":743,"o":"m 743 68 l 743 -19 q 664 -32 694 -32 q 580 -6 608 -32 q 544 75 551 19 q 297 -32 428 -32 q 123 26 188 -32 q 58 183 58 85 q 186 378 58 325 q 260 399 221 392 q 419 422 299 407 q 514 449 488 431 q 540 503 540 467 l 540 533 q 498 614 540 586 q 378 642 456 642 q 256 610 297 642 q 207 513 214 579 l 90 513 q 140 664 94 613 q 382 749 217 749 q 586 698 517 749 q 656 550 656 647 l 656 122 q 718 65 656 65 q 743 68 731 65 m 540 229 l 540 360 q 354 319 494 339 q 220 274 261 306 q 179 186 179 243 q 217 100 179 131 q 322 69 254 69 q 494 135 422 69 q 540 229 540 176 m 174 1017 l 256 1017 q 383 925 267 925 q 472 949 439 925 q 510 1017 506 972 l 592 1017 q 381 829 576 829 q 203 908 261 829 q 174 1017 175 947 z "},"ã":{"ha":772,"x_min":58,"x_max":743,"o":"m 743 68 l 743 -19 q 664 -32 694 -32 q 580 -6 608 -32 q 544 75 551 19 q 297 -32 428 -32 q 123 26 188 -32 q 58 183 58 85 q 186 378 58 325 q 260 399 221 392 q 419 422 299 407 q 514 449 488 431 q 540 503 540 467 l 540 533 q 498 614 540 586 q 378 642 456 642 q 256 610 297 642 q 207 513 214 579 l 90 513 q 140 664 94 613 q 382 749 217 749 q 586 698 517 749 q 656 550 656 647 l 656 122 q 718 65 656 65 q 743 68 731 65 m 540 229 l 540 360 q 354 319 494 339 q 220 274 261 306 q 179 186 179 243 q 217 100 179 131 q 322 69 254 69 q 494 135 422 69 q 540 229 540 176 m 519 996 l 600 996 q 476 851 579 851 q 358 886 447 851 q 290 904 310 904 q 244 853 258 904 l 164 853 q 206 958 175 921 q 283 996 238 996 q 381 969 315 996 q 468 944 435 944 q 519 996 503 944 z "},"å":{"ha":772,"x_min":58,"x_max":743,"o":"m 743 68 l 743 -19 q 664 -32 694 -32 q 580 -6 608 -32 q 544 75 551 19 q 297 -32 428 -32 q 123 26 188 -32 q 58 183 58 85 q 186 378 58 325 q 260 399 221 392 q 419 422 299 407 q 514 449 488 431 q 540 503 540 467 l 540 533 q 498 614 540 586 q 378 642 456 642 q 256 610 297 642 q 207 513 214 579 l 90 513 q 140 664 94 613 q 382 749 217 749 q 586 698 517 749 q 656 550 656 647 l 656 122 q 718 65 656 65 q 743 68 731 65 m 540 229 l 540 360 q 354 319 494 339 q 220 274 261 306 q 179 186 179 243 q 217 100 179 131 q 322 69 254 69 q 494 135 422 69 q 540 229 540 176 m 382 1047 q 469 1012 433 1047 q 504 925 504 976 q 468 840 504 875 q 382 804 432 804 q 296 840 332 804 q 260 926 260 876 q 296 1011 260 975 q 382 1047 332 1047 m 382 986 q 339 968 357 986 q 321 926 321 950 q 339 883 321 901 q 382 865 357 865 q 425 883 407 865 q 443 925 443 901 q 426 969 443 951 q 382 986 408 986 z "},"ą":{"ha":772,"x_min":60,"x_max":828,"o":"m 744 68 l 744 -19 q 639 -146 639 -61 q 739 -222 639 -222 q 828 -208 792 -222 l 828 -271 q 729 -285 769 -285 q 626 -267 686 -285 q 539 -156 539 -239 q 560 -87 539 -115 q 633 -32 582 -60 q 546 75 554 -18 q 299 -32 433 -32 q 124 26 189 -32 q 60 183 60 85 q 189 378 60 324 q 262 399 222 392 q 422 422 301 407 q 516 448 490 431 q 542 503 542 465 l 542 533 q 379 642 542 642 q 258 610 299 642 q 210 513 217 579 l 93 513 q 142 664 97 611 q 383 749 219 749 q 588 698 518 749 q 657 550 657 647 l 657 122 q 719 65 657 65 q 744 68 732 65 m 540 229 l 540 360 q 354 319 494 339 q 220 274 261 306 q 179 186 179 243 q 217 100 179 131 q 322 69 254 69 q 494 135 422 69 q 540 229 540 176 z "},"ć":{"ha":694,"x_min":43,"x_max":663,"o":"m 654 483 l 538 483 q 482 601 526 560 q 365 642 438 642 q 217 565 271 642 q 164 351 164 488 q 218 149 164 222 q 368 75 272 75 q 546 250 517 75 l 663 250 q 574 42 651 117 q 365 -32 496 -32 q 130 72 217 -32 q 43 351 43 175 q 131 640 43 532 q 367 749 219 749 q 606 640 526 749 q 654 483 646 581 m 414 1028 l 571 1028 l 364 822 l 281 822 l 414 1028 z "},"č":{"ha":694,"x_min":43,"x_max":663,"o":"m 654 483 l 538 483 q 482 601 526 560 q 365 642 438 642 q 217 565 271 642 q 164 351 164 488 q 218 149 164 222 q 368 75 272 75 q 546 250 517 75 l 663 250 q 574 42 651 117 q 365 -32 496 -32 q 130 72 217 -32 q 43 351 43 175 q 131 640 43 532 q 367 749 219 749 q 606 640 526 749 q 654 483 646 581 m 435 821 l 303 821 l 169 1029 l 257 1029 l 369 896 l 479 1029 l 568 1029 l 435 821 z "},"ç":{"ha":694,"x_min":43,"x_max":663,"o":"m 367 -32 l 349 -78 q 388 -75 368 -75 q 468 -99 439 -75 q 497 -168 497 -124 q 451 -262 497 -228 q 326 -297 406 -297 q 153 -251 261 -297 l 182 -194 l 194 -200 q 318 -240 271 -240 q 372 -222 350 -240 q 393 -178 393 -204 q 329 -126 393 -126 q 286 -137 308 -126 l 269 -128 l 313 -29 q 183 22 233 -14 q 79 156 115 69 q 43 351 43 242 q 131 640 43 532 q 367 749 219 749 q 606 640 526 749 q 654 483 646 581 l 538 483 q 482 601 526 560 q 365 642 438 642 q 217 565 271 642 q 164 350 164 488 q 218 147 164 221 q 368 74 272 74 q 546 250 517 74 l 663 250 q 575 44 656 119 q 367 -32 494 -32 z "},"ď":{"ha":882,"x_min":36,"x_max":900,"o":"m 688 1013 l 688 0 l 585 0 l 585 96 q 483 -2 538 28 q 353 -32 428 -32 q 121 74 206 -32 q 36 365 36 181 q 122 644 36 539 q 349 749 207 749 q 572 636 499 749 l 572 1013 l 688 1013 m 368 640 q 215 563 274 640 q 157 358 157 485 q 215 153 157 231 q 369 76 274 76 q 517 153 461 76 q 572 356 572 229 q 517 563 572 486 q 368 640 461 640 m 761 1013 l 900 1013 l 900 869 q 864 749 900 796 q 772 701 828 701 l 761 701 l 761 754 q 838 874 842 754 l 761 874 l 761 1013 z "},"ë":{"ha":772,"x_min":56,"x_max":713,"o":"m 713 325 l 176 325 q 215 169 178 225 q 390 75 275 75 q 581 221 532 75 l 697 221 q 593 35 675 101 q 386 -32 511 -32 q 144 72 233 -32 q 56 354 56 175 q 147 641 56 533 q 389 749 238 749 q 570 697 492 749 q 683 557 649 646 q 713 325 713 481 m 179 419 l 588 419 q 589 428 589 422 q 531 580 589 518 q 388 642 472 642 q 243 581 300 642 q 179 419 186 521 m 357 993 l 357 850 l 213 850 l 213 993 l 357 993 m 582 993 l 582 850 l 438 850 l 438 993 l 582 993 z "},"é":{"ha":772,"x_min":56,"x_max":713,"o":"m 713 325 l 176 325 q 215 169 178 225 q 390 75 275 75 q 581 221 532 75 l 697 221 q 593 35 675 101 q 386 -32 511 -32 q 144 72 233 -32 q 56 354 56 175 q 147 641 56 533 q 389 749 238 749 q 570 697 492 749 q 683 557 649 646 q 713 325 713 481 m 179 419 l 588 419 q 589 428 589 422 q 531 580 589 518 q 388 642 472 642 q 243 581 300 642 q 179 419 186 521 m 428 1028 l 585 1028 l 378 822 l 294 822 l 428 1028 z "},"è":{"ha":772,"x_min":56,"x_max":713,"o":"m 713 325 l 176 325 q 215 169 178 225 q 390 75 275 75 q 581 221 532 75 l 697 221 q 593 35 675 101 q 386 -32 511 -32 q 144 72 233 -32 q 56 354 56 175 q 147 641 56 533 q 389 749 238 749 q 570 697 492 749 q 683 557 649 646 q 713 325 713 481 m 179 419 l 588 419 q 589 428 589 422 q 531 580 589 518 q 388 642 472 642 q 243 581 300 642 q 179 419 186 521 m 350 1028 l 483 822 l 400 822 l 193 1028 l 350 1028 z "},"ê":{"ha":772,"x_min":56,"x_max":713,"o":"m 713 325 l 176 325 q 215 169 178 225 q 390 75 275 75 q 581 221 532 75 l 697 221 q 593 35 675 101 q 386 -32 511 -32 q 144 72 233 -32 q 56 354 56 175 q 147 641 56 533 q 389 749 238 749 q 570 697 492 749 q 683 557 649 646 q 713 325 713 481 m 179 419 l 588 419 q 589 428 589 422 q 531 580 589 518 q 388 642 472 642 q 243 581 300 642 q 179 419 186 521 m 332 1029 l 464 1029 l 597 821 l 510 821 l 397 954 l 288 821 l 199 821 l 332 1029 z "},"ě":{"ha":772,"x_min":56,"x_max":713,"o":"m 713 325 l 176 325 q 215 169 178 225 q 390 75 275 75 q 581 221 532 75 l 697 221 q 593 35 675 101 q 386 -32 511 -32 q 144 72 233 -32 q 56 354 56 175 q 147 641 56 533 q 389 749 238 749 q 570 697 492 749 q 683 557 649 646 q 713 325 713 481 m 179 419 l 588 419 q 589 428 589 422 q 531 580 589 518 q 388 642 472 642 q 243 581 300 642 q 179 419 186 521 m 464 821 l 332 821 l 199 1029 l 286 1029 l 399 896 l 508 1029 l 597 1029 l 464 821 z "},"ė":{"ha":772,"x_min":56,"x_max":713,"o":"m 713 325 l 176 325 q 215 169 178 225 q 390 75 275 75 q 581 221 532 75 l 697 221 q 593 35 675 101 q 386 -32 511 -32 q 144 72 233 -32 q 56 354 56 175 q 147 641 56 533 q 389 749 238 749 q 570 697 492 749 q 683 557 649 646 q 713 325 713 481 m 179 419 l 588 419 q 589 428 589 422 q 531 580 589 518 q 388 642 472 642 q 243 581 300 642 q 179 419 186 521 m 468 994 l 468 850 l 324 850 l 324 994 l 468 994 z "},"ę":{"ha":772,"x_min":56,"x_max":713,"o":"m 713 325 l 176 325 q 215 169 178 228 q 390 75 278 75 q 582 221 531 75 l 699 221 q 586 21 679 114 q 509 -74 531 -37 q 488 -151 488 -111 q 514 -203 488 -185 q 588 -222 540 -222 q 676 -208 640 -222 l 676 -271 q 581 -283 619 -283 q 440 -250 493 -283 q 388 -161 388 -217 q 426 -67 388 -110 q 482 -21 440 -53 q 388 -32 426 -32 q 144 70 232 -32 q 56 353 56 172 q 147 641 56 533 q 389 749 238 749 q 570 697 492 749 q 683 557 649 646 q 713 325 714 478 m 589 419 l 589 428 q 531 580 589 518 q 388 642 472 642 q 243 581 300 642 q 181 419 186 521 l 589 419 z "},"ğ":{"ha":772,"x_min":40,"x_max":679,"o":"m 572 728 l 679 728 l 679 119 q 662 -85 679 -10 q 603 -210 644 -160 q 502 -278 568 -253 q 354 -303 436 -303 q 150 -244 226 -303 q 64 -83 74 -186 l 182 -83 q 226 -167 190 -139 q 358 -206 276 -206 q 519 -137 471 -206 q 561 61 561 -81 l 561 99 q 460 -1 513 29 q 340 -32 408 -32 q 132 65 218 -32 q 40 351 40 172 q 126 639 40 529 q 350 749 211 749 q 572 622 486 749 l 572 728 m 363 642 q 215 565 269 642 q 161 358 161 489 q 215 151 161 226 q 364 75 269 75 q 508 149 456 75 q 561 354 561 224 q 509 566 561 490 q 363 642 457 642 m 183 1017 l 265 1017 q 393 925 275 925 q 482 949 449 925 q 519 1017 515 972 l 601 1017 q 390 829 586 829 q 213 908 271 829 q 183 1017 185 947 z "},"ï":{"ha":386,"x_min":4,"x_max":374,"o":"m 246 728 l 246 0 l 131 0 l 131 728 l 246 728 m 149 983 l 149 840 l 4 840 l 4 983 l 149 983 m 374 983 l 374 840 l 229 840 l 229 983 l 374 983 z "},"í":{"ha":386,"x_min":90,"x_max":381,"o":"m 246 728 l 246 0 l 131 0 l 131 728 l 246 728 m 224 1028 l 381 1028 l 174 822 l 90 822 l 224 1028 z "},"ì":{"ha":386,"x_min":-7,"x_max":283,"o":"m 246 728 l 246 0 l 131 0 l 131 728 l 246 728 m 150 1028 l 283 822 l 200 822 l -7 1028 l 150 1028 z "},"î":{"ha":386,"x_min":-10,"x_max":389,"o":"m 246 728 l 246 0 l 131 0 l 131 728 l 246 728 m 124 1029 l 256 1029 l 389 821 l 301 821 l 189 954 l 79 821 l -10 821 l 124 1029 z "},"ĺ":{"ha":308,"x_min":88,"x_max":378,"o":"m 211 1013 l 211 0 l 94 0 l 94 1013 l 211 1013 m 221 1304 l 378 1304 l 171 1099 l 88 1099 l 221 1304 z "},"ľ":{"ha":406,"x_min":94,"x_max":424,"o":"m 211 1013 l 211 0 l 94 0 l 94 1013 l 211 1013 m 285 1013 l 424 1013 l 424 869 q 388 749 424 796 q 296 701 351 701 l 285 701 l 285 754 q 361 874 365 754 l 285 874 l 285 1013 z "},"ń":{"ha":772,"x_min":97,"x_max":676,"o":"m 97 728 l 204 728 l 204 606 q 309 715 253 682 q 446 749 365 749 q 614 694 551 749 q 676 550 676 640 l 676 0 l 561 0 l 561 504 q 521 608 561 569 q 411 647 481 647 q 268 580 322 647 q 214 401 214 513 l 214 0 l 97 0 l 97 728 m 431 1028 l 588 1028 l 381 822 l 297 822 l 431 1028 z "},"ň":{"ha":772,"x_min":97,"x_max":676,"o":"m 97 728 l 204 728 l 204 606 q 309 715 253 682 q 446 749 365 749 q 614 694 551 749 q 676 550 676 640 l 676 0 l 561 0 l 561 504 q 521 608 561 569 q 411 647 481 647 q 268 580 322 647 q 214 401 214 513 l 214 0 l 97 0 l 97 728 m 453 821 l 321 821 l 188 1029 l 275 1029 l 388 896 l 497 1029 l 586 1029 l 453 821 z "},"ñ":{"ha":772,"x_min":97,"x_max":676,"o":"m 97 728 l 204 728 l 204 606 q 309 715 253 682 q 446 749 365 749 q 614 694 551 749 q 676 550 676 640 l 676 0 l 561 0 l 561 504 q 521 608 561 569 q 411 647 481 647 q 268 580 322 647 q 214 401 214 513 l 214 0 l 97 0 l 97 728 m 525 996 l 606 996 q 482 851 585 851 q 364 886 453 851 q 296 904 315 904 q 250 853 264 904 l 169 853 q 212 958 181 921 q 289 996 243 996 q 386 969 321 996 q 474 944 440 944 q 525 996 508 944 z "},"ö":{"ha":772,"x_min":50,"x_max":708,"o":"m 378 749 q 622 645 535 749 q 708 353 708 542 q 620 71 708 174 q 379 -32 532 -32 q 137 72 224 -32 q 50 358 50 175 q 138 645 50 542 q 378 749 225 749 m 379 642 q 226 566 282 642 q 171 358 171 490 q 226 151 171 226 q 379 75 282 75 q 531 151 475 75 q 588 354 588 226 q 533 565 588 489 q 379 642 478 642 m 339 993 l 339 850 l 194 850 l 194 993 l 339 993 m 564 993 l 564 850 l 419 850 l 419 993 l 564 993 z "},"ó":{"ha":772,"x_min":50,"x_max":708,"o":"m 378 749 q 622 645 535 749 q 708 353 708 542 q 620 71 708 174 q 379 -32 532 -32 q 137 72 224 -32 q 50 358 50 175 q 138 645 50 542 q 378 749 225 749 m 379 642 q 226 566 282 642 q 171 358 171 490 q 226 151 171 226 q 379 75 282 75 q 531 151 475 75 q 588 354 588 226 q 533 565 588 489 q 379 642 478 642 m 414 1028 l 571 1028 l 364 822 l 281 822 l 414 1028 z "},"ò":{"ha":772,"x_min":50,"x_max":708,"o":"m 378 749 q 622 645 535 749 q 708 353 708 542 q 620 71 708 174 q 379 -32 532 -32 q 137 72 224 -32 q 50 358 50 175 q 138 645 50 542 q 378 749 225 749 m 379 642 q 226 566 282 642 q 171 358 171 490 q 226 151 171 226 q 379 75 282 75 q 531 151 475 75 q 588 354 588 226 q 533 565 588 489 q 379 642 478 642 m 340 1028 l 474 822 l 390 822 l 183 1028 l 340 1028 z "},"ô":{"ha":772,"x_min":50,"x_max":708,"o":"m 378 749 q 622 645 535 749 q 708 353 708 542 q 620 71 708 174 q 379 -32 532 -32 q 137 72 224 -32 q 50 358 50 175 q 138 645 50 542 q 378 749 225 749 m 379 642 q 226 566 282 642 q 171 358 171 490 q 226 151 171 226 q 379 75 282 75 q 531 151 475 75 q 588 354 588 226 q 533 565 588 489 q 379 642 478 642 m 314 1029 l 446 1029 l 579 821 l 492 821 l 379 954 l 269 821 l 181 821 l 314 1029 z "},"õ":{"ha":772,"x_min":50,"x_max":708,"o":"m 378 749 q 622 645 535 749 q 708 353 708 542 q 620 71 708 174 q 379 -32 532 -32 q 137 72 224 -32 q 50 358 50 175 q 138 645 50 542 q 378 749 225 749 m 379 642 q 226 566 282 642 q 171 358 171 490 q 226 151 171 226 q 379 75 282 75 q 531 151 475 75 q 588 354 588 226 q 533 565 588 489 q 379 642 478 642 m 521 996 l 601 996 q 478 851 581 851 q 360 886 449 851 q 292 904 311 904 q 246 853 260 904 l 165 853 q 208 958 176 921 q 285 996 239 996 q 382 969 317 996 q 469 944 436 944 q 521 996 504 944 z "},"ő":{"ha":772,"x_min":50,"x_max":731,"o":"m 378 749 q 622 645 535 749 q 708 353 708 542 q 620 71 708 174 q 379 -32 532 -32 q 137 72 224 -32 q 50 358 50 175 q 138 645 50 542 q 378 749 225 749 m 379 642 q 226 566 282 642 q 171 358 171 490 q 226 151 171 226 q 379 75 282 75 q 531 151 475 75 q 588 354 588 226 q 533 565 588 489 q 379 642 478 642 m 332 1028 l 489 1028 l 282 819 l 199 819 l 332 1028 m 574 1028 l 731 1028 l 524 819 l 440 819 l 574 1028 z "},"ŕ":{"ha":463,"x_min":96,"x_max":460,"o":"m 96 728 l 203 728 l 203 596 q 299 713 253 678 q 401 749 346 749 q 446 744 417 749 l 446 626 q 294 590 342 625 q 213 378 213 531 l 213 0 l 96 0 l 96 728 m 303 1028 l 460 1028 l 253 822 l 169 822 l 303 1028 z "},"ś":{"ha":694,"x_min":47,"x_max":638,"o":"m 608 525 l 486 525 q 340 642 482 642 q 228 612 269 642 q 186 532 186 582 q 218 469 186 493 q 321 428 250 444 l 432 401 q 589 327 540 375 q 638 199 638 279 q 556 31 638 93 q 338 -32 475 -32 q 47 217 56 -32 l 169 217 q 203 124 178 151 q 347 75 249 75 q 470 106 424 75 q 517 189 517 138 q 490 253 517 229 q 404 290 464 276 l 296 317 q 116 394 167 347 q 65 526 65 440 q 142 688 65 628 q 344 749 218 749 q 539 690 471 749 q 608 525 607 632 m 382 1028 l 539 1028 l 332 822 l 249 822 l 382 1028 z "},"š":{"ha":694,"x_min":47,"x_max":638,"o":"m 608 525 l 486 525 q 340 642 482 642 q 228 612 269 642 q 186 532 186 582 q 218 469 186 493 q 321 428 250 444 l 432 401 q 589 327 540 375 q 638 199 638 279 q 556 31 638 93 q 338 -32 475 -32 q 47 217 56 -32 l 169 217 q 203 124 178 151 q 347 75 249 75 q 470 106 424 75 q 517 189 517 138 q 490 253 517 229 q 404 290 464 276 l 296 317 q 116 394 167 347 q 65 526 65 440 q 142 688 65 628 q 344 749 218 749 q 539 690 471 749 q 608 525 607 632 m 408 821 l 276 821 l 143 1029 l 231 1029 l 343 896 l 453 1029 l 542 1029 l 408 821 z "},"ș":{"ha":694,"x_min":47,"x_max":638,"o":"m 608 525 l 486 525 q 340 642 482 642 q 228 612 269 642 q 186 532 186 582 q 218 469 186 493 q 321 428 250 444 l 432 401 q 589 327 540 375 q 638 199 638 279 q 556 31 638 93 q 338 -32 475 -32 q 47 217 56 -32 l 169 217 q 203 124 178 151 q 347 75 249 75 q 470 106 424 75 q 517 189 517 138 q 490 253 517 229 q 404 290 464 276 l 296 317 q 116 394 167 347 q 65 526 65 440 q 142 688 65 628 q 344 749 218 749 q 539 690 471 749 q 608 525 607 632 m 274 -83 l 413 -83 l 413 -226 q 375 -350 413 -304 q 274 -394 338 -396 l 274 -342 q 350 -222 354 -342 l 274 -222 l 274 -83 z "},"ť":{"ha":428,"x_min":19,"x_max":446,"o":"m 353 728 l 353 633 l 233 633 l 233 135 q 247 83 233 96 q 297 69 260 69 q 353 75 332 69 l 353 -22 q 258 -32 299 -32 q 154 -2 190 -32 q 118 83 118 28 l 118 633 l 19 633 l 19 728 l 118 728 l 118 928 l 233 928 l 233 728 l 353 728 m 307 1111 l 446 1111 l 446 968 q 410 847 446 894 q 318 800 374 800 l 307 800 l 307 853 q 383 972 388 853 l 307 972 l 307 1111 z "},"ü":{"ha":772,"x_min":90,"x_max":669,"o":"m 669 0 l 565 0 l 565 101 q 458 -1 514 29 q 322 -32 403 -32 q 153 22 217 -32 q 90 167 90 76 l 90 728 l 206 728 l 206 213 q 246 108 206 147 q 356 69 286 69 q 500 137 446 69 q 554 315 554 204 l 554 728 l 669 728 l 669 0 m 340 993 l 340 850 l 196 850 l 196 993 l 340 993 m 565 993 l 565 850 l 421 850 l 421 993 l 565 993 z "},"ú":{"ha":772,"x_min":90,"x_max":669,"o":"m 669 0 l 565 0 l 565 101 q 458 -1 514 29 q 322 -32 403 -32 q 153 22 217 -32 q 90 167 90 76 l 90 728 l 206 728 l 206 213 q 246 108 206 147 q 356 69 286 69 q 500 137 446 69 q 554 315 554 204 l 554 728 l 669 728 l 669 0 m 411 1028 l 568 1028 l 361 822 l 278 822 l 411 1028 z "},"ù":{"ha":772,"x_min":90,"x_max":669,"o":"m 669 0 l 565 0 l 565 101 q 458 -1 514 29 q 322 -32 403 -32 q 153 22 217 -32 q 90 167 90 76 l 90 728 l 206 728 l 206 213 q 246 108 206 147 q 356 69 286 69 q 500 137 446 69 q 554 315 554 204 l 554 728 l 669 728 l 669 0 m 338 1028 l 471 822 l 388 822 l 181 1028 l 338 1028 z "},"û":{"ha":772,"x_min":90,"x_max":669,"o":"m 669 0 l 565 0 l 565 101 q 458 -1 514 29 q 322 -32 403 -32 q 153 22 217 -32 q 90 167 90 76 l 90 728 l 206 728 l 206 213 q 246 108 206 147 q 356 69 286 69 q 500 137 446 69 q 554 315 554 204 l 554 728 l 669 728 l 669 0 m 315 1029 l 447 1029 l 581 821 l 493 821 l 381 954 l 271 821 l 182 821 l 315 1029 z "},"ů":{"ha":772,"x_min":90,"x_max":669,"o":"m 669 0 l 565 0 l 565 101 q 458 -1 514 29 q 322 -32 403 -32 q 153 22 217 -32 q 90 167 90 76 l 90 728 l 206 728 l 206 213 q 246 108 206 147 q 356 69 286 69 q 500 137 446 69 q 554 315 554 204 l 554 728 l 669 728 l 669 0 m 379 1047 q 466 1012 431 1047 q 501 925 501 976 q 465 840 501 875 q 379 804 429 804 q 293 840 329 804 q 257 926 257 876 q 293 1011 257 975 q 379 1047 329 1047 m 379 986 q 336 968 354 986 q 318 926 318 950 q 336 883 318 901 q 379 865 354 865 q 422 883 404 865 q 440 925 440 901 q 423 969 440 951 q 379 986 406 986 z "},"ű":{"ha":772,"x_min":90,"x_max":736,"o":"m 669 0 l 565 0 l 565 101 q 458 -1 514 29 q 322 -32 403 -32 q 153 22 217 -32 q 90 167 90 76 l 90 728 l 206 728 l 206 213 q 246 108 206 147 q 356 69 286 69 q 500 137 446 69 q 554 315 554 204 l 554 728 l 669 728 l 669 0 m 338 1028 l 494 1028 l 288 819 l 204 819 l 338 1028 m 579 1028 l 736 1028 l 529 819 l 446 819 l 579 1028 z "},"ý":{"ha":694,"x_min":28,"x_max":664,"o":"m 539 728 l 664 728 l 340 -153 q 261 -268 310 -232 q 153 -303 214 -303 q 75 -285 110 -303 l 75 -181 q 136 -189 113 -189 q 194 -173 172 -189 q 229 -118 215 -157 l 274 -3 l 28 728 l 151 728 l 338 161 l 539 728 m 376 1028 l 533 1028 l 326 822 l 243 822 l 376 1028 z "},"ź":{"ha":694,"x_min":43,"x_max":635,"o":"m 615 728 l 615 625 l 183 101 l 635 101 l 635 0 l 43 0 l 43 104 l 478 626 l 72 626 l 72 728 l 615 728 m 386 1028 l 543 1028 l 336 822 l 253 822 l 386 1028 z "},"ž":{"ha":694,"x_min":43,"x_max":635,"o":"m 615 728 l 615 625 l 183 101 l 635 101 l 635 0 l 43 0 l 43 104 l 478 626 l 72 626 l 72 728 l 615 728 m 414 821 l 282 821 l 149 1029 l 236 1029 l 349 896 l 458 1029 l 547 1029 l 414 821 z "},"ż":{"ha":694,"x_min":43,"x_max":635,"o":"m 615 728 l 615 625 l 183 101 l 635 101 l 635 0 l 43 0 l 43 104 l 478 626 l 72 626 l 72 728 l 615 728 m 421 994 l 421 850 l 276 850 l 276 994 l 421 994 z "},"ÿ":{"ha":694,"x_min":28,"x_max":664,"o":"m 539 728 l 664 728 l 340 -153 q 261 -268 310 -232 q 153 -303 214 -303 q 75 -285 110 -303 l 75 -181 q 136 -189 113 -189 q 194 -173 172 -189 q 229 -118 215 -157 l 274 -3 l 28 728 l 151 728 l 338 161 l 539 728 m 301 993 l 301 850 l 157 850 l 157 993 l 301 993 m 526 993 l 526 850 l 382 850 l 382 993 l 526 993 z "},"ţ":{"ha":386,"x_min":19,"x_max":353,"o":"m 353 728 l 353 633 l 233 633 l 233 135 q 247 83 233 96 q 297 69 260 69 q 353 75 332 69 l 353 -22 q 258 -32 299 -32 q 154 -2 190 -32 q 118 83 118 28 l 118 633 l 19 633 l 19 728 l 118 728 l 118 928 l 233 928 l 233 728 l 353 728 m 154 -83 l 293 -83 l 293 -226 q 256 -350 293 -304 q 154 -394 218 -396 l 154 -342 q 231 -222 235 -342 l 154 -222 l 154 -83 z "},"ā":{"ha":772,"x_min":58,"x_max":743,"o":"m 743 68 l 743 -19 q 664 -32 694 -32 q 580 -6 608 -32 q 544 75 551 19 q 297 -32 428 -32 q 123 26 188 -32 q 58 183 58 85 q 186 378 58 325 q 260 399 221 392 q 419 422 299 407 q 514 449 488 431 q 540 503 540 467 l 540 533 q 498 614 540 586 q 378 642 456 642 q 256 610 297 642 q 207 513 214 579 l 90 513 q 140 664 94 613 q 382 749 217 749 q 586 698 517 749 q 656 550 656 647 l 656 122 q 718 65 656 65 q 743 68 731 65 m 540 229 l 540 360 q 354 319 494 339 q 220 274 261 306 q 179 186 179 243 q 217 100 179 131 q 322 69 254 69 q 494 135 422 69 q 540 229 540 176 m 571 974 l 571 876 l 190 876 l 190 974 l 571 974 z "},"ē":{"ha":772,"x_min":56,"x_max":713,"o":"m 713 325 l 176 325 q 215 169 178 225 q 390 75 275 75 q 581 221 532 75 l 697 221 q 593 35 675 101 q 386 -32 511 -32 q 144 72 233 -32 q 56 354 56 175 q 147 641 56 533 q 389 749 238 749 q 570 697 492 749 q 683 557 649 646 q 713 325 713 481 m 179 419 l 588 419 q 589 428 589 422 q 531 580 589 518 q 388 642 472 642 q 243 581 300 642 q 179 419 186 521 m 586 974 l 586 876 l 206 876 l 206 974 l 586 974 z "},"ī":{"ha":308,"x_min":-22,"x_max":321,"o":"m 207 728 l 207 0 l 92 0 l 92 728 l 207 728 m 321 974 l 321 876 l -22 876 l -22 974 l 321 974 z "},"ķ":{"ha":694,"x_min":81,"x_max":697,"o":"m 196 1013 l 196 419 l 504 728 l 653 728 l 400 476 l 697 0 l 554 0 l 308 394 l 196 283 l 196 0 l 81 0 l 81 1013 l 196 1013 m 301 -83 l 440 -83 l 440 -226 q 403 -350 440 -304 q 301 -394 365 -396 l 301 -342 q 378 -222 382 -342 l 301 -222 l 301 -83 z "},"ļ":{"ha":308,"x_min":88,"x_max":226,"o":"m 211 1013 l 211 0 l 94 0 l 94 1013 l 211 1013 m 88 -83 l 226 -83 l 226 -226 q 189 -350 226 -304 q 88 -394 151 -396 l 88 -342 q 164 -222 168 -342 l 88 -222 l 88 -83 z "},"ņ":{"ha":772,"x_min":97,"x_max":676,"o":"m 97 728 l 204 728 l 204 606 q 309 715 253 682 q 446 749 365 749 q 614 694 551 749 q 676 550 676 640 l 676 0 l 561 0 l 561 504 q 521 608 561 569 q 411 647 481 647 q 268 580 322 647 q 214 401 214 513 l 214 0 l 97 0 l 97 728 m 318 -83 l 457 -83 l 457 -226 q 419 -350 457 -304 q 318 -394 382 -396 l 318 -342 q 394 -222 399 -342 l 318 -222 l 318 -83 z "},"ō":{"ha":772,"x_min":50,"x_max":708,"o":"m 378 749 q 622 645 535 749 q 708 353 708 542 q 620 71 708 174 q 379 -32 532 -32 q 137 72 224 -32 q 50 358 50 175 q 138 645 50 542 q 378 749 225 749 m 379 642 q 226 566 282 642 q 171 358 171 490 q 226 151 171 226 q 379 75 282 75 q 531 151 475 75 q 588 354 588 226 q 533 565 588 489 q 379 642 478 642 m 569 974 l 569 876 l 189 876 l 189 974 l 569 974 z "},"ŗ":{"ha":463,"x_min":90,"x_max":446,"o":"m 96 728 l 203 728 l 203 596 q 299 713 253 678 q 401 749 346 749 q 446 744 417 749 l 446 626 q 294 590 342 625 q 213 378 213 531 l 213 0 l 96 0 l 96 728 m 90 -83 l 229 -83 l 229 -226 q 192 -350 229 -304 q 90 -394 154 -396 l 90 -342 q 167 -222 171 -342 l 90 -222 l 90 -83 z "},"ū":{"ha":772,"x_min":90,"x_max":669,"o":"m 669 0 l 565 0 l 565 101 q 458 -1 514 29 q 322 -32 403 -32 q 153 22 217 -32 q 90 167 90 76 l 90 728 l 206 728 l 206 213 q 246 108 206 147 q 356 69 286 69 q 500 137 446 69 q 554 315 554 204 l 554 728 l 669 728 l 669 0 m 571 974 l 571 876 l 190 876 l 190 974 l 571 974 z "},"ų":{"ha":772,"x_min":90,"x_max":724,"o":"m 669 728 l 669 0 q 592 -69 621 -28 q 563 -150 563 -110 q 588 -203 563 -183 q 656 -222 613 -222 q 724 -208 688 -222 l 724 -271 q 706 -275 708 -274 q 651 -283 672 -283 q 514 -249 565 -283 q 463 -154 463 -214 q 596 0 463 -68 l 565 0 l 565 101 q 458 -1 514 29 q 322 -32 403 -32 q 153 22 217 -32 q 90 167 90 76 l 90 728 l 206 728 l 206 213 q 246 108 206 147 q 356 69 286 69 q 500 137 446 69 q 554 315 554 204 l 554 728 l 669 728 z "},"ř":{"ha":463,"x_min":67,"x_max":465,"o":"m 96 728 l 203 728 l 203 596 q 299 713 253 678 q 401 749 346 749 q 446 744 417 749 l 446 626 q 294 590 342 625 q 213 378 213 531 l 213 0 l 96 0 l 96 728 m 332 821 l 200 821 l 67 1029 l 154 1029 l 267 896 l 376 1029 l 465 1029 l 332 821 z "},"ş":{"ha":694,"x_min":47,"x_max":638,"o":"m 339 -33 l 319 -78 q 358 -75 339 -75 q 440 -99 411 -75 q 468 -168 468 -124 q 422 -262 468 -228 q 297 -297 376 -297 q 124 -250 232 -297 l 153 -194 l 165 -200 q 289 -240 244 -240 q 342 -222 321 -240 q 364 -178 364 -204 q 300 -126 364 -126 q 257 -136 281 -126 l 242 -128 l 285 -29 q 47 217 51 -6 l 169 217 q 203 124 178 151 q 347 75 249 75 q 470 106 424 75 q 517 189 517 138 q 490 253 517 229 q 404 290 464 276 l 296 317 q 116 394 167 347 q 65 526 65 440 q 142 688 65 628 q 344 749 218 749 q 539 690 471 749 q 608 525 607 632 l 486 525 q 340 642 482 642 q 228 612 269 642 q 186 532 186 582 q 218 469 186 493 q 321 428 250 444 l 432 401 q 589 327 540 375 q 638 199 638 279 q 601 79 638 133 q 501 -3 565 25 q 339 -33 449 -26 z "},"ģ":{"ha":772,"x_min":40,"x_max":679,"o":"m 572 728 l 679 728 l 679 119 q 662 -85 679 -10 q 603 -210 644 -160 q 502 -278 568 -253 q 354 -303 436 -303 q 150 -244 226 -303 q 64 -83 74 -186 l 182 -83 q 226 -167 190 -139 q 358 -206 276 -206 q 519 -137 471 -206 q 561 61 561 -81 l 561 99 q 460 -1 513 29 q 340 -32 408 -32 q 132 65 218 -32 q 40 351 40 172 q 126 639 40 529 q 350 749 211 749 q 572 622 486 749 l 572 728 m 363 642 q 215 565 269 642 q 161 358 161 489 q 215 151 161 226 q 364 75 269 75 q 508 149 456 75 q 561 354 561 224 q 509 566 561 490 q 363 642 457 642 m 461 822 l 322 822 l 322 965 q 360 1089 322 1043 q 461 1133 397 1135 l 461 1081 l 458 1079 q 385 961 381 1076 l 461 961 l 461 822 z "},"į":{"ha":308,"x_min":35,"x_max":264,"o":"m 208 728 l 208 0 q 156 -69 176 -28 q 135 -143 135 -110 q 154 -199 135 -178 q 204 -221 174 -221 q 264 -208 226 -221 l 264 -271 q 183 -283 221 -283 q 76 -249 118 -283 q 35 -161 35 -215 q 57 -82 35 -117 q 138 0 79 -47 l 93 0 l 93 728 l 208 728 m 208 1013 l 208 867 l 92 867 l 92 1013 l 208 1013 z "},"Ș":{"ha":926,"x_min":67,"x_max":863,"o":"m 828 715 l 706 715 q 639 867 704 814 q 453 921 574 921 q 288 874 350 921 q 226 750 226 826 q 264 658 226 692 q 393 600 301 625 l 647 532 q 806 438 750 504 q 863 278 863 371 q 833 149 863 213 q 751 46 803 86 q 467 -32 650 -32 q 126 113 232 -32 q 67 322 68 192 l 189 322 q 242 167 188 232 q 475 82 313 82 q 661 125 599 82 q 713 187 693 149 q 733 265 733 225 q 547 429 733 381 l 296 496 q 97 732 97 547 q 194 949 97 869 q 457 1029 290 1029 q 729 947 632 1029 q 828 715 826 864 m 404 -83 l 543 -83 l 543 -226 q 506 -350 543 -304 q 404 -394 468 -396 l 404 -342 q 481 -222 485 -342 l 404 -222 l 404 -83 z "},"Ð":{"ha":1003,"x_min":28,"x_max":926,"o":"m 124 471 l 28 471 l 28 564 l 124 564 l 124 1013 l 515 1013 q 817 878 707 1013 q 926 507 926 743 q 817 135 926 271 q 515 0 707 0 l 124 0 l 124 471 m 253 471 l 253 114 l 493 114 q 719 214 642 114 q 797 507 797 314 q 719 799 797 700 q 493 899 642 899 l 253 899 l 253 564 l 490 564 l 490 471 l 253 471 z "},"Đ":{"ha":1003,"x_min":28,"x_max":926,"o":"m 124 471 l 28 471 l 28 564 l 124 564 l 124 1013 l 515 1013 q 817 878 707 1013 q 926 507 926 743 q 817 135 926 271 q 515 0 707 0 l 124 0 l 124 471 m 253 471 l 253 114 l 493 114 q 719 214 642 114 q 797 507 797 314 q 719 799 797 700 q 493 899 642 899 l 253 899 l 253 564 l 490 564 l 490 471 l 253 471 z "},"Þ":{"ha":925,"x_min":126,"x_max":856,"o":"m 256 263 l 256 0 l 126 0 l 126 1013 l 256 1013 l 256 846 l 544 846 q 772 767 689 846 q 856 551 856 689 q 776 344 856 425 q 574 263 697 263 l 256 263 m 256 376 l 525 376 q 666 424 615 376 q 717 554 717 471 q 666 685 717 638 q 525 732 615 732 l 256 732 l 256 376 z "},"đ":{"ha":772,"x_min":36,"x_max":774,"o":"m 686 907 l 774 907 l 774 833 l 686 833 l 686 0 l 583 0 l 583 82 q 350 -32 486 -32 q 122 77 208 -32 q 36 367 36 186 q 122 644 36 539 q 347 749 207 749 q 571 640 482 749 l 571 833 l 363 833 l 363 907 l 571 907 l 571 1013 l 686 1013 l 686 907 m 368 635 q 215 558 274 635 q 157 358 157 482 q 215 158 157 235 q 368 82 274 82 q 515 157 460 82 q 571 356 571 232 q 516 559 571 483 q 368 635 461 635 z "},"ð":{"ha":772,"x_min":50,"x_max":708,"o":"m 304 851 l 169 789 l 119 843 l 238 899 q 124 971 196 931 l 185 1032 q 339 944 236 1010 l 474 1007 l 529 956 l 404 899 q 608 690 538 797 q 708 360 708 538 q 622 70 708 172 q 379 -32 536 -32 q 136 70 222 -32 q 50 358 50 172 q 194 697 50 606 q 353 746 267 746 q 440 728 386 746 q 304 851 386 783 m 379 642 q 226 566 282 642 q 171 358 171 490 q 226 151 171 226 q 379 75 282 75 q 531 151 475 75 q 588 354 588 226 q 533 565 588 489 q 379 642 478 642 z "},"þ":{"ha":771,"x_min":75,"x_max":725,"o":"m 75 -303 l 75 992 l 190 992 l 190 638 q 414 749 268 749 q 640 640 556 749 q 725 351 725 532 q 640 73 725 178 q 414 -32 554 -32 q 190 76 279 -32 l 190 -303 l 75 -303 m 393 640 q 246 563 301 640 q 190 358 190 486 q 246 153 190 231 q 393 76 301 76 q 546 153 488 76 q 604 354 604 231 q 547 563 604 485 q 393 640 489 640 z "},"€":{"ha":772,"x_min":3,"x_max":754,"o":"m 110 435 l 110 469 q 113 526 110 500 l 3 526 l 33 608 l 121 608 q 213 844 142 740 q 488 985 310 985 q 754 892 624 985 l 710 781 q 584 858 635 836 q 478 879 533 879 q 333 813 389 879 q 247 608 276 747 l 642 608 l 610 526 l 235 526 q 232 476 232 504 q 233 435 232 456 l 575 435 l 542 353 l 244 353 q 479 76 297 76 q 577 94 529 76 q 710 163 625 113 l 710 33 q 479 -32 603 -32 q 318 6 392 -32 q 204 111 244 44 q 118 353 143 211 l 3 353 l 33 435 l 110 435 z "},"¹":{"ha":488,"x_min":85,"x_max":308,"o":"m 222 806 l 85 806 l 85 869 l 106 871 q 206 898 181 878 q 249 985 231 918 l 308 985 l 308 394 l 222 394 l 222 806 z "},"²":{"ha":488,"x_min":26,"x_max":453,"o":"m 449 475 l 449 394 l 26 394 q 67 549 32 496 q 203 654 103 601 l 283 697 q 365 807 365 742 q 331 881 365 851 q 247 911 297 911 q 144 857 176 911 q 126 774 131 833 l 40 774 q 250 985 46 985 q 396 936 339 985 q 453 810 453 888 q 319 631 453 696 l 232 586 q 165 538 186 563 q 131 475 143 514 l 449 475 z "},"³":{"ha":488,"x_min":22,"x_max":447,"o":"m 188 661 l 188 732 q 308 750 276 732 q 340 817 340 768 q 312 886 340 861 q 235 911 283 911 q 135 863 161 911 q 122 788 122 839 l 35 788 q 235 985 39 985 q 376 940 324 985 q 428 818 428 896 q 349 700 428 736 q 447 561 447 667 q 388 426 447 476 q 232 375 329 375 q 77 426 132 375 q 22 572 22 478 l 108 572 q 142 478 111 508 q 235 449 172 449 q 326 478 293 449 q 360 561 360 508 q 338 626 360 599 q 279 658 315 653 q 188 661 258 661 z "},"°":{"ha":842,"x_min":210,"x_max":631,"o":"m 421 953 q 569 891 507 953 q 631 743 631 829 q 569 593 631 654 q 418 532 507 532 q 272 594 333 532 q 210 743 210 657 q 272 891 210 829 q 421 953 333 953 m 513 835 q 494 855 513 835 q 421 874 475 874 q 328 835 367 874 q 289 743 289 796 q 327 650 289 689 q 418 611 365 611 q 513 649 474 611 q 551 743 551 688 q 513 835 551 797 z "},"−":{"ha":811,"x_min":56,"x_max":756,"o":"m 756 371 l 756 274 l 56 274 l 56 371 l 756 371 z "},"×":{"ha":811,"x_min":132,"x_max":678,"o":"m 608 593 l 676 524 l 474 321 l 678 117 l 608 47 l 404 251 l 201 49 l 132 117 l 336 321 l 133 524 l 201 592 l 404 390 l 608 593 z "},"÷":{"ha":811,"x_min":69,"x_max":742,"o":"m 742 376 l 742 279 l 69 279 l 69 376 l 742 376 m 478 144 l 478 0 l 333 0 l 333 144 l 478 144 m 478 656 l 478 511 l 333 511 l 333 656 l 478 656 z "},"™":{"ha":1389,"x_min":88,"x_max":1303,"o":"m 396 936 l 396 406 l 301 406 l 301 936 l 88 936 l 88 1013 l 608 1013 l 608 936 l 396 936 m 1039 406 l 942 406 l 774 879 l 774 406 l 681 406 l 681 1013 l 811 1013 l 994 510 l 1176 1013 l 1303 1013 l 1303 406 l 1210 406 l 1210 879 l 1039 406 z "},"±":{"ha":811,"x_min":69,"x_max":742,"o":"m 742 578 l 742 481 l 454 481 l 454 193 l 357 193 l 357 481 l 69 481 l 69 578 l 357 578 l 357 865 l 454 865 l 454 578 l 742 578 m 742 82 l 742 -15 l 69 -15 l 69 82 l 742 82 z "},"½":{"ha":1207,"x_min":85,"x_max":1172,"o":"m 222 806 l 85 806 l 85 869 l 106 871 q 206 898 181 878 q 249 985 231 918 l 308 985 l 308 394 l 222 394 l 222 806 m 860 985 l 940 985 l 313 -28 l 232 -28 l 860 985 m 1168 81 l 1168 0 l 746 0 q 787 154 751 101 q 922 260 822 207 l 1003 303 q 1085 413 1085 347 q 1051 487 1085 457 q 967 517 1017 517 q 864 463 896 517 q 846 379 850 439 l 760 379 q 969 590 765 590 q 1115 542 1058 590 q 1172 415 1172 493 q 1039 236 1172 301 l 951 192 q 884 144 906 168 q 850 81 863 119 l 1168 81 z "},"¼":{"ha":1207,"x_min":85,"x_max":1179,"o":"m 222 806 l 85 806 l 85 869 l 106 871 q 206 898 181 878 q 249 985 231 918 l 308 985 l 308 394 l 222 394 l 222 806 m 893 985 l 974 985 l 346 -28 l 265 -28 l 893 985 m 1000 139 l 739 139 l 739 221 l 1022 590 l 1086 590 l 1086 213 l 1179 213 l 1179 139 l 1086 139 l 1086 0 l 1000 0 l 1000 139 m 1000 213 l 1000 449 l 821 213 l 1000 213 z "},"¾":{"ha":1207,"x_min":22,"x_max":1179,"o":"m 188 661 l 188 732 q 308 750 276 732 q 340 817 340 768 q 312 886 340 861 q 235 911 283 911 q 135 863 161 911 q 122 788 122 839 l 35 788 q 235 985 39 985 q 376 940 324 985 q 428 818 428 896 q 349 700 428 736 q 447 561 447 667 q 388 426 447 476 q 232 375 329 375 q 77 426 132 375 q 22 572 22 478 l 108 572 q 142 478 111 508 q 235 449 172 449 q 326 478 293 449 q 360 561 360 508 q 338 626 360 599 q 279 658 315 653 q 188 661 258 661 m 907 985 l 988 985 l 360 -28 l 279 -28 l 907 985 m 1000 139 l 739 139 l 739 221 l 1022 590 l 1086 590 l 1086 213 l 1179 213 l 1179 139 l 1086 139 l 1086 0 l 1000 0 l 1000 139 m 1000 213 l 1000 449 l 821 213 l 1000 213 z "},"©":{"ha":1024,"x_min":-18,"x_max":1043,"o":"m 756 607 l 657 607 q 608 706 639 676 q 521 736 576 736 q 394 672 442 736 q 347 497 347 607 q 397 325 347 388 q 453 278 419 296 q 521 261 488 261 q 668 433 640 261 l 767 433 q 710 272 744 324 q 521 175 642 175 q 326 265 401 175 q 251 496 251 354 q 327 732 251 642 q 525 822 403 822 q 756 607 707 822 m 138 875 q 215 953 138 875 q 513 1031 293 1031 q 888 876 732 1031 q 1043 501 1043 721 q 887 124 1043 279 q 506 -31 731 -31 q 137 126 292 -31 q -18 500 -18 283 q 138 875 -18 719 m 821 814 q 757 879 821 814 q 513 944 693 944 q 204 814 332 944 q 76 500 76 683 q 203 187 76 318 q 507 56 331 56 q 820 185 692 56 q 949 501 949 315 q 821 814 949 683 z "},"®":{"ha":1024,"x_min":-18,"x_max":1043,"o":"m 378 451 l 378 194 l 281 194 l 281 813 l 567 813 q 763 638 763 813 q 747 561 763 590 q 688 500 731 532 q 738 447 726 475 q 750 344 749 418 q 757 264 751 285 q 782 229 763 243 l 782 194 l 672 194 q 651 301 651 243 l 653 357 q 632 429 653 407 q 564 451 611 451 l 378 451 m 378 539 l 557 539 q 661 632 661 539 q 637 703 661 681 q 557 725 613 725 l 378 725 l 378 539 m 138 875 q 215 953 138 875 q 513 1031 293 1031 q 888 876 732 1031 q 1043 501 1043 721 q 887 124 1043 279 q 506 -31 731 -31 q 137 126 292 -31 q -18 500 -18 283 q 138 875 -18 719 m 821 814 q 757 879 821 814 q 513 944 693 944 q 204 814 332 944 q 76 500 76 683 q 203 187 76 318 q 507 56 331 56 q 820 185 692 56 q 949 501 949 315 q 821 814 949 683 z "},"◊":{"ha":679,"x_min":22,"x_max":642,"o":"m 375 1033 l 642 517 l 375 0 l 289 0 l 22 517 l 289 1033 l 375 1033 m 333 83 l 556 517 l 333 950 l 110 517 l 333 83 z "},"Δ":{"ha":988,"x_min":14,"x_max":974,"o":"m 14 0 l 422 1013 l 561 1013 l 974 0 l 14 0 m 493 856 l 199 114 l 786 114 l 493 856 z "},"≠":{"ha":761,"x_min":44,"x_max":717,"o":"m 218 154 l 44 154 l 44 251 l 272 251 l 351 393 l 44 393 l 44 490 l 406 490 l 511 675 l 581 636 l 499 490 l 717 490 l 717 393 l 444 393 l 365 251 l 717 251 l 717 154 l 311 154 l 206 -35 l 135 6 l 218 154 z "},"√":{"ha":753,"x_min":10,"x_max":711,"o":"m 661 1268 l 711 1261 l 500 -50 l 165 640 l 35 576 l 10 622 l 215 724 l 483 174 l 661 1268 z "},"≤":{"ha":811,"x_min":63,"x_max":742,"o":"m 742 78 l 742 -15 l 63 -15 l 63 78 l 742 78 m 63 504 l 63 600 l 742 888 l 742 778 l 194 554 l 742 326 l 742 217 l 63 504 z "},"≥":{"ha":811,"x_min":63,"x_max":742,"o":"m 742 78 l 742 -15 l 63 -15 l 63 78 l 742 78 m 742 600 l 742 504 l 63 217 l 63 326 l 610 550 l 63 778 l 63 888 l 742 600 z "},"¬":{"ha":811,"x_min":56,"x_max":756,"o":"m 56 521 l 756 521 l 756 119 l 658 119 l 658 424 l 56 424 l 56 521 z "},"∑":{"ha":988,"x_min":24,"x_max":964,"o":"m 856 1046 l 865 825 l 835 825 q 768 951 808 921 q 629 982 728 982 l 267 982 l 640 490 l 238 24 l 713 24 q 806 30 776 24 q 857 54 836 36 q 889 90 878 71 q 922 163 900 108 q 931 181 924 167 l 964 181 q 904 -135 925 35 q 793 -122 861 -122 l 128 -122 q 24 -128 71 -122 l 503 429 l 24 1056 q 181 1046 103 1046 l 856 1046 z "},"∂":{"ha":681,"x_min":31,"x_max":636,"o":"m 142 931 l 86 1003 q 269 1042 172 1042 q 533 906 429 1042 q 636 563 636 771 q 610 335 636 456 q 544 143 583 214 q 294 -21 453 -21 q 107 57 183 -21 q 31 249 31 135 q 133 497 31 392 q 303 567 203 567 q 399 549 358 567 q 511 476 440 531 q 526 633 526 576 q 450 904 526 799 q 297 976 397 976 q 238 970 260 976 q 153 936 215 964 l 142 931 m 501 422 q 356 510 449 510 q 211 423 271 510 q 151 215 151 336 q 184 74 151 125 q 275 24 217 24 q 378 68 332 24 q 451 193 425 113 q 501 422 481 276 z "},"¦":{"ha":361,"x_min":139,"x_max":222,"o":"m 139 1013 l 222 1013 l 222 456 l 139 456 l 139 1013 m 139 263 l 222 263 l 222 -294 l 139 -294 l 139 263 z "},"μ":{"ha":772,"x_min":90,"x_max":756,"o":"m 756 68 l 756 -19 q 676 -32 710 -32 q 557 83 561 -32 q 331 -32 475 -32 q 206 4 256 -32 l 206 -306 l 90 -306 l 90 728 l 206 728 l 206 213 q 246 108 206 147 q 354 69 286 69 q 499 137 444 69 q 553 315 553 204 l 553 728 l 668 728 l 668 122 q 731 65 668 65 q 756 68 742 65 z "},"А":{"ha":926,"x_min":24,"x_max":907,"o":"m 658 304 l 268 304 l 161 0 l 24 0 l 385 1013 l 551 1013 l 907 0 l 763 0 l 658 304 m 622 413 l 467 874 l 300 413 l 622 413 z "},"Б":{"ha":926,"x_min":110,"x_max":865,"o":"m 865 303 q 788 85 865 167 q 567 0 708 0 l 110 0 l 110 1013 l 789 1013 l 789 899 l 239 899 l 239 604 l 567 604 q 647 597 608 604 q 726 569 685 590 q 797 516 767 549 q 846 428 826 483 q 865 303 865 374 m 239 114 l 554 114 q 689 163 644 114 q 736 301 736 213 q 689 442 736 392 q 554 490 644 490 l 239 490 l 239 114 z "},"В":{"ha":926,"x_min":110,"x_max":865,"o":"m 110 0 l 110 1013 l 521 1013 q 740 942 664 1013 q 821 756 821 869 q 681 535 821 600 q 822 439 778 497 q 865 289 865 381 q 788 85 865 167 q 567 0 708 0 l 110 0 m 239 576 l 489 576 q 636 613 589 576 q 692 738 692 656 q 636 863 692 819 q 489 899 589 899 l 239 899 l 239 576 m 239 114 l 554 114 q 689 163 644 114 q 736 288 736 213 q 689 414 736 364 q 554 463 644 463 l 239 463 l 239 114 z "},"Г":{"ha":849,"x_min":110,"x_max":789,"o":"m 239 0 l 110 0 l 110 1013 l 789 1013 l 789 899 l 239 899 l 239 0 z "},"Д":{"ha":1128,"x_min":47,"x_max":1081,"o":"m 364 114 l 824 114 l 824 899 l 460 899 l 460 561 q 364 114 460 264 m 175 103 q 329 561 329 174 l 329 1013 l 954 1013 l 954 103 l 1081 103 l 1081 -187 l 969 -187 l 969 0 l 158 0 l 158 -187 l 47 -187 l 47 103 l 175 103 z "},"Е":{"ha":926,"x_min":110,"x_max":836,"o":"m 239 461 l 239 114 l 836 114 l 836 0 l 110 0 l 110 1013 l 811 1013 l 811 899 l 239 899 l 239 575 l 790 575 l 790 461 l 239 461 z "},"Ё":{"ha":926,"x_min":110,"x_max":836,"o":"m 239 461 l 239 114 l 836 114 l 836 0 l 110 0 l 110 1013 l 811 1013 l 811 899 l 239 899 l 239 575 l 790 575 l 790 461 l 239 461 m 421 1269 l 421 1126 l 276 1126 l 276 1269 l 421 1269 m 646 1269 l 646 1126 l 501 1126 l 501 1269 l 646 1269 z "},"Ж":{"ha":1421,"x_min":88,"x_max":1317,"o":"m 638 450 l 240 0 l 88 0 l 539 521 l 146 1013 l 307 1013 l 638 585 l 638 1013 l 767 1013 l 767 585 l 1097 1013 l 1258 1013 l 865 521 l 1317 0 l 1153 0 l 767 450 l 767 0 l 638 0 l 638 450 z "},"З":{"ha":926,"x_min":67,"x_max":863,"o":"m 357 446 l 357 560 l 479 560 q 634 619 569 560 q 699 750 699 679 q 637 874 699 826 q 472 921 575 921 q 286 867 351 921 q 219 715 221 814 l 97 715 q 196 947 99 864 q 468 1029 293 1029 q 731 949 635 1029 q 828 732 828 869 q 682 519 828 582 q 863 278 863 451 q 833 149 863 213 q 751 46 803 86 q 467 -32 650 -32 q 126 113 232 -32 q 67 322 68 192 l 189 322 q 242 167 188 232 q 475 82 313 82 q 661 125 599 82 q 713 187 693 149 q 733 265 733 225 q 670 397 733 347 q 507 446 607 446 l 357 446 z "},"И":{"ha":1011,"x_min":110,"x_max":901,"o":"m 110 1013 l 232 1013 l 232 175 l 761 1013 l 901 1013 l 901 0 l 779 0 l 779 831 l 256 0 l 110 0 l 110 1013 z "},"Й":{"ha":1011,"x_min":110,"x_max":901,"o":"m 296 1283 l 378 1283 q 506 1192 389 1192 q 594 1215 561 1192 q 632 1283 628 1239 l 714 1283 q 503 1096 699 1096 q 325 1175 383 1096 q 296 1283 297 1214 m 110 1013 l 232 1013 l 232 175 l 761 1013 l 901 1013 l 901 0 l 779 0 l 779 831 l 256 0 l 110 0 l 110 1013 z "},"К":{"ha":926,"x_min":110,"x_max":863,"o":"m 239 0 l 110 0 l 110 1013 l 239 1013 l 239 588 l 663 1013 l 817 1013 l 338 533 l 863 0 l 690 0 l 239 463 l 239 0 z "},"Л":{"ha":935,"x_min":46,"x_max":825,"o":"m 694 899 l 331 899 l 331 561 q 317 350 331 447 q 272 168 303 253 q 183 35 240 83 q 46 -14 125 -14 l 46 117 q 163 242 125 117 q 200 561 200 367 l 200 1013 l 825 1013 l 825 0 l 694 0 l 694 899 z "},"М":{"ha":1172,"x_min":110,"x_max":1063,"o":"m 656 0 l 519 0 l 232 849 l 232 0 l 110 0 l 110 1013 l 289 1013 l 589 131 l 883 1013 l 1063 1013 l 1063 0 l 940 0 l 940 849 l 656 0 z "},"Н":{"ha":999,"x_min":110,"x_max":889,"o":"m 758 461 l 240 461 l 240 0 l 110 0 l 110 1013 l 239 1013 l 239 575 l 758 575 l 758 1013 l 889 1013 l 889 0 l 758 0 l 758 461 z "},"О":{"ha":1081,"x_min":53,"x_max":1031,"o":"m 540 1029 q 897 882 763 1029 q 1031 490 1031 735 q 984 255 1031 365 q 856 75 938 144 q 542 -32 729 -32 q 188 115 322 -32 q 53 499 53 261 q 188 883 53 736 q 540 1029 322 1029 m 540 915 q 281 801 379 915 q 182 499 182 686 q 281 197 182 311 q 542 82 381 82 q 802 196 703 82 q 901 493 901 310 q 803 800 901 685 q 540 915 704 915 z "},"П":{"ha":999,"x_min":110,"x_max":889,"o":"m 758 899 l 240 899 l 240 0 l 110 0 l 110 1013 l 889 1013 l 889 0 l 758 0 l 758 899 z "},"Р":{"ha":926,"x_min":110,"x_max":840,"o":"m 239 429 l 239 0 l 110 0 l 110 1013 l 528 1013 q 759 935 678 1013 q 840 715 840 858 q 753 501 840 581 q 557 429 672 429 l 239 429 m 239 543 l 508 543 q 653 590 601 543 q 706 721 706 638 q 653 851 706 804 q 508 899 601 899 l 239 899 l 239 543 z "},"С":{"ha":1003,"x_min":67,"x_max":940,"o":"m 919 699 l 788 699 q 714 851 767 803 q 514 915 646 915 q 281 803 367 915 q 196 496 196 690 q 285 194 196 306 q 525 82 374 82 q 669 116 607 82 q 761 213 731 150 q 807 369 792 271 l 940 369 q 524 -32 894 -32 q 214 86 328 -32 q 67 494 67 238 q 208 903 67 749 q 529 1029 322 1029 q 919 699 860 1029 z "},"Т":{"ha":849,"x_min":29,"x_max":824,"o":"m 492 899 l 492 0 l 363 0 l 363 899 l 29 899 l 29 1013 l 824 1013 l 824 899 l 492 899 z "},"У":{"ha":903,"x_min":36,"x_max":860,"o":"m 350 0 l 193 0 l 368 343 l 36 1013 l 193 1013 l 442 499 l 706 1013 l 860 1013 l 350 0 z "},"Ф":{"ha":1300,"x_min":89,"x_max":1151,"o":"m 686 883 q 1151 507 1151 883 q 1133 372 1151 432 q 1087 272 1114 311 q 1016 206 1060 233 q 935 164 972 178 q 845 142 897 150 q 761 132 793 133 q 686 131 729 131 l 686 0 l 554 0 l 554 131 q 479 132 511 131 q 395 142 447 133 q 306 164 343 150 q 224 206 268 178 q 153 272 181 233 q 108 372 126 311 q 89 507 89 432 q 554 883 89 883 l 554 1013 l 686 1013 l 686 883 m 686 244 q 751 248 718 244 q 835 267 785 251 q 922 309 885 283 q 985 386 958 335 q 1013 507 1013 438 q 985 628 1013 576 q 922 705 958 679 q 835 747 885 731 q 751 766 785 763 q 686 769 718 769 l 686 244 m 554 244 l 554 769 q 489 766 522 769 q 406 747 456 763 q 319 705 356 731 q 255 628 282 679 q 228 507 228 576 q 255 386 228 438 q 319 309 282 335 q 406 267 356 283 q 489 248 456 251 q 554 244 522 244 z "},"Х":{"ha":926,"x_min":31,"x_max":890,"o":"m 535 519 l 890 0 l 742 0 l 460 414 l 188 0 l 31 0 l 389 519 l 53 1013 l 210 1013 l 463 625 l 731 1013 l 875 1013 l 535 519 z "},"Ц":{"ha":1029,"x_min":110,"x_max":982,"o":"m 758 114 l 758 1013 l 889 1013 l 889 103 l 982 103 l 982 -187 l 871 -187 l 871 0 l 110 0 l 110 1013 l 240 1013 l 240 114 l 758 114 z "},"Ч":{"ha":900,"x_min":110,"x_max":790,"o":"m 661 361 l 367 361 q 174 432 239 361 q 110 628 110 503 l 110 1013 l 239 1013 l 239 603 q 276 508 239 540 q 372 475 313 475 l 661 475 l 661 1013 l 790 1013 l 790 0 l 661 0 l 661 361 z "},"Ш":{"ha":1150,"x_min":110,"x_max":1040,"o":"m 640 114 l 910 114 l 910 1013 l 1040 1013 l 1040 0 l 110 0 l 110 1013 l 240 1013 l 240 114 l 510 114 l 510 1013 l 640 1013 l 640 114 z "},"Щ":{"ha":1181,"x_min":110,"x_max":1133,"o":"m 1022 0 l 110 0 l 110 1013 l 240 1013 l 240 114 l 510 114 l 510 1013 l 640 1013 l 640 114 l 910 114 l 910 1013 l 1040 1013 l 1040 103 l 1133 103 l 1133 -187 l 1022 -187 l 1022 0 z "},"Ъ":{"ha":1246,"x_min":113,"x_max":1189,"o":"m 433 0 l 433 899 l 113 899 l 113 1013 l 563 1013 l 563 626 l 869 626 q 1098 537 1007 626 q 1189 314 1189 447 q 1099 88 1189 176 q 869 0 1008 0 l 433 0 m 563 114 l 857 114 q 1003 171 946 114 q 1060 313 1060 228 q 1003 457 1060 401 q 857 513 947 513 l 563 513 l 563 114 z "},"Ы":{"ha":1211,"x_min":110,"x_max":1101,"o":"m 865 314 q 775 88 865 176 q 546 0 685 0 l 110 0 l 110 1013 l 239 1013 l 239 626 l 546 626 q 774 537 683 626 q 865 314 865 447 m 239 114 l 533 114 q 679 171 622 114 q 736 313 736 228 q 680 457 736 401 q 533 513 624 513 l 239 513 l 239 114 m 1101 1013 l 1101 0 l 971 0 l 971 1013 l 1101 1013 z "},"Ь":{"ha":926,"x_min":110,"x_max":865,"o":"m 865 314 q 775 88 865 176 q 546 0 685 0 l 110 0 l 110 1013 l 239 1013 l 239 626 l 546 626 q 774 537 683 626 q 865 314 865 447 m 239 114 l 533 114 q 679 171 622 114 q 736 313 736 228 q 680 457 736 401 q 533 513 624 513 l 239 513 l 239 114 z "},"Э":{"ha":1003,"x_min":67,"x_max":940,"o":"m 811 461 l 301 461 l 301 575 l 807 575 q 707 825 790 735 q 493 915 624 915 q 293 851 361 915 q 219 699 240 803 l 88 699 q 478 1029 147 1029 q 799 903 685 1029 q 940 494 940 749 q 793 86 940 238 q 483 -32 679 -32 q 67 369 113 -32 l 200 369 q 246 213 215 271 q 338 116 276 150 q 482 82 400 82 q 713 184 625 82 q 811 461 801 286 z "},"Ю":{"ha":1433,"x_min":115,"x_max":1331,"o":"m 410 461 l 246 461 l 246 0 l 115 0 l 115 1013 l 244 1013 l 244 575 l 413 575 q 553 907 435 785 q 868 1029 672 1029 q 1209 884 1088 1029 q 1331 490 1331 739 q 1284 255 1331 365 q 1156 75 1238 144 q 1026 -6 1090 19 q 874 -32 961 -32 q 544 102 667 -32 q 410 461 421 236 m 868 915 q 624 803 711 915 q 538 499 538 690 q 624 194 538 307 q 869 82 711 82 q 1114 194 1026 82 q 1201 493 1201 306 q 1115 802 1201 689 q 868 915 1029 915 z "},"Я":{"ha":975,"x_min":44,"x_max":865,"o":"m 582 436 l 197 0 l 44 0 l 424 436 q 196 521 282 436 q 110 724 110 606 q 188 928 110 846 q 408 1013 267 1013 l 865 1013 l 865 0 l 736 0 l 736 436 l 582 436 m 736 899 l 421 899 q 286 850 331 899 q 239 724 239 800 q 286 599 239 649 q 421 550 331 550 l 736 550 l 736 899 z "},"а":{"ha":772,"x_min":58,"x_max":743,"o":"m 743 68 l 743 -19 q 664 -32 694 -32 q 580 -6 608 -32 q 544 75 551 19 q 297 -32 428 -32 q 123 26 188 -32 q 58 183 58 85 q 186 378 58 325 q 260 399 221 392 q 419 422 299 407 q 514 449 488 431 q 540 503 540 467 l 540 533 q 498 614 540 586 q 378 642 456 642 q 256 610 297 642 q 207 513 214 579 l 90 513 q 140 664 94 613 q 382 749 217 749 q 586 698 517 749 q 656 550 656 647 l 656 122 q 718 65 656 65 q 743 68 731 65 m 540 229 l 540 360 q 354 319 494 339 q 220 274 261 306 q 179 186 179 243 q 217 100 179 131 q 322 69 254 69 q 494 135 422 69 q 540 229 540 176 z "},"б":{"ha":772,"x_min":50,"x_max":708,"o":"m 163 651 q 378 749 224 749 q 622 645 535 749 q 708 353 708 542 q 620 71 708 174 q 379 -32 532 -32 q 137 72 224 -32 q 50 358 50 175 q 60 556 50 464 q 96 736 71 647 q 169 884 121 825 q 288 958 218 943 l 472 994 q 527 1025 504 1001 q 550 1076 550 1049 l 653 1076 q 650 1015 653 1036 q 633 967 647 994 q 587 920 619 939 q 499 889 554 901 l 311 849 q 215 781 256 835 q 163 651 175 726 m 379 642 q 226 566 282 642 q 171 358 171 490 q 226 151 171 226 q 379 75 282 75 q 531 151 475 75 q 588 354 588 226 q 533 565 588 489 q 379 642 478 642 z "},"в":{"ha":725,"x_min":97,"x_max":650,"o":"m 97 0 l 97 728 l 401 728 q 557 678 503 728 q 613 544 613 626 q 517 385 613 432 q 618 315 586 357 q 650 208 650 274 q 593 61 650 122 q 435 0 536 0 l 97 0 m 214 426 l 350 426 q 456 451 421 426 q 478 471 472 464 q 490 491 485 478 q 496 522 496 504 q 487 565 496 550 q 456 597 478 579 q 350 624 422 624 l 214 624 l 214 426 m 214 106 l 397 106 q 493 142 461 106 q 524 215 524 172 q 523 248 524 239 q 515 270 522 257 q 493 293 508 283 q 397 321 450 321 l 214 321 l 214 106 z "},"г":{"ha":597,"x_min":97,"x_max":528,"o":"m 97 728 l 528 728 l 528 622 l 214 622 l 214 0 l 97 0 l 97 728 z "},"д":{"ha":836,"x_min":42,"x_max":794,"o":"m 121 89 q 202 203 169 94 q 235 446 235 313 l 235 728 l 706 728 l 706 89 l 794 89 l 794 -167 l 697 -167 l 697 0 l 139 0 l 139 -167 l 42 -167 l 42 89 l 121 89 m 282 106 l 589 106 l 589 622 l 350 622 l 350 446 q 282 106 350 231 z "},"е":{"ha":772,"x_min":56,"x_max":713,"o":"m 713 325 l 176 325 q 215 169 178 225 q 390 75 275 75 q 581 221 532 75 l 697 221 q 593 35 675 101 q 386 -32 511 -32 q 144 72 233 -32 q 56 354 56 175 q 147 641 56 533 q 389 749 238 749 q 570 697 492 749 q 683 557 649 646 q 713 325 713 481 m 179 419 l 588 419 q 589 428 589 422 q 531 580 589 518 q 388 642 472 642 q 243 581 300 642 q 179 419 186 521 z "},"ё":{"ha":772,"x_min":56,"x_max":713,"o":"m 357 994 l 357 851 l 213 851 l 213 994 l 357 994 m 582 994 l 582 851 l 438 851 l 438 994 l 582 994 m 713 325 l 176 325 q 215 169 178 225 q 390 75 275 75 q 581 221 532 75 l 697 221 q 593 35 675 101 q 386 -32 511 -32 q 144 72 233 -32 q 56 354 56 175 q 147 641 56 533 q 389 749 238 749 q 570 697 492 749 q 683 557 649 646 q 713 325 713 481 m 179 419 l 588 419 q 589 428 589 422 q 531 580 589 518 q 388 642 472 642 q 243 581 300 642 q 179 419 186 521 z "},"ж":{"ha":1163,"x_min":61,"x_max":1096,"o":"m 636 728 l 636 449 l 903 728 l 1051 728 l 715 381 l 1096 0 l 949 0 l 636 314 l 636 0 l 521 0 l 521 314 l 208 0 l 61 0 l 442 381 l 106 728 l 254 728 l 521 449 l 521 728 l 636 728 z "},"з":{"ha":694,"x_min":47,"x_max":638,"o":"m 267 307 l 267 413 l 353 413 q 453 449 419 413 q 488 532 488 486 q 446 612 488 582 q 333 642 404 642 q 228 612 268 642 q 188 525 189 582 l 65 525 q 138 690 67 631 q 329 749 208 749 q 532 688 456 749 q 608 526 608 628 q 518 371 608 422 q 638 199 638 318 q 556 31 638 93 q 338 -32 475 -32 q 47 217 56 -32 l 169 217 q 203 124 178 151 q 347 75 249 75 q 467 106 422 75 q 511 189 511 138 q 480 270 511 233 q 390 307 449 307 l 267 307 z "},"и":{"ha":788,"x_min":97,"x_max":690,"o":"m 97 728 l 214 728 l 214 154 l 540 728 l 690 728 l 690 0 l 575 0 l 575 574 l 249 0 l 97 0 l 97 728 z "},"й":{"ha":788,"x_min":97,"x_max":690,"o":"m 97 728 l 214 728 l 214 154 l 540 728 l 690 728 l 690 0 l 575 0 l 575 574 l 249 0 l 97 0 l 97 728 m 185 971 l 267 971 q 394 879 278 879 q 483 903 450 879 q 521 971 517 926 l 603 971 q 392 783 588 783 q 214 863 272 783 q 185 971 186 901 z "},"к":{"ha":708,"x_min":97,"x_max":672,"o":"m 213 728 l 213 433 l 507 728 l 640 728 l 292 381 l 672 0 l 525 0 l 213 314 l 213 0 l 97 0 l 97 728 l 213 728 z "},"л":{"ha":774,"x_min":97,"x_max":676,"o":"m 206 728 l 676 728 l 676 0 l 560 0 l 560 622 l 321 622 l 321 446 q 310 283 321 358 q 276 137 300 207 q 206 26 251 67 q 97 -14 160 -14 l 97 97 q 177 194 149 97 q 206 446 206 292 l 206 728 z "},"м":{"ha":858,"x_min":97,"x_max":761,"o":"m 97 728 l 242 728 l 429 275 l 617 728 l 761 728 l 761 0 l 644 0 l 644 504 l 464 56 l 394 56 l 214 504 l 214 0 l 97 0 l 97 728 z "},"н":{"ha":775,"x_min":97,"x_max":678,"o":"m 97 728 l 214 728 l 214 429 l 561 429 l 561 728 l 678 728 l 678 0 l 561 0 l 561 324 l 214 324 l 214 0 l 97 0 l 97 728 z "},"о":{"ha":772,"x_min":50,"x_max":708,"o":"m 378 749 q 622 645 535 749 q 708 353 708 542 q 620 71 708 174 q 379 -32 532 -32 q 137 72 224 -32 q 50 358 50 175 q 138 645 50 542 q 378 749 225 749 m 379 642 q 226 566 282 642 q 171 358 171 490 q 226 151 171 226 q 379 75 282 75 q 531 151 475 75 q 588 354 588 226 q 533 565 588 489 q 379 642 478 642 z "},"п":{"ha":774,"x_min":97,"x_max":676,"o":"m 97 728 l 676 728 l 676 0 l 560 0 l 560 622 l 214 622 l 214 0 l 97 0 l 97 728 z "},"р":{"ha":800,"x_min":75,"x_max":726,"o":"m 75 -303 l 75 728 l 182 728 l 182 618 q 414 749 264 749 q 642 642 558 749 q 726 351 726 535 q 641 73 726 178 q 415 -32 556 -32 q 192 76 281 -32 l 192 -303 l 75 -303 m 394 640 q 247 563 303 640 q 192 358 192 486 q 247 153 192 231 q 394 76 303 76 q 547 153 489 76 q 606 354 606 231 q 548 563 606 485 q 394 640 490 640 z "},"с":{"ha":694,"x_min":43,"x_max":663,"o":"m 654 483 l 538 483 q 482 601 526 560 q 365 642 438 642 q 217 565 271 642 q 164 351 164 488 q 218 149 164 222 q 368 75 272 75 q 546 250 517 75 l 663 250 q 574 42 651 117 q 365 -32 496 -32 q 130 72 217 -32 q 43 351 43 175 q 131 640 43 532 q 367 749 219 749 q 606 640 526 749 q 654 483 646 581 z "},"т":{"ha":689,"x_min":83,"x_max":600,"o":"m 83 728 l 600 728 l 600 622 l 400 622 l 400 0 l 283 0 l 283 622 l 83 622 l 83 728 z "},"у":{"ha":694,"x_min":28,"x_max":664,"o":"m 539 728 l 664 728 l 340 -153 q 261 -268 311 -232 q 153 -303 214 -303 q 75 -285 110 -303 l 75 -181 q 136 -189 113 -189 q 229 -118 203 -189 l 274 -3 l 28 728 l 151 728 l 338 161 l 539 728 z "},"ф":{"ha":1267,"x_min":85,"x_max":1181,"o":"m 688 618 q 889 749 750 749 q 1106 643 1031 749 q 1181 351 1181 538 q 1105 72 1181 175 q 890 -32 1029 -32 q 779 -8 822 -32 q 688 76 736 17 l 688 -303 l 572 -303 l 572 83 q 485 -6 529 21 q 368 -32 442 -32 q 156 68 228 -32 q 85 350 85 168 q 159 642 85 536 q 374 749 233 749 q 572 618 504 749 l 572 936 l 688 936 l 688 618 m 869 640 q 734 565 781 640 q 688 358 688 490 q 734 151 688 226 q 869 76 781 76 q 1011 151 963 76 q 1060 354 1060 226 q 1011 564 1060 488 q 869 640 963 640 m 390 640 q 251 565 297 640 q 206 358 206 489 q 251 151 206 226 q 390 76 297 76 q 526 151 479 76 q 572 354 572 225 q 526 565 572 489 q 390 640 481 640 z "},"х":{"ha":694,"x_min":24,"x_max":657,"o":"m 406 376 l 657 0 l 522 0 l 340 279 l 156 0 l 24 0 l 281 371 l 38 728 l 169 728 l 344 464 l 519 728 l 650 728 l 406 376 z "},"ц":{"ha":803,"x_min":97,"x_max":761,"o":"m 97 0 l 97 728 l 214 728 l 214 106 l 560 106 l 560 728 l 676 728 l 676 89 l 761 89 l 761 -167 l 664 -167 l 664 0 l 97 0 z "},"ч":{"ha":722,"x_min":97,"x_max":625,"o":"m 97 728 l 214 728 l 214 468 q 308 371 214 371 l 508 371 l 508 728 l 625 728 l 625 0 l 508 0 l 508 265 l 313 265 q 160 318 222 265 q 97 464 97 371 l 97 728 z "},"ш":{"ha":961,"x_min":97,"x_max":864,"o":"m 539 106 l 747 106 l 747 728 l 864 728 l 864 0 l 97 0 l 97 728 l 214 728 l 214 106 l 422 106 l 422 728 l 539 728 l 539 106 z "},"щ":{"ha":989,"x_min":97,"x_max":947,"o":"m 850 0 l 97 0 l 97 728 l 214 728 l 214 106 l 422 106 l 422 728 l 539 728 l 539 106 l 747 106 l 747 728 l 864 728 l 864 89 l 947 89 l 947 -167 l 850 -167 l 850 0 z "},"ъ":{"ha":1019,"x_min":79,"x_max":907,"o":"m 333 0 l 333 622 l 79 622 l 79 728 l 450 728 l 450 474 l 675 474 q 842 408 778 474 q 907 232 907 343 q 842 65 907 131 q 675 0 776 0 l 333 0 m 450 106 l 622 106 q 747 138 714 106 q 781 228 781 171 q 742 335 781 301 q 622 368 703 368 l 450 368 l 450 106 z "},"ы":{"ha":958,"x_min":97,"x_max":861,"o":"m 214 728 l 214 474 l 439 474 q 607 408 543 474 q 671 232 671 343 q 606 65 671 131 q 439 0 540 0 l 97 0 l 97 728 l 214 728 m 214 106 l 386 106 q 511 138 478 106 q 544 228 544 171 q 506 335 544 301 q 386 368 467 368 l 214 368 l 214 106 m 861 728 l 861 0 l 746 0 l 746 728 l 861 728 z "},"ь":{"ha":767,"x_min":97,"x_max":671,"o":"m 214 728 l 214 474 l 439 474 q 607 408 543 474 q 671 232 671 343 q 606 65 671 131 q 439 0 540 0 l 97 0 l 97 728 l 214 728 m 214 106 l 386 106 q 511 138 478 106 q 544 228 544 171 q 506 335 544 301 q 386 368 467 368 l 214 368 l 214 106 z "},"э":{"ha":694,"x_min":43,"x_max":663,"o":"m 226 322 l 226 429 l 538 429 q 472 586 522 531 q 340 642 421 642 q 224 601 268 642 q 168 483 179 560 l 51 483 q 100 640 60 581 q 339 749 179 749 q 574 640 486 749 q 663 351 663 532 q 576 72 663 175 q 340 -32 489 -32 q 132 42 210 -32 q 43 250 54 117 l 160 250 q 338 75 189 75 q 481 140 428 75 q 542 322 535 206 l 226 322 z "},"ю":{"ha":1053,"x_min":97,"x_max":1001,"o":"m 347 429 q 354 488 347 454 q 383 569 361 522 q 440 656 406 617 q 534 722 474 694 q 671 749 594 749 q 915 645 828 749 q 1001 353 1001 542 q 913 71 1001 174 q 672 -32 825 -32 q 535 -6 596 -32 q 440 60 475 21 q 383 149 406 99 q 352 242 360 199 q 344 324 344 285 l 214 324 l 214 0 l 97 0 l 97 728 l 214 728 l 214 429 l 347 429 m 672 642 q 519 566 575 642 q 464 358 464 490 q 519 151 464 226 q 672 75 575 75 q 824 151 768 75 q 881 354 881 226 q 826 565 881 489 q 672 642 771 642 z "},"я":{"ha":754,"x_min":19,"x_max":657,"o":"m 304 307 q 154 368 211 315 q 97 521 97 421 q 154 668 97 607 q 313 728 210 728 l 657 728 l 657 0 l 540 0 l 540 303 l 444 303 l 163 0 l 19 0 l 304 307 m 540 624 l 350 624 q 254 588 286 624 q 224 514 224 557 q 224 481 224 490 q 232 459 225 472 q 254 436 239 446 q 350 408 297 408 l 540 408 l 540 624 z "},"Ѐ":{"ha":926,"x_min":125,"x_max":851,"o":"m 488 1274 l 621 1068 l 538 1068 l 331 1274 l 488 1274 m 254 461 l 254 114 l 851 114 l 851 0 l 125 0 l 125 1013 l 826 1013 l 826 899 l 254 899 l 254 575 l 806 575 l 806 461 l 254 461 z "},"Ђ":{"ha":1025,"x_min":29,"x_max":974,"o":"m 644 -242 l 644 -128 l 711 -128 q 808 -95 771 -128 q 844 0 844 -62 l 844 410 q 808 505 844 472 q 711 538 771 538 l 436 538 l 436 0 l 307 0 l 307 899 l 29 899 l 29 1013 l 713 1013 l 713 899 l 436 899 l 436 651 l 717 651 q 909 581 844 651 q 974 385 974 510 l 974 25 q 909 -171 974 -100 q 717 -242 844 -242 l 644 -242 z "},"Ѓ":{"ha":849,"x_min":125,"x_max":804,"o":"m 254 0 l 125 0 l 125 1013 l 804 1013 l 804 899 l 254 899 l 254 0 m 453 1274 l 610 1274 l 403 1068 l 319 1068 l 453 1274 z "},"Є":{"ha":1003,"x_min":67,"x_max":940,"o":"m 197 461 q 294 184 206 286 q 525 82 382 82 q 669 116 607 82 q 761 213 731 150 q 807 369 792 271 l 940 369 q 524 -32 894 -32 q 214 86 328 -32 q 67 494 67 238 q 208 903 67 749 q 529 1029 322 1029 q 919 699 860 1029 l 788 699 q 714 851 767 803 q 514 915 646 915 q 300 825 383 915 q 200 575 217 735 l 706 575 l 706 461 l 197 461 z "},"Ѕ":{"ha":926,"x_min":67,"x_max":863,"o":"m 828 715 l 706 715 q 639 867 704 814 q 453 921 574 921 q 288 874 350 921 q 226 750 226 826 q 264 658 226 692 q 393 600 301 625 l 647 532 q 806 438 750 504 q 863 278 863 371 q 833 149 863 213 q 751 46 803 86 q 467 -32 650 -32 q 126 113 232 -32 q 67 322 68 192 l 189 322 q 242 167 188 232 q 475 82 313 82 q 661 125 599 82 q 713 187 693 149 q 733 265 733 225 q 547 429 733 381 l 296 496 q 97 732 97 547 q 194 949 97 869 q 457 1029 290 1029 q 729 947 632 1029 q 828 715 826 864 z "},"І":{"ha":386,"x_min":139,"x_max":269,"o":"m 269 1013 l 269 0 l 139 0 l 139 1013 l 269 1013 z "},"Ї":{"ha":386,"x_min":11,"x_max":381,"o":"m 156 1261 l 156 1118 l 11 1118 l 11 1261 l 156 1261 m 381 1261 l 381 1118 l 236 1118 l 236 1261 l 381 1261 m 269 1013 l 269 0 l 139 0 l 139 1013 l 269 1013 z "},"Ј":{"ha":694,"x_min":24,"x_max":592,"o":"m 463 1013 l 592 1013 l 592 253 q 515 44 592 121 q 306 -32 438 -32 q 99 40 175 -32 q 24 236 24 113 l 24 325 l 156 325 l 156 260 q 194 124 156 171 q 307 76 233 76 q 431 139 390 76 q 463 300 463 186 l 463 1013 z "},"Љ":{"ha":1500,"x_min":115,"x_max":1419,"o":"m 713 0 l 713 899 l 400 899 q 400 822 400 875 q 401 694 403 761 q 397 557 399 626 q 388 419 396 488 q 367 290 379 351 q 333 175 356 228 q 283 83 311 122 q 211 22 254 44 q 115 0 168 0 l 115 131 q 258 415 229 131 q 269 957 271 547 q 269 1013 269 988 l 843 1013 l 843 576 l 1043 576 q 1419 289 1385 576 q 1342 85 1419 167 q 1121 0 1263 0 l 713 0 m 843 114 l 1108 114 q 1243 163 1199 114 q 1290 288 1290 213 q 1243 414 1290 364 q 1108 463 1199 463 l 843 463 l 843 114 z "},"Њ":{"ha":1408,"x_min":115,"x_max":1350,"o":"m 668 0 l 668 461 l 246 461 l 246 0 l 115 0 l 115 1013 l 244 1013 l 244 575 l 668 575 l 668 1013 l 797 1013 l 797 576 l 974 576 q 1350 289 1315 576 q 1272 85 1350 167 q 1051 0 1193 0 l 668 0 m 797 114 l 1039 114 q 1174 163 1129 114 q 1221 288 1221 213 q 1174 414 1221 364 q 1039 463 1129 463 l 797 463 l 797 114 z "},"Ћ":{"ha":1039,"x_min":29,"x_max":988,"o":"m 436 651 l 731 651 q 923 581 858 651 q 988 385 988 510 l 988 0 l 858 0 l 858 410 q 822 505 858 472 q 725 538 785 538 l 436 538 l 436 0 l 307 0 l 307 899 l 29 899 l 29 1013 l 713 1013 l 713 899 l 436 899 l 436 651 z "},"Ќ":{"ha":926,"x_min":110,"x_max":914,"o":"m 239 0 l 110 0 l 110 1013 l 239 1013 l 239 575 l 743 1013 l 910 1013 l 338 521 l 914 0 l 761 0 l 239 450 l 239 0 m 497 1274 l 654 1274 l 447 1068 l 364 1068 l 497 1274 z "},"Ѝ":{"ha":1003,"x_min":106,"x_max":897,"o":"m 106 1013 l 228 1013 l 228 185 l 757 1013 l 897 1013 l 897 0 l 775 0 l 775 821 l 251 0 l 106 0 l 106 1013 m 514 1274 l 647 1068 l 564 1068 l 357 1274 l 514 1274 z "},"Ў":{"ha":903,"x_min":36,"x_max":860,"o":"m 350 0 l 193 0 l 372 339 l 36 1013 l 193 1013 l 450 486 l 706 1013 l 860 1013 l 350 0 m 239 1256 l 321 1256 q 449 1164 331 1164 q 538 1188 504 1164 q 575 1256 571 1211 l 657 1256 q 446 1068 642 1068 q 268 1147 326 1068 q 239 1256 240 1186 z "},"Џ":{"ha":1003,"x_min":115,"x_max":896,"o":"m 561 0 l 561 -187 l 450 -187 l 450 0 l 115 0 l 115 1013 l 246 1013 l 246 114 l 765 114 l 765 1013 l 896 1013 l 896 0 l 561 0 z "},"ѐ":{"ha":772,"x_min":56,"x_max":713,"o":"m 349 1028 l 482 822 l 399 822 l 192 1028 l 349 1028 m 713 325 l 176 325 q 215 169 178 225 q 390 75 275 75 q 581 221 532 75 l 697 221 q 593 35 675 101 q 386 -32 511 -32 q 144 72 233 -32 q 56 354 56 175 q 147 641 56 533 q 389 749 238 749 q 570 697 492 749 q 683 557 649 646 q 713 325 713 481 m 179 419 l 588 419 q 589 428 589 422 q 531 580 589 518 q 388 642 472 642 q 243 581 300 642 q 179 419 186 521 z "},"ђ":{"ha":808,"x_min":21,"x_max":711,"o":"m 446 -199 l 446 -97 q 549 -64 504 -97 q 596 46 596 -31 l 596 450 q 549 560 596 526 q 446 593 504 593 q 303 526 357 593 q 249 347 249 458 l 249 0 l 133 0 l 133 817 l 21 817 l 21 914 l 133 914 l 133 1013 l 249 1013 l 249 914 l 513 914 l 513 817 l 249 817 l 249 574 q 352 667 300 640 q 482 694 404 694 q 649 641 588 694 q 711 496 711 588 l 711 0 q 649 -145 711 -92 q 482 -199 588 -199 l 446 -199 z "},"ѓ":{"ha":597,"x_min":97,"x_max":507,"o":"m 97 728 l 507 728 l 507 622 l 214 622 l 214 0 l 97 0 l 97 728 m 290 989 l 447 989 l 240 783 l 157 783 l 290 989 z "},"є":{"ha":694,"x_min":43,"x_max":663,"o":"m 478 322 l 164 322 q 224 140 171 206 q 368 75 278 75 q 546 250 517 75 l 663 250 q 574 42 651 117 q 365 -32 496 -32 q 130 72 217 -32 q 43 351 43 175 q 131 640 43 532 q 367 749 219 749 q 606 640 526 749 q 654 483 646 581 l 538 483 q 482 601 526 560 q 365 642 438 642 q 234 586 285 642 q 168 429 183 531 l 478 429 l 478 322 z "},"ѕ":{"ha":694,"x_min":47,"x_max":638,"o":"m 608 525 l 486 525 q 340 642 482 642 q 228 612 269 642 q 186 532 186 582 q 218 469 186 493 q 321 428 250 444 l 432 401 q 589 327 540 375 q 638 199 638 279 q 556 31 638 93 q 338 -32 475 -32 q 47 217 56 -32 l 169 217 q 203 124 178 151 q 347 75 249 75 q 470 106 424 75 q 517 189 517 138 q 490 253 517 229 q 404 290 464 276 l 296 317 q 116 394 167 347 q 65 526 65 440 q 142 688 65 628 q 344 749 218 749 q 539 690 471 749 q 608 525 607 632 z "},"і":{"ha":308,"x_min":92,"x_max":208,"o":"m 208 728 l 208 0 l 93 0 l 93 728 l 208 728 m 208 1013 l 208 867 l 92 867 l 92 1013 l 208 1013 z "},"ї":{"ha":386,"x_min":4,"x_max":374,"o":"m 149 983 l 149 840 l 4 840 l 4 983 l 149 983 m 374 983 l 374 840 l 229 840 l 229 983 l 374 983 m 247 728 l 247 0 l 131 0 l 131 728 l 247 728 z "},"ј":{"ha":308,"x_min":-25,"x_max":213,"o":"m 97 728 l 213 728 l 213 -151 q 14 -303 213 -303 q -25 -299 -4 -303 l -25 -200 q 3 -201 -1 -201 q 76 -181 56 -201 q 97 -106 97 -160 l 97 728 m 213 1013 l 213 867 l 97 867 l 97 1013 l 213 1013 z "},"љ":{"ha":1228,"x_min":97,"x_max":1132,"o":"m 560 0 l 560 622 l 321 622 q 321 533 322 582 q 319 433 319 485 q 312 330 318 382 q 297 230 306 278 q 270 140 288 182 q 230 67 253 97 q 173 18 207 36 q 97 0 139 0 l 97 111 q 143 131 124 111 q 174 198 163 150 q 192 288 185 246 q 201 415 199 331 q 205 550 204 499 q 206 704 206 601 q 206 728 206 719 l 675 728 l 675 474 l 832 474 q 1132 232 1132 474 q 1067 65 1132 131 q 900 0 1001 0 l 560 0 m 675 106 l 847 106 q 972 138 939 106 q 1006 228 1006 171 q 967 335 1006 301 q 847 368 928 368 l 675 368 l 675 106 z "},"њ":{"ha":1229,"x_min":97,"x_max":1133,"o":"m 561 0 l 561 324 l 214 324 l 214 0 l 97 0 l 97 728 l 214 728 l 214 429 l 561 429 l 561 728 l 676 728 l 676 474 l 833 474 q 1133 232 1133 474 q 1068 65 1133 131 q 901 0 1003 0 l 561 0 m 676 106 l 849 106 q 974 138 940 106 q 1007 228 1007 171 q 968 335 1007 301 q 849 368 929 368 l 676 368 l 676 106 z "},"ћ":{"ha":808,"x_min":21,"x_max":711,"o":"m 133 914 l 133 1013 l 249 1013 l 249 914 l 513 914 l 513 817 l 249 817 l 249 574 q 352 667 300 640 q 482 694 404 694 q 649 641 588 694 q 711 496 711 588 l 711 0 l 596 0 l 596 450 q 549 560 596 526 q 446 593 504 593 q 303 526 357 593 q 249 347 249 458 l 249 0 l 133 0 l 133 817 l 21 817 l 21 914 l 133 914 z "},"ќ":{"ha":694,"x_min":81,"x_max":697,"o":"m 196 728 l 196 419 l 504 728 l 653 728 l 275 367 l 697 0 l 554 0 l 196 300 l 196 0 l 81 0 l 81 728 l 196 728 m 354 989 l 511 989 l 304 783 l 221 783 l 354 989 z "},"ѝ":{"ha":772,"x_min":97,"x_max":676,"o":"m 97 728 l 214 728 l 214 154 l 540 728 l 676 728 l 676 0 l 561 0 l 561 574 l 235 0 l 97 0 l 97 728 m 399 989 l 532 783 l 449 783 l 242 989 l 399 989 z "},"ў":{"ha":694,"x_min":28,"x_max":664,"o":"m 136 971 l 218 971 q 346 879 228 879 q 435 903 401 879 q 472 971 468 926 l 554 971 q 343 783 539 783 q 165 863 224 783 q 136 971 138 901 m 539 728 l 664 728 l 340 -153 q 261 -268 310 -232 q 153 -303 214 -303 q 75 -285 110 -303 l 75 -181 q 136 -189 113 -189 q 194 -173 172 -189 q 229 -118 215 -157 l 274 -3 l 28 728 l 151 728 l 338 161 l 539 728 z "},"џ":{"ha":772,"x_min":97,"x_max":678,"o":"m 436 0 l 436 -167 l 339 -167 l 339 0 l 97 0 l 97 728 l 214 728 l 214 106 l 561 106 l 561 728 l 678 728 l 678 0 l 436 0 z "},"Ҍ":{"ha":926,"x_min":-14,"x_max":865,"o":"m 239 114 l 554 114 q 689 163 644 114 q 736 288 736 213 q 689 414 736 364 q 554 463 644 463 l 239 463 l 239 114 m 239 846 l 367 846 l 367 749 l 239 749 l 239 576 l 489 576 q 865 289 831 576 q 788 85 865 167 q 567 0 708 0 l 110 0 l 110 749 l -14 749 l -14 846 l 110 846 l 110 1013 l 239 1013 l 239 846 z "},"ҍ":{"ha":767,"x_min":11,"x_max":678,"o":"m 214 106 l 425 106 q 521 142 489 106 q 551 204 551 172 q 551 240 551 229 q 543 267 550 251 q 521 293 536 283 q 425 321 478 321 l 214 321 l 214 106 m 97 628 l 97 728 l 214 728 l 214 628 l 314 628 l 314 531 l 214 531 l 214 426 l 378 426 q 606 374 533 426 q 678 208 678 321 q 621 61 678 122 q 463 0 564 0 l 97 0 l 97 531 l 11 531 l 11 628 l 97 628 z "},"Ҏ":{"ha":926,"x_min":126,"x_max":857,"o":"m 679 600 q 722 721 722 646 q 670 851 722 804 q 525 899 618 899 l 256 899 l 256 543 l 525 543 q 590 550 558 543 l 515 625 l 585 694 l 679 600 m 690 451 q 574 429 640 429 l 256 429 l 256 0 l 126 0 l 126 1013 l 544 1013 q 776 935 694 1013 q 857 715 857 858 q 774 506 857 583 l 854 425 l 785 356 l 690 451 z "},"ҏ":{"ha":772,"x_min":75,"x_max":728,"o":"m 553 160 q 606 354 606 236 q 548 563 606 485 q 394 640 490 640 q 247 563 303 640 q 192 358 192 486 q 247 153 192 231 q 394 76 303 76 q 479 96 440 76 l 390 185 l 458 254 l 553 160 m 640 72 l 728 -15 l 660 -85 l 567 8 q 415 -32 501 -32 q 192 76 281 -32 l 192 -303 l 75 -303 l 75 728 l 182 728 l 182 618 q 414 749 264 749 q 642 642 558 749 q 726 351 726 535 q 640 72 726 175 z "},"Ґ":{"ha":849,"x_min":125,"x_max":804,"o":"m 254 0 l 125 0 l 125 1013 l 675 1013 l 675 1146 l 804 1146 l 804 899 l 254 899 l 254 0 z "},"ґ":{"ha":597,"x_min":97,"x_max":507,"o":"m 97 728 l 390 728 l 390 874 l 507 874 l 507 622 l 214 622 l 214 0 l 97 0 l 97 728 z "},"Ғ":{"ha":849,"x_min":6,"x_max":789,"o":"m 239 685 l 386 685 l 386 588 l 239 588 l 239 0 l 110 0 l 110 588 l 6 588 l 6 685 l 110 685 l 110 1013 l 789 1013 l 789 899 l 239 899 l 239 685 z "},"ғ":{"ha":597,"x_min":11,"x_max":528,"o":"m 97 456 l 97 728 l 528 728 l 528 622 l 214 622 l 214 456 l 308 456 l 308 358 l 214 358 l 214 0 l 97 0 l 97 358 l 11 358 l 11 456 l 97 456 z "},"Ҕ":{"ha":849,"x_min":125,"x_max":804,"o":"m 254 0 l 125 0 l 125 1013 l 804 1013 l 804 899 l 254 899 l 254 651 l 493 651 q 685 581 621 651 q 750 385 750 510 l 750 25 q 685 -171 750 -100 q 493 -242 621 -242 l 421 -242 l 421 -128 l 488 -128 q 584 -95 547 -128 q 621 0 621 -62 l 621 410 q 584 505 621 472 q 488 538 547 538 l 254 538 l 254 0 z "},"ҕ":{"ha":681,"x_min":97,"x_max":593,"o":"m 214 622 l 214 365 q 281 459 236 432 q 406 486 326 486 q 550 435 507 486 q 593 288 593 385 l 593 0 q 531 -145 593 -92 q 364 -199 469 -199 l 328 -199 l 328 -97 q 431 -64 386 -97 q 478 46 478 -31 l 478 242 q 453 353 478 321 q 369 385 428 385 q 249 322 285 385 q 214 139 214 258 l 214 0 l 97 0 l 97 728 l 507 728 l 507 622 l 214 622 z "},"Җ":{"ha":1421,"x_min":88,"x_max":1317,"o":"m 1228 103 l 1317 103 l 1317 -187 l 1206 -187 l 1206 0 l 1164 0 l 767 450 l 767 0 l 638 0 l 638 450 l 240 0 l 88 0 l 539 521 l 140 1013 l 307 1013 l 638 585 l 638 1013 l 767 1013 l 767 585 l 1097 1013 l 1264 1013 l 865 521 l 1228 103 z "},"җ":{"ha":1163,"x_min":19,"x_max":1138,"o":"m 1035 89 l 1138 89 l 1138 -167 l 1040 -167 l 1040 0 l 994 0 l 636 300 l 636 0 l 521 0 l 521 300 l 163 0 l 19 0 l 442 367 l 64 728 l 213 728 l 521 419 l 521 728 l 636 728 l 636 419 l 944 728 l 1093 728 l 715 367 l 1035 89 z "},"Ҙ":{"ha":926,"x_min":67,"x_max":863,"o":"m 521 -31 q 596 -154 596 -78 q 508 -267 596 -233 q 413 -285 458 -285 q 307 -271 374 -285 l 307 -208 q 394 -222 343 -222 q 494 -147 494 -222 q 477 -85 494 -111 q 414 -31 460 -60 q 126 113 219 -14 q 67 322 68 192 l 189 322 q 242 167 188 232 q 475 82 313 82 q 661 125 599 82 q 713 187 693 149 q 733 265 733 225 q 667 388 733 329 q 507 446 600 446 l 357 446 l 357 560 l 479 560 q 633 623 567 560 q 699 750 699 686 q 637 874 699 826 q 472 921 575 921 q 286 867 351 921 q 219 715 221 814 l 97 715 q 196 947 99 864 q 468 1029 293 1029 q 731 949 635 1029 q 828 732 828 869 q 682 519 828 582 q 863 278 863 451 q 833 149 863 213 q 751 46 803 86 q 521 -31 667 -18 z "},"ҙ":{"ha":694,"x_min":47,"x_max":638,"o":"m 390 -29 q 465 -154 465 -81 q 378 -267 465 -233 q 282 -285 328 -285 q 176 -271 243 -285 l 176 -208 q 264 -222 213 -222 q 364 -147 364 -222 q 346 -85 364 -111 q 282 -29 328 -58 q 47 217 56 -8 l 169 217 q 203 124 178 151 q 347 75 249 75 q 467 106 422 75 q 511 189 511 138 q 470 269 511 232 q 369 307 429 307 l 267 307 l 267 413 l 353 413 q 453 449 419 413 q 488 532 488 486 q 446 612 488 582 q 333 642 404 642 q 188 525 192 642 l 65 525 q 135 690 67 632 q 329 749 203 749 q 532 688 456 749 q 608 526 608 628 q 518 371 608 422 q 638 199 638 318 q 572 43 638 104 q 390 -29 506 -18 z "},"Қ":{"ha":926,"x_min":110,"x_max":863,"o":"m 761 103 l 863 103 l 863 -187 l 751 -187 l 751 0 l 690 0 l 239 463 l 239 0 l 110 0 l 110 1013 l 239 1013 l 239 588 l 663 1013 l 817 1013 l 338 533 l 761 103 z "},"қ":{"ha":708,"x_min":97,"x_max":672,"o":"m 583 89 l 672 89 l 672 -167 l 575 -167 l 575 0 l 525 0 l 213 314 l 213 0 l 97 0 l 97 728 l 213 728 l 213 433 l 507 728 l 640 728 l 292 381 l 583 89 z "},"Ҝ":{"ha":926,"x_min":110,"x_max":922,"o":"m 306 393 l 239 450 l 239 0 l 110 0 l 110 1013 l 239 1013 l 239 575 l 306 633 l 306 824 l 403 824 l 403 717 l 743 1013 l 910 1013 l 403 576 l 403 463 l 922 0 l 761 0 l 403 308 l 403 221 l 306 221 l 306 393 z "},"ҝ":{"ha":694,"x_min":81,"x_max":697,"o":"m 264 243 l 196 300 l 196 0 l 81 0 l 81 728 l 196 728 l 196 419 l 264 488 l 264 636 l 361 636 l 361 585 l 504 728 l 653 728 l 361 449 l 361 292 l 697 0 l 554 0 l 361 161 l 361 103 l 264 103 l 264 243 z "},"Ҟ":{"ha":926,"x_min":-8,"x_max":914,"o":"m 239 865 l 372 865 l 372 768 l 239 768 l 239 575 l 743 1013 l 910 1013 l 338 521 l 914 0 l 761 0 l 239 450 l 239 0 l 110 0 l 110 768 l -8 768 l -8 865 l 110 865 l 110 1013 l 239 1013 l 239 865 z "},"ҟ":{"ha":694,"x_min":-3,"x_max":697,"o":"m 81 664 l 81 728 l 196 728 l 196 664 l 294 664 l 294 567 l 196 567 l 196 419 l 504 728 l 653 728 l 275 367 l 697 0 l 554 0 l 196 300 l 196 0 l 81 0 l 81 567 l -3 567 l -3 664 l 81 664 z "},"Ҡ":{"ha":1250,"x_min":113,"x_max":1238,"o":"m 433 899 l 113 899 l 113 1013 l 563 1013 l 563 575 l 1067 1013 l 1233 1013 l 661 521 l 1238 0 l 1085 0 l 563 450 l 563 0 l 433 0 l 433 899 z "},"ҡ":{"ha":949,"x_min":79,"x_max":951,"o":"m 335 622 l 79 622 l 79 728 l 450 728 l 450 419 l 758 728 l 907 728 l 529 367 l 951 0 l 808 0 l 450 300 l 450 0 l 335 0 l 335 622 z "},"Ң":{"ha":1003,"x_min":115,"x_max":988,"o":"m 894 103 l 988 103 l 988 -187 l 876 -187 l 876 0 l 764 0 l 764 461 l 246 461 l 246 0 l 115 0 l 115 1013 l 244 1013 l 244 575 l 764 575 l 764 1013 l 894 1013 l 894 103 z "},"ң":{"ha":772,"x_min":97,"x_max":761,"o":"m 678 89 l 761 89 l 761 -167 l 664 -167 l 664 0 l 561 0 l 561 324 l 214 324 l 214 0 l 97 0 l 97 728 l 214 728 l 214 429 l 561 429 l 561 728 l 678 728 l 678 89 z "},"Ҥ":{"ha":1389,"x_min":115,"x_max":1344,"o":"m 894 0 l 764 0 l 764 461 l 246 461 l 246 0 l 115 0 l 115 1013 l 244 1013 l 244 575 l 764 575 l 764 1013 l 1344 1013 l 1344 899 l 894 899 l 894 0 z "},"ҥ":{"ha":1061,"x_min":97,"x_max":971,"o":"m 678 0 l 561 0 l 561 324 l 214 324 l 214 0 l 97 0 l 97 728 l 214 728 l 214 429 l 561 429 l 561 728 l 971 728 l 971 622 l 678 622 l 678 0 z "},"Ҧ":{"ha":1474,"x_min":115,"x_max":1390,"o":"m 894 1013 l 894 651 l 1133 651 q 1326 581 1261 651 q 1390 385 1390 510 l 1390 25 q 1326 -171 1390 -100 q 1133 -242 1261 -242 l 1061 -242 l 1061 -128 l 1128 -128 q 1224 -95 1188 -128 q 1261 0 1261 -62 l 1261 410 q 1224 505 1261 472 q 1128 538 1188 538 l 894 538 l 894 0 l 764 0 l 764 899 l 246 899 l 246 0 l 115 0 l 115 1013 l 894 1013 z "},"ҧ":{"ha":1147,"x_min":97,"x_max":1056,"o":"m 676 728 l 676 365 q 744 459 699 432 q 868 486 789 486 q 1013 435 969 486 q 1056 288 1056 385 l 1056 0 q 994 -145 1056 -92 q 826 -199 932 -199 l 790 -199 l 790 -97 q 893 -64 849 -97 q 940 46 940 -31 l 940 242 q 915 353 940 321 q 832 385 890 385 q 712 322 747 385 q 676 139 676 258 l 676 0 l 560 0 l 560 622 l 214 622 l 214 0 l 97 0 l 97 728 l 676 728 z "},"Ҩ":{"ha":1003,"x_min":67,"x_max":981,"o":"m 525 82 q 703 142 632 82 q 603 421 603 256 q 651 564 603 500 q 772 628 700 628 q 893 574 846 628 q 940 422 940 519 q 876 154 940 264 q 981 81 928 115 l 906 -25 q 796 56 824 33 q 524 -32 689 -32 q 214 86 328 -32 q 67 494 67 238 q 208 903 67 749 q 529 1029 322 1029 q 919 699 860 1029 l 788 699 q 714 851 767 803 q 514 915 646 915 q 281 803 367 915 q 196 496 196 690 q 285 194 196 306 q 525 82 374 82 m 781 256 q 810 422 810 329 q 774 499 810 499 q 733 421 733 499 q 781 256 733 326 z "},"ҩ":{"ha":694,"x_min":43,"x_max":674,"o":"m 604 79 q 674 60 631 69 l 642 -29 q 531 13 578 -14 q 365 -32 461 -32 q 130 72 217 -32 q 43 351 43 175 q 131 640 43 532 q 367 749 219 749 q 606 640 526 749 q 654 483 646 581 l 538 483 q 482 601 526 560 q 365 642 438 642 q 217 565 271 642 q 164 351 164 488 q 218 149 164 222 q 368 75 272 75 q 438 88 406 75 q 378 264 378 164 q 421 379 378 333 q 515 425 464 425 q 619 376 575 425 q 663 264 663 328 q 604 79 663 154 m 513 150 q 546 264 546 197 q 514 347 546 347 q 486 261 486 347 q 513 150 486 194 z "},"Ҫ":{"ha":1003,"x_min":67,"x_max":940,"o":"m 463 -29 q 214 86 311 -15 q 67 494 67 238 q 208 903 67 749 q 529 1029 322 1029 q 919 699 860 1029 l 788 699 q 714 851 767 803 q 514 915 646 915 q 281 803 367 915 q 196 496 196 690 q 285 194 196 306 q 525 82 374 82 q 669 116 607 82 q 761 213 731 150 q 807 369 792 271 l 940 369 q 572 -31 896 -6 q 646 -154 646 -81 q 558 -267 646 -233 q 463 -285 508 -285 q 357 -271 424 -285 l 357 -208 q 444 -222 393 -222 q 544 -147 544 -222 q 526 -85 544 -111 q 463 -29 508 -58 z "},"ҫ":{"ha":694,"x_min":43,"x_max":663,"o":"m 307 -28 q 114 94 185 -7 q 43 351 43 194 q 131 640 43 532 q 367 749 219 749 q 606 640 526 749 q 654 483 646 581 l 538 483 q 482 601 526 560 q 365 642 438 642 q 217 565 271 642 q 164 351 164 488 q 218 149 164 222 q 368 75 272 75 q 546 250 517 75 l 663 250 q 589 58 653 131 q 417 -29 525 -14 q 493 -154 493 -79 q 406 -267 493 -233 q 310 -285 356 -285 q 204 -271 271 -285 l 204 -208 q 292 -222 240 -222 q 392 -147 392 -222 q 374 -83 392 -110 q 307 -28 356 -57 z "},"Ҭ":{"ha":849,"x_min":29,"x_max":824,"o":"m 492 103 l 585 103 l 585 -187 l 474 -187 l 474 0 l 363 0 l 363 899 l 29 899 l 29 1013 l 824 1013 l 824 899 l 492 899 l 492 103 z "},"ҭ":{"ha":689,"x_min":83,"x_max":600,"o":"m 400 89 l 483 89 l 483 -167 l 386 -167 l 386 0 l 283 0 l 283 622 l 83 622 l 83 728 l 600 728 l 600 622 l 400 622 l 400 89 z "},"Ү":{"ha":926,"x_min":18,"x_max":918,"o":"m 538 397 l 538 0 l 408 0 l 408 397 l 18 1013 l 178 1013 l 475 519 l 764 1013 l 918 1013 l 538 397 z "},"ү":{"ha":926,"x_min":74,"x_max":863,"o":"m 538 119 l 538 -278 l 408 -278 l 408 119 l 74 728 l 233 728 l 475 242 l 708 728 l 863 728 l 538 119 z "},"Ұ":{"ha":926,"x_min":18,"x_max":918,"o":"m 408 264 l 103 264 l 103 361 l 408 361 l 408 397 l 18 1013 l 178 1013 l 475 519 l 764 1013 l 918 1013 l 538 397 l 538 361 l 843 361 l 843 264 l 538 264 l 538 0 l 408 0 l 408 264 z "},"ұ":{"ha":926,"x_min":74,"x_max":863,"o":"m 538 119 l 843 119 l 843 22 l 538 22 l 538 -278 l 408 -278 l 408 22 l 103 22 l 103 119 l 408 119 l 74 728 l 233 728 l 475 242 l 708 728 l 863 728 l 538 119 z "},"Ҳ":{"ha":926,"x_min":31,"x_max":901,"o":"m 831 103 l 901 103 l 901 -187 l 790 -187 l 790 0 l 742 0 l 465 422 l 188 0 l 31 0 l 389 519 l 53 1013 l 210 1013 l 469 615 l 731 1013 l 885 1013 l 543 519 l 831 103 z "},"ҳ":{"ha":694,"x_min":24,"x_max":657,"o":"m 597 89 l 657 89 l 657 -167 l 560 -167 l 560 0 l 522 0 l 340 279 l 156 0 l 24 0 l 281 371 l 38 728 l 169 728 l 344 464 l 519 728 l 650 728 l 406 376 l 597 89 z "},"Ҵ":{"ha":1308,"x_min":29,"x_max":1256,"o":"m 479 899 l 479 114 l 997 114 l 997 1013 l 1128 1013 l 1128 103 l 1256 103 l 1256 -187 l 1144 -187 l 1144 0 l 349 0 l 349 899 l 29 899 l 29 1013 l 794 1013 l 794 899 l 479 899 z "},"ҵ":{"ha":1017,"x_min":83,"x_max":961,"o":"m 269 622 l 83 622 l 83 728 l 572 728 l 572 622 l 386 622 l 386 106 l 732 106 l 732 728 l 849 728 l 849 89 l 961 89 l 961 -167 l 864 -167 l 864 0 l 269 0 l 269 622 z "},"Ҷ":{"ha":900,"x_min":110,"x_max":883,"o":"m 790 103 l 883 103 l 883 -187 l 772 -187 l 772 0 l 661 0 l 661 361 l 367 361 q 174 432 239 361 q 110 628 110 503 l 110 1013 l 239 1013 l 239 603 q 276 508 239 540 q 372 475 313 475 l 661 475 l 661 1013 l 790 1013 l 790 103 z "},"ҷ":{"ha":722,"x_min":97,"x_max":710,"o":"m 613 0 l 508 0 l 508 265 l 313 265 q 160 318 222 265 q 97 464 97 371 l 97 728 l 214 728 l 214 468 q 308 371 214 371 l 508 371 l 508 728 l 625 728 l 625 89 l 710 89 l 710 -167 l 613 -167 l 613 0 z "},"Ҹ":{"ha":900,"x_min":110,"x_max":790,"o":"m 410 475 l 410 665 l 507 665 l 507 475 l 661 475 l 661 1013 l 790 1013 l 790 0 l 661 0 l 661 361 l 507 361 l 507 188 l 410 188 l 410 361 l 367 361 q 174 432 239 361 q 110 628 110 503 l 110 1013 l 239 1013 l 239 603 q 276 508 239 540 q 372 475 313 475 l 410 475 z "},"ҹ":{"ha":722,"x_min":97,"x_max":625,"o":"m 319 265 l 313 265 q 160 318 222 265 q 97 464 97 371 l 97 728 l 214 728 l 214 468 q 308 371 214 371 l 319 371 l 319 514 l 417 514 l 417 371 l 508 371 l 508 728 l 625 728 l 625 0 l 508 0 l 508 265 l 417 265 l 417 136 l 319 136 l 319 265 z "},"Һ":{"ha":900,"x_min":110,"x_max":790,"o":"m 239 651 l 533 651 q 726 581 661 651 q 790 385 790 510 l 790 0 l 661 0 l 661 410 q 624 505 661 472 q 528 538 588 538 l 239 538 l 239 0 l 110 0 l 110 1013 l 239 1013 l 239 651 z "},"һ":{"ha":722,"x_min":97,"x_max":625,"o":"m 625 0 l 508 0 l 508 260 q 414 357 508 357 l 214 357 l 214 0 l 97 0 l 97 728 l 214 728 l 214 463 l 410 463 q 563 410 500 463 q 625 264 625 357 l 625 0 z "},"Ҽ":{"ha":1288,"x_min":65,"x_max":1225,"o":"m 1075 647 q 1044 785 1058 757 q 952 881 1014 847 q 808 915 890 915 q 608 844 689 915 q 496 647 526 774 l 1075 647 m 350 533 q 137 617 208 536 q 65 814 65 699 q 119 987 65 922 q 260 1051 172 1051 q 403 988 357 1051 q 432 893 428 950 l 363 893 q 260 988 350 988 q 171 942 203 988 q 139 814 139 896 q 172 692 139 736 q 261 647 204 647 l 364 647 q 497 911 396 808 q 807 1029 611 1029 q 1224 539 1222 1029 l 1225 533 l 1224 533 l 1090 533 l 481 533 q 479 501 479 522 q 565 194 479 307 q 797 82 650 82 q 997 146 929 82 q 1071 299 1050 194 l 1203 299 q 813 -32 1143 -32 q 492 94 606 -32 q 350 503 350 249 l 350 533 z "},"ҽ":{"ha":994,"x_min":58,"x_max":935,"o":"m 401 419 l 810 419 q 811 428 811 422 q 753 580 811 518 q 610 642 694 642 q 465 581 522 642 q 401 419 408 521 m 278 325 q 113 388 168 326 q 58 531 58 450 q 94 646 58 603 q 188 689 129 689 q 283 646 251 689 q 303 583 299 625 l 256 583 q 188 647 247 647 q 128 616 149 647 q 107 531 107 585 q 128 449 107 479 q 188 419 150 419 l 281 419 q 385 660 297 571 q 611 749 474 749 q 792 697 714 749 q 906 557 871 646 q 935 325 935 481 l 399 325 q 438 169 400 225 q 613 75 497 75 q 803 221 754 75 l 919 221 q 815 35 897 101 q 608 -32 733 -32 q 374 63 461 -32 q 278 325 286 158 z "},"Ҿ":{"ha":1288,"x_min":65,"x_max":1225,"o":"m 1075 647 q 1044 785 1058 757 q 952 881 1014 847 q 808 915 890 915 q 608 844 689 915 q 496 647 526 774 l 1075 647 m 753 -29 q 492 94 588 -12 q 350 503 350 249 l 350 533 q 137 617 208 536 q 65 814 65 699 q 119 987 65 922 q 260 1051 172 1051 q 403 988 357 1051 q 432 893 428 950 l 363 893 q 260 988 350 988 q 171 942 203 988 q 139 814 139 896 q 172 692 139 736 q 261 647 204 647 l 364 647 q 497 911 396 808 q 807 1029 611 1029 q 1224 539 1222 1029 l 1225 533 l 1224 533 l 1090 533 l 481 533 q 479 501 479 522 q 565 194 479 307 q 797 82 650 82 q 997 146 929 82 q 1071 299 1050 194 l 1203 299 q 863 -31 1147 -8 q 936 -154 936 -81 q 849 -267 936 -233 q 753 -285 799 -285 q 647 -271 714 -285 l 647 -208 q 735 -222 683 -222 q 835 -147 835 -222 q 817 -85 835 -111 q 753 -29 799 -58 z "},"ҿ":{"ha":994,"x_min":58,"x_max":935,"o":"m 401 419 l 810 419 q 811 428 811 422 q 753 580 811 518 q 610 642 694 642 q 465 581 522 642 q 401 419 408 521 m 542 -26 q 354 86 424 -6 q 278 325 285 178 q 113 388 168 326 q 58 531 58 450 q 94 646 58 603 q 188 689 129 689 q 283 646 251 689 q 303 583 299 625 l 256 583 q 188 647 247 647 q 128 616 149 647 q 107 531 107 585 q 128 449 107 479 q 188 419 150 419 l 281 419 q 385 660 297 571 q 611 749 474 749 q 792 697 714 749 q 906 557 871 646 q 935 325 935 481 l 399 325 q 438 169 400 225 q 613 75 497 75 q 803 221 754 75 l 919 221 q 830 48 900 114 q 654 -29 760 -18 q 729 -154 729 -78 q 642 -267 729 -233 q 546 -285 592 -285 q 440 -271 507 -285 l 440 -208 q 528 -222 476 -222 q 628 -147 628 -222 q 609 -84 628 -111 q 542 -26 590 -57 z "},"Ӏ":{"ha":386,"x_min":139,"x_max":269,"o":"m 269 1013 l 269 0 l 139 0 l 139 1013 l 269 1013 z "},"Ӂ":{"ha":1421,"x_min":88,"x_max":1317,"o":"m 638 450 l 240 0 l 88 0 l 539 521 l 140 1013 l 307 1013 l 638 585 l 638 1013 l 767 1013 l 767 585 l 1097 1013 l 1264 1013 l 865 521 l 1317 0 l 1164 0 l 767 450 l 767 0 l 638 0 l 638 450 m 493 1256 l 575 1256 q 703 1164 586 1164 q 792 1188 758 1164 q 829 1256 825 1211 l 911 1256 q 700 1068 896 1068 q 522 1147 581 1068 q 493 1256 494 1186 z "},"ӂ":{"ha":1163,"x_min":19,"x_max":1138,"o":"m 521 300 l 163 0 l 19 0 l 442 367 l 64 728 l 213 728 l 521 419 l 521 728 l 636 728 l 636 419 l 944 728 l 1093 728 l 715 367 l 1138 0 l 994 0 l 636 300 l 636 0 l 521 0 l 521 300 m 369 971 l 451 971 q 579 879 461 879 q 668 903 635 879 q 706 971 701 926 l 788 971 q 576 783 772 783 q 399 863 457 783 q 369 971 371 901 z "},"Ӄ":{"ha":926,"x_min":110,"x_max":910,"o":"m 592 521 q 784 450 719 521 q 849 254 849 379 l 849 25 q 784 -171 849 -100 q 592 -242 719 -242 l 519 -242 l 519 -128 l 586 -128 q 683 -95 646 -128 q 719 0 719 -62 l 719 279 q 683 374 719 342 q 586 407 646 407 l 239 407 l 239 0 l 110 0 l 110 1013 l 239 1013 l 239 575 l 743 1013 l 910 1013 l 338 521 l 592 521 z "},"ӄ":{"ha":694,"x_min":81,"x_max":653,"o":"m 346 267 l 196 267 l 196 0 l 81 0 l 81 728 l 196 728 l 196 419 l 504 728 l 653 728 l 275 367 l 382 368 q 549 315 488 368 q 611 169 611 261 l 611 0 q 549 -145 611 -92 q 382 -199 488 -199 l 346 -199 l 346 -97 q 449 -64 404 -97 q 496 46 496 -31 l 496 124 q 449 233 496 200 q 346 267 404 267 z "},"Ӈ":{"ha":1003,"x_min":115,"x_max":894,"o":"m 764 0 l 764 461 l 246 461 l 246 0 l 115 0 l 115 1013 l 244 1013 l 244 575 l 764 575 l 764 1013 l 894 1013 l 894 25 q 829 -171 894 -100 q 636 -242 764 -242 l 564 -242 l 564 -128 l 631 -128 q 727 -95 690 -128 q 764 0 764 -62 z "},"ӈ":{"ha":772,"x_min":97,"x_max":678,"o":"m 678 0 q 616 -145 678 -92 q 449 -199 554 -199 l 413 -199 l 413 -97 q 515 -64 471 -97 q 561 46 561 -32 l 561 324 l 214 324 l 214 0 l 97 0 l 97 728 l 214 728 l 214 429 l 561 429 l 561 728 l 678 728 l 678 0 z "},"Ӌ":{"ha":900,"x_min":110,"x_max":790,"o":"m 679 0 l 679 -187 l 568 -187 l 568 103 l 661 103 l 661 361 l 367 361 q 174 432 239 361 q 110 628 110 503 l 110 1013 l 239 1013 l 239 603 q 276 508 239 540 q 372 475 313 475 l 661 475 l 661 1013 l 790 1013 l 790 0 l 679 0 z "},"ӌ":{"ha":722,"x_min":97,"x_max":625,"o":"m 521 0 l 521 -167 l 424 -167 l 424 89 l 508 89 l 508 265 l 313 265 q 160 318 222 265 q 97 464 97 371 l 97 728 l 214 728 l 214 468 q 308 371 214 371 l 508 371 l 508 728 l 625 728 l 625 0 l 521 0 z "},"Ӑ":{"ha":926,"x_min":24,"x_max":907,"o":"m 257 1256 l 339 1256 q 467 1164 350 1164 q 556 1188 522 1164 q 593 1256 589 1211 l 675 1256 q 464 1068 660 1068 q 286 1147 344 1068 q 257 1256 258 1186 m 658 304 l 268 304 l 161 0 l 24 0 l 385 1013 l 551 1013 l 907 0 l 763 0 l 658 304 m 622 413 l 467 874 l 300 413 l 622 413 z "},"ӑ":{"ha":772,"x_min":58,"x_max":743,"o":"m 164 971 l 246 971 q 374 879 256 879 q 463 903 429 879 q 500 971 496 926 l 582 971 q 371 783 567 783 q 193 863 251 783 q 164 971 165 901 m 743 68 l 743 -19 q 664 -32 694 -32 q 580 -6 608 -32 q 544 75 551 19 q 297 -32 428 -32 q 123 26 188 -32 q 58 183 58 85 q 186 378 58 325 q 260 399 221 392 q 419 422 299 407 q 514 449 488 431 q 540 503 540 467 l 540 533 q 498 614 540 586 q 378 642 456 642 q 256 610 297 642 q 207 513 214 579 l 90 513 q 140 664 94 613 q 382 749 217 749 q 586 698 517 749 q 656 550 656 647 l 656 122 q 718 65 656 65 q 743 68 731 65 m 540 229 l 540 360 q 354 319 494 339 q 220 274 261 306 q 179 186 179 243 q 217 100 179 131 q 322 69 254 69 q 494 135 422 69 q 540 229 540 176 z "},"Ӓ":{"ha":926,"x_min":24,"x_max":907,"o":"m 425 1211 l 425 1068 l 281 1068 l 281 1211 l 425 1211 m 650 1211 l 650 1068 l 506 1068 l 506 1211 l 650 1211 m 658 304 l 268 304 l 161 0 l 24 0 l 385 1013 l 551 1013 l 907 0 l 763 0 l 658 304 m 622 413 l 467 874 l 300 413 l 622 413 z "},"ӓ":{"ha":772,"x_min":58,"x_max":743,"o":"m 333 926 l 333 783 l 189 783 l 189 926 l 333 926 m 558 926 l 558 783 l 414 783 l 414 926 l 558 926 m 743 68 l 743 -19 q 664 -32 694 -32 q 580 -6 608 -32 q 544 75 551 19 q 297 -32 428 -32 q 123 26 188 -32 q 58 183 58 85 q 186 378 58 325 q 260 399 221 392 q 419 422 299 407 q 514 449 488 431 q 540 503 540 467 l 540 533 q 498 614 540 586 q 378 642 456 642 q 256 610 297 642 q 207 513 214 579 l 90 513 q 140 664 94 613 q 382 749 217 749 q 586 698 517 749 q 656 550 656 647 l 656 122 q 718 65 656 65 q 743 68 731 65 m 540 229 l 540 360 q 354 319 494 339 q 220 274 261 306 q 179 186 179 243 q 217 100 179 131 q 322 69 254 69 q 494 135 422 69 q 540 229 540 176 z "},"Ӕ":{"ha":1389,"x_min":15,"x_max":1319,"o":"m 650 297 l 276 297 l 158 0 l 15 0 l 431 1013 l 1294 1013 l 1294 899 l 779 899 l 779 575 l 1268 575 l 1268 461 l 779 461 l 779 114 l 1319 114 l 1319 0 l 650 0 l 650 297 m 650 411 l 650 899 l 511 899 l 319 411 l 650 411 z "},"ӕ":{"ha":1235,"x_min":47,"x_max":1174,"o":"m 1043 221 l 1160 221 q 1056 35 1138 103 q 850 -32 974 -32 q 704 -1 769 -32 q 603 83 639 29 q 581 121 597 92 q 433 4 503 40 q 281 -32 363 -32 q 111 26 175 -32 q 47 183 47 85 q 176 378 47 324 q 408 421 243 407 q 504 444 479 426 q 529 503 529 463 l 529 533 q 365 642 529 642 q 196 513 210 642 l 79 513 q 129 664 83 613 q 368 749 206 749 q 611 635 546 749 q 713 718 649 688 q 851 749 776 749 q 1031 697 953 749 q 1144 557 1108 646 q 1174 325 1174 481 l 638 325 q 676 169 639 225 q 851 75 736 75 q 1043 221 992 75 m 529 218 l 529 358 q 343 318 483 339 q 208 274 249 304 q 168 186 168 243 q 206 101 168 132 q 307 69 243 69 q 461 122 392 69 q 529 218 529 175 m 640 419 l 1049 419 q 993 580 1049 518 q 849 642 938 642 q 704 581 761 642 q 640 419 647 521 z "},"Ӗ":{"ha":926,"x_min":125,"x_max":851,"o":"m 267 1256 l 349 1256 q 476 1164 358 1164 q 565 1188 532 1164 q 603 1256 599 1211 l 685 1256 q 474 1068 669 1068 q 296 1147 354 1068 q 267 1256 268 1186 m 254 461 l 254 114 l 851 114 l 851 0 l 125 0 l 125 1013 l 826 1013 l 826 899 l 254 899 l 254 575 l 806 575 l 806 461 l 254 461 z "},"ӗ":{"ha":772,"x_min":56,"x_max":713,"o":"m 236 971 l 318 971 q 446 879 328 879 q 535 903 501 879 q 572 971 568 926 l 654 971 q 443 783 639 783 q 265 863 324 783 q 236 971 238 901 m 713 325 l 176 325 q 215 169 178 225 q 390 75 275 75 q 581 221 532 75 l 697 221 q 593 35 675 101 q 386 -32 511 -32 q 144 72 233 -32 q 56 354 56 175 q 147 641 56 533 q 389 749 238 749 q 570 697 492 749 q 683 557 649 646 q 713 325 713 481 m 179 419 l 588 419 q 589 428 589 422 q 531 580 589 518 q 388 642 472 642 q 243 581 300 642 q 179 419 186 521 z "},"Ә":{"ha":1003,"x_min":65,"x_max":940,"o":"m 215 350 q 246 213 232 240 q 338 116 276 150 q 482 82 400 82 q 683 153 601 82 q 794 350 764 224 l 215 350 m 67 458 l 65 464 l 67 464 l 200 464 l 810 464 q 811 496 811 475 q 726 803 811 690 q 493 915 640 915 q 293 851 361 915 q 219 699 240 803 l 88 699 q 478 1029 147 1029 q 799 903 685 1029 q 940 494 940 749 q 793 86 940 238 q 483 -32 679 -32 q 67 458 68 -32 z "},"ә":{"ha":772,"x_min":56,"x_max":713,"o":"m 56 392 l 592 392 q 553 547 590 492 q 378 642 493 642 q 188 496 236 642 l 71 496 q 175 682 93 615 q 382 749 257 749 q 624 645 535 749 q 713 363 713 542 q 622 76 713 183 q 379 -32 531 -32 q 198 19 276 -32 q 85 160 119 71 q 56 392 56 236 m 589 297 l 181 297 q 179 289 179 294 q 238 137 179 199 q 381 75 296 75 q 525 135 468 75 q 589 297 582 196 z "},"Ӛ":{"ha":1003,"x_min":65,"x_max":940,"o":"m 438 1256 l 438 1113 l 293 1113 l 293 1256 l 438 1256 m 663 1256 l 663 1113 l 518 1113 l 518 1256 l 663 1256 m 215 350 q 246 213 232 240 q 338 116 276 150 q 482 82 400 82 q 683 153 601 82 q 794 350 764 224 l 215 350 m 67 458 l 65 464 l 67 464 l 200 464 l 810 464 q 811 496 811 475 q 726 803 811 690 q 493 915 640 915 q 293 851 361 915 q 219 699 240 803 l 88 699 q 478 1029 147 1029 q 799 903 685 1029 q 940 494 940 749 q 793 86 940 238 q 483 -32 679 -32 q 67 458 68 -32 z "},"ӛ":{"ha":772,"x_min":56,"x_max":713,"o":"m 342 975 l 342 832 l 197 832 l 197 975 l 342 975 m 567 975 l 567 832 l 422 832 l 422 975 l 567 975 m 56 392 l 592 392 q 553 547 590 492 q 378 642 493 642 q 188 496 236 642 l 71 496 q 175 682 93 615 q 382 749 257 749 q 624 645 535 749 q 713 363 713 542 q 622 76 713 183 q 379 -32 531 -32 q 198 19 276 -32 q 85 160 119 71 q 56 392 56 236 m 589 297 l 181 297 q 179 289 179 294 q 238 137 179 199 q 381 75 296 75 q 525 135 468 75 q 589 297 582 196 z "},"Ӝ":{"ha":1421,"x_min":88,"x_max":1317,"o":"m 638 450 l 240 0 l 88 0 l 539 521 l 140 1013 l 307 1013 l 638 585 l 638 1013 l 767 1013 l 767 585 l 1097 1013 l 1264 1013 l 865 521 l 1317 0 l 1164 0 l 767 450 l 767 0 l 638 0 l 638 450 m 663 1211 l 663 1068 l 518 1068 l 518 1211 l 663 1211 m 888 1211 l 888 1068 l 743 1068 l 743 1211 l 888 1211 z "},"ӝ":{"ha":1163,"x_min":19,"x_max":1138,"o":"m 521 300 l 163 0 l 19 0 l 442 367 l 64 728 l 213 728 l 521 419 l 521 728 l 636 728 l 636 419 l 944 728 l 1093 728 l 715 367 l 1138 0 l 994 0 l 636 300 l 636 0 l 521 0 l 521 300 m 538 926 l 538 783 l 393 783 l 393 926 l 538 926 m 763 926 l 763 783 l 618 783 l 618 926 l 763 926 z "},"Ӟ":{"ha":926,"x_min":67,"x_max":863,"o":"m 357 446 l 357 560 l 479 560 q 633 623 567 560 q 699 750 699 686 q 637 874 699 826 q 472 921 575 921 q 286 867 351 921 q 219 715 221 814 l 97 715 q 196 947 99 864 q 468 1029 293 1029 q 731 949 635 1029 q 828 732 828 869 q 682 519 828 582 q 863 278 863 451 q 833 149 863 213 q 751 46 803 86 q 467 -32 650 -32 q 126 113 232 -32 q 67 322 68 192 l 189 322 q 242 167 188 232 q 475 82 313 82 q 661 125 599 82 q 713 187 693 149 q 733 265 733 225 q 667 388 733 329 q 507 446 600 446 l 357 446 m 418 1211 l 418 1068 l 274 1068 l 274 1211 l 418 1211 m 643 1211 l 643 1068 l 499 1068 l 499 1211 l 643 1211 z "},"ӟ":{"ha":694,"x_min":47,"x_max":638,"o":"m 267 307 l 267 413 l 353 413 q 453 449 419 413 q 488 532 488 486 q 446 612 488 582 q 333 642 404 642 q 188 525 192 642 l 65 525 q 135 690 67 632 q 329 749 203 749 q 532 688 456 749 q 608 526 608 628 q 518 371 608 422 q 638 199 638 318 q 556 31 638 93 q 338 -32 475 -32 q 47 217 56 -32 l 169 217 q 203 124 178 151 q 347 75 249 75 q 467 106 422 75 q 511 189 511 138 q 470 269 511 232 q 369 307 429 307 l 267 307 m 297 926 l 297 783 l 153 783 l 153 926 l 297 926 m 522 926 l 522 783 l 378 783 l 378 926 l 522 926 z "},"Ӡ":{"ha":926,"x_min":67,"x_max":867,"o":"m 357 446 l 357 560 l 461 560 q 591 595 535 560 q 677 685 647 631 q 722 794 707 739 q 736 899 736 849 l 167 899 l 167 1013 l 867 1013 q 851 826 867 922 q 792 637 836 731 q 682 519 749 543 q 863 278 863 451 q 833 149 863 213 q 751 46 803 86 q 467 -32 650 -32 q 126 113 232 -32 q 67 322 68 192 l 189 322 q 242 167 188 232 q 475 82 313 82 q 661 125 599 82 q 713 187 693 149 q 733 265 733 225 q 667 388 733 329 q 507 446 600 446 l 357 446 z "},"ӡ":{"ha":694,"x_min":47,"x_max":638,"o":"m 267 307 l 267 413 l 353 413 q 453 483 419 413 q 488 622 488 554 l 107 622 l 107 728 l 608 728 q 585 502 608 608 q 518 371 563 396 q 638 199 638 318 q 556 31 638 93 q 338 -32 475 -32 q 47 217 56 -32 l 169 217 q 203 124 178 151 q 347 75 249 75 q 467 106 422 75 q 511 189 511 138 q 470 269 511 232 q 369 307 429 307 l 267 307 z "},"Ӣ":{"ha":1003,"x_min":106,"x_max":897,"o":"m 106 1013 l 228 1013 l 228 185 l 757 1013 l 897 1013 l 897 0 l 775 0 l 775 821 l 251 0 l 106 0 l 106 1013 m 692 1165 l 692 1068 l 311 1068 l 311 1165 l 692 1165 z "},"ӣ":{"ha":772,"x_min":97,"x_max":676,"o":"m 97 728 l 214 728 l 214 154 l 540 728 l 676 728 l 676 0 l 561 0 l 561 574 l 235 0 l 97 0 l 97 728 m 578 881 l 578 783 l 197 783 l 197 881 l 578 881 z "},"Ӥ":{"ha":1003,"x_min":106,"x_max":897,"o":"m 106 1013 l 228 1013 l 228 185 l 757 1013 l 897 1013 l 897 0 l 775 0 l 775 821 l 251 0 l 106 0 l 106 1013 m 461 1211 l 461 1068 l 317 1068 l 317 1211 l 461 1211 m 686 1211 l 686 1068 l 542 1068 l 542 1211 l 686 1211 z "},"ӥ":{"ha":772,"x_min":97,"x_max":676,"o":"m 97 728 l 214 728 l 214 154 l 540 728 l 676 728 l 676 0 l 561 0 l 561 574 l 235 0 l 97 0 l 97 728 m 347 926 l 347 783 l 203 783 l 203 926 l 347 926 m 572 926 l 572 783 l 428 783 l 428 926 l 572 926 z "},"Ӧ":{"ha":1081,"x_min":53,"x_max":1031,"o":"m 501 1211 l 501 1068 l 357 1068 l 357 1211 l 501 1211 m 726 1211 l 726 1068 l 582 1068 l 582 1211 l 726 1211 m 540 1029 q 897 882 763 1029 q 1031 490 1031 735 q 984 255 1031 365 q 856 75 938 144 q 542 -32 729 -32 q 188 115 322 -32 q 53 499 53 261 q 188 883 53 736 q 540 1029 322 1029 m 540 915 q 281 801 379 915 q 182 499 182 686 q 281 197 182 311 q 542 82 381 82 q 802 196 703 82 q 901 493 901 310 q 803 800 901 685 q 540 915 704 915 z "},"ӧ":{"ha":772,"x_min":50,"x_max":708,"o":"m 339 926 l 339 783 l 194 783 l 194 926 l 339 926 m 564 926 l 564 783 l 419 783 l 419 926 l 564 926 m 378 749 q 622 645 535 749 q 708 353 708 542 q 620 71 708 174 q 379 -32 532 -32 q 137 72 224 -32 q 50 358 50 175 q 138 645 50 542 q 378 749 225 749 m 379 642 q 226 566 282 642 q 171 358 171 490 q 226 151 171 226 q 379 75 282 75 q 531 151 475 75 q 588 354 588 226 q 533 565 588 489 q 379 642 478 642 z "},"Ө":{"ha":1081,"x_min":53,"x_max":1031,"o":"m 540 1029 q 897 882 763 1029 q 1031 490 1031 735 q 984 255 1031 365 q 856 75 938 144 q 542 -32 729 -32 q 188 115 322 -32 q 53 499 53 261 q 188 883 53 736 q 540 1029 322 1029 m 900 535 q 792 812 889 708 q 540 915 696 915 q 291 811 389 915 q 183 535 193 707 l 900 535 m 899 438 l 185 438 q 298 178 201 275 q 542 82 394 82 q 786 179 689 82 q 899 438 883 276 z "},"ө":{"ha":772,"x_min":50,"x_max":708,"o":"m 378 749 q 622 645 535 749 q 708 353 708 542 q 620 71 708 174 q 379 -32 532 -32 q 137 72 224 -32 q 50 358 50 175 q 138 645 50 542 q 378 749 225 749 m 586 403 q 522 579 575 517 q 379 642 468 642 q 236 578 290 642 q 172 403 182 515 l 586 403 m 585 306 l 174 306 q 239 136 185 197 q 379 75 293 75 q 519 136 465 75 q 585 306 574 197 z "},"Ӫ":{"ha":1081,"x_min":53,"x_max":1031,"o":"m 540 1029 q 897 882 763 1029 q 1031 490 1031 735 q 984 255 1031 365 q 856 75 938 144 q 542 -32 729 -32 q 188 115 322 -32 q 53 499 53 261 q 188 883 53 736 q 540 1029 322 1029 m 900 535 q 792 812 889 708 q 540 915 696 915 q 291 811 389 915 q 183 535 193 707 l 900 535 m 899 438 l 185 438 q 298 178 201 275 q 542 82 394 82 q 786 179 689 82 q 899 438 883 276 m 501 1211 l 501 1068 l 357 1068 l 357 1211 l 501 1211 m 726 1211 l 726 1068 l 582 1068 l 582 1211 l 726 1211 z "},"ӫ":{"ha":772,"x_min":50,"x_max":708,"o":"m 378 749 q 622 645 535 749 q 708 353 708 542 q 620 71 708 174 q 379 -32 532 -32 q 137 72 224 -32 q 50 358 50 175 q 138 645 50 542 q 378 749 225 749 m 586 403 q 522 579 575 517 q 379 642 468 642 q 236 578 290 642 q 172 403 182 515 l 586 403 m 585 306 l 174 306 q 239 136 185 197 q 379 75 293 75 q 519 136 465 75 q 585 306 574 197 m 339 926 l 339 783 l 194 783 l 194 926 l 339 926 m 564 926 l 564 783 l 419 783 l 419 926 l 564 926 z "},"Ӭ":{"ha":1003,"x_min":67,"x_max":940,"o":"m 811 461 l 301 461 l 301 575 l 807 575 q 707 825 790 735 q 493 915 624 915 q 293 851 361 915 q 219 699 240 803 l 88 699 q 478 1029 147 1029 q 799 903 685 1029 q 940 494 940 749 q 793 86 940 238 q 483 -32 679 -32 q 67 369 113 -32 l 200 369 q 246 213 215 271 q 338 116 276 150 q 482 82 400 82 q 713 184 625 82 q 811 461 801 286 m 539 1211 l 539 1068 l 394 1068 l 394 1211 l 539 1211 m 764 1211 l 764 1068 l 619 1068 l 619 1211 l 764 1211 z "},"ӭ":{"ha":694,"x_min":43,"x_max":663,"o":"m 226 322 l 226 429 l 538 429 q 472 586 522 531 q 340 642 421 642 q 224 601 268 642 q 168 483 179 560 l 51 483 q 100 640 60 581 q 339 749 179 749 q 574 640 486 749 q 663 351 663 532 q 576 72 663 175 q 340 -32 489 -32 q 132 42 210 -32 q 43 250 54 117 l 160 250 q 338 75 189 75 q 481 140 428 75 q 542 322 535 206 l 226 322 m 254 926 l 254 783 l 110 783 l 110 926 l 254 926 m 479 926 l 479 783 l 335 783 l 335 926 l 479 926 z "},"Ӯ":{"ha":903,"x_min":36,"x_max":860,"o":"m 350 0 l 193 0 l 372 339 l 36 1013 l 193 1013 l 450 486 l 706 1013 l 860 1013 l 350 0 m 639 1165 l 639 1068 l 258 1068 l 258 1165 l 639 1165 z "},"ӯ":{"ha":694,"x_min":28,"x_max":664,"o":"m 536 881 l 536 783 l 156 783 l 156 881 l 536 881 m 539 728 l 664 728 l 340 -153 q 261 -268 310 -232 q 153 -303 214 -303 q 75 -285 110 -303 l 75 -181 q 136 -189 113 -189 q 194 -173 172 -189 q 229 -118 215 -157 l 274 -3 l 28 728 l 151 728 l 338 161 l 539 728 z "},"Ӱ":{"ha":903,"x_min":36,"x_max":860,"o":"m 350 0 l 193 0 l 372 339 l 36 1013 l 193 1013 l 450 486 l 706 1013 l 860 1013 l 350 0 m 408 1211 l 408 1068 l 264 1068 l 264 1211 l 408 1211 m 633 1211 l 633 1068 l 489 1068 l 489 1211 l 633 1211 z "},"ӱ":{"ha":694,"x_min":28,"x_max":664,"o":"m 306 926 l 306 783 l 161 783 l 161 926 l 306 926 m 531 926 l 531 783 l 386 783 l 386 926 l 531 926 m 539 728 l 664 728 l 340 -153 q 261 -268 310 -232 q 153 -303 214 -303 q 75 -285 110 -303 l 75 -181 q 136 -189 113 -189 q 194 -173 172 -189 q 229 -118 215 -157 l 274 -3 l 28 728 l 151 728 l 338 161 l 539 728 z "},"Ӳ":{"ha":903,"x_min":36,"x_max":860,"o":"m 350 0 l 193 0 l 372 339 l 36 1013 l 193 1013 l 450 486 l 706 1013 l 860 1013 l 350 0 m 315 1276 l 472 1276 l 265 1068 l 182 1068 l 315 1276 m 557 1276 l 714 1276 l 507 1068 l 424 1068 l 557 1276 z "},"ӳ":{"ha":694,"x_min":28,"x_max":664,"o":"m 214 992 l 371 992 l 164 783 l 81 783 l 214 992 m 456 992 l 613 992 l 406 783 l 322 783 l 456 992 m 539 728 l 664 728 l 340 -153 q 261 -268 310 -232 q 153 -303 214 -303 q 75 -285 110 -303 l 75 -181 q 136 -189 113 -189 q 194 -173 172 -189 q 229 -118 215 -157 l 274 -3 l 28 728 l 151 728 l 338 161 l 539 728 z "},"Ӵ":{"ha":900,"x_min":110,"x_max":790,"o":"m 410 1256 l 410 1113 l 265 1113 l 265 1256 l 410 1256 m 635 1256 l 635 1113 l 490 1113 l 490 1256 l 635 1256 m 661 361 l 367 361 q 174 432 239 361 q 110 628 110 503 l 110 1013 l 239 1013 l 239 603 q 276 508 239 540 q 372 475 313 475 l 661 475 l 661 1013 l 790 1013 l 790 0 l 661 0 l 661 361 z "},"ӵ":{"ha":722,"x_min":97,"x_max":625,"o":"m 321 975 l 321 832 l 176 832 l 176 975 l 321 975 m 546 975 l 546 832 l 401 832 l 401 975 l 546 975 m 97 728 l 214 728 l 214 468 q 308 371 214 371 l 508 371 l 508 728 l 625 728 l 625 0 l 508 0 l 508 265 l 313 265 q 160 318 222 265 q 97 464 97 371 l 97 728 z "},"Ӹ":{"ha":1231,"x_min":110,"x_max":1117,"o":"m 1117 1013 l 1117 0 l 986 0 l 986 1013 l 1117 1013 m 865 289 q 788 85 865 167 q 567 0 708 0 l 110 0 l 110 1013 l 239 1013 l 239 576 l 489 576 q 865 289 831 576 m 239 114 l 554 114 q 689 163 644 114 q 736 288 736 213 q 689 414 736 364 q 554 463 644 463 l 239 463 l 239 114 m 572 1211 l 572 1068 l 428 1068 l 428 1211 l 572 1211 m 797 1211 l 797 1068 l 653 1068 l 653 1211 l 797 1211 z "},"ӹ":{"ha":1039,"x_min":97,"x_max":918,"o":"m 918 728 l 918 0 l 803 0 l 803 728 l 918 728 m 214 728 l 214 426 l 378 426 q 605 373 532 426 q 678 208 678 319 q 621 61 678 122 q 463 0 564 0 l 97 0 l 97 728 l 214 728 m 214 106 l 425 106 q 521 142 489 106 q 551 204 551 172 q 551 240 551 229 q 543 267 550 251 q 521 293 536 283 q 425 321 478 321 l 214 321 l 214 106 m 467 926 l 467 783 l 322 783 l 322 926 l 467 926 m 692 926 l 692 783 l 547 783 l 547 926 l 692 926 z "},"":{"ha":597,"x_min":97,"x_max":528,"o":"m 97 728 l 528 728 l 528 622 l 214 622 l 214 0 l 97 0 l 97 728 z "},"":{"ha":772,"x_min":50,"x_max":708,"o":"m 378 749 q 622 645 535 749 q 708 353 708 542 q 620 71 708 174 q 379 -32 532 -32 q 137 72 224 -32 q 50 358 50 175 q 83 558 50 481 q 190 690 117 636 q 126 742 144 710 q 118 808 108 774 q 152 873 128 842 q 213 928 176 904 q 288 958 250 951 l 472 994 q 527 1025 504 1001 q 550 1076 550 1049 l 653 1076 q 650 1015 653 1036 q 633 967 647 994 q 587 920 619 939 q 499 889 554 901 l 311 849 q 260 823 283 842 q 239 786 238 804 q 378 749 246 733 m 379 642 q 226 566 282 642 q 171 358 171 490 q 226 151 171 226 q 379 75 282 75 q 531 151 475 75 q 588 354 588 226 q 533 565 588 489 q 379 642 478 642 z "},"":{"ha":836,"x_min":42,"x_max":794,"o":"m 121 89 q 202 203 169 94 q 235 446 235 313 l 235 728 l 706 728 l 706 89 l 794 89 l 794 -167 l 697 -167 l 697 0 l 139 0 l 139 -167 l 42 -167 l 42 89 l 121 89 m 282 106 l 589 106 l 589 622 l 350 622 l 350 446 q 282 106 350 231 z "},"":{"ha":774,"x_min":97,"x_max":676,"o":"m 97 728 l 676 728 l 676 0 l 560 0 l 560 622 l 214 622 l 214 0 l 97 0 l 97 728 z "},"":{"ha":689,"x_min":83,"x_max":600,"o":"m 83 728 l 600 728 l 600 622 l 400 622 l 400 0 l 283 0 l 283 622 l 83 622 l 83 728 z "},"Ĉ":{"ha":1003,"x_min":67,"x_max":940,"o":"m 458 1290 l 590 1290 l 724 1082 l 636 1082 l 524 1215 l 414 1082 l 325 1082 l 458 1290 m 919 699 l 788 699 q 714 851 767 803 q 514 915 646 915 q 281 803 367 915 q 196 496 196 690 q 285 194 196 306 q 525 82 374 82 q 669 116 607 82 q 761 213 731 150 q 807 369 792 271 l 940 369 q 524 -32 894 -32 q 214 86 328 -32 q 67 494 67 238 q 208 903 67 749 q 529 1029 322 1029 q 919 699 860 1029 z "},"ĉ":{"ha":694,"x_min":43,"x_max":663,"o":"m 301 992 l 433 992 l 567 783 l 479 783 l 367 917 l 257 783 l 168 783 l 301 992 m 654 483 l 538 483 q 482 601 526 560 q 365 642 438 642 q 217 565 271 642 q 164 351 164 488 q 218 149 164 222 q 368 75 272 75 q 546 250 517 75 l 663 250 q 574 42 651 117 q 365 -32 496 -32 q 130 72 217 -32 q 43 351 43 175 q 131 640 43 532 q 367 749 219 749 q 606 640 526 749 q 654 483 646 581 z "},"Ċ":{"ha":1003,"x_min":67,"x_max":940,"o":"m 597 1240 l 597 1096 l 453 1096 l 453 1240 l 597 1240 m 919 699 l 788 699 q 714 851 767 803 q 514 915 646 915 q 281 803 367 915 q 196 496 196 690 q 285 194 196 306 q 525 82 374 82 q 669 116 607 82 q 761 213 731 150 q 807 369 792 271 l 940 369 q 524 -32 894 -32 q 214 86 328 -32 q 67 494 67 238 q 208 903 67 749 q 529 1029 322 1029 q 919 699 860 1029 z "},"ċ":{"ha":694,"x_min":43,"x_max":663,"o":"m 440 928 l 440 783 l 296 783 l 296 928 l 440 928 m 654 483 l 538 483 q 482 601 526 560 q 365 642 438 642 q 217 565 271 642 q 164 351 164 488 q 218 149 164 222 q 368 75 272 75 q 546 250 517 75 l 663 250 q 574 42 651 117 q 365 -32 496 -32 q 130 72 217 -32 q 43 351 43 175 q 131 640 43 532 q 367 749 219 749 q 606 640 526 749 q 654 483 646 581 z "},"Ĕ":{"ha":926,"x_min":125,"x_max":851,"o":"m 267 1256 l 349 1256 q 476 1164 358 1164 q 565 1188 532 1164 q 603 1256 599 1211 l 685 1256 q 474 1068 669 1068 q 296 1147 354 1068 q 267 1256 268 1186 m 254 461 l 254 114 l 851 114 l 851 0 l 125 0 l 125 1013 l 826 1013 l 826 899 l 254 899 l 254 575 l 806 575 l 806 461 l 254 461 z "},"ĕ":{"ha":772,"x_min":56,"x_max":713,"o":"m 236 971 l 318 971 q 446 879 328 879 q 535 903 501 879 q 572 971 568 926 l 654 971 q 443 783 639 783 q 265 863 324 783 q 236 971 238 901 m 713 325 l 176 325 q 215 169 178 225 q 390 75 275 75 q 581 221 532 75 l 697 221 q 593 35 675 101 q 386 -32 511 -32 q 144 72 233 -32 q 56 354 56 175 q 147 641 56 533 q 389 749 238 749 q 570 697 492 749 q 683 557 649 646 q 713 325 713 481 m 179 419 l 588 419 q 589 428 589 422 q 531 580 589 518 q 388 642 472 642 q 243 581 300 642 q 179 419 186 521 z "},"Ĝ":{"ha":1081,"x_min":61,"x_max":985,"o":"m 481 1304 l 613 1304 l 746 1096 l 658 1096 l 546 1229 l 436 1096 l 347 1096 l 481 1304 m 985 535 l 985 -6 l 903 -6 l 871 129 q 525 -32 726 -32 q 190 115 319 -32 q 61 496 61 263 q 109 745 61 632 q 244 932 157 858 q 547 1029 363 1029 q 833 944 721 1029 q 971 706 944 860 l 839 706 q 740 859 818 803 q 546 915 661 915 q 288 802 385 915 q 190 503 190 689 q 219 324 190 408 q 297 185 247 239 q 553 82 392 82 q 781 169 692 82 q 871 393 871 257 l 871 421 l 563 421 l 563 535 l 985 535 z "},"ĝ":{"ha":772,"x_min":40,"x_max":679,"o":"m 313 1019 l 444 1019 l 578 811 l 490 811 l 378 944 l 268 811 l 179 811 l 313 1019 m 572 728 l 679 728 l 679 119 q 662 -85 679 -10 q 603 -210 644 -160 q 502 -278 568 -253 q 354 -303 436 -303 q 150 -244 226 -303 q 64 -83 74 -186 l 182 -83 q 226 -167 190 -139 q 358 -206 276 -206 q 519 -137 471 -206 q 561 61 561 -81 l 561 99 q 460 -1 513 29 q 340 -32 408 -32 q 132 65 218 -32 q 40 351 40 172 q 126 639 40 529 q 350 749 211 749 q 572 622 486 749 l 572 728 m 363 642 q 215 565 269 642 q 161 358 161 489 q 215 151 161 226 q 364 75 269 75 q 508 149 456 75 q 561 354 561 224 q 509 566 561 490 q 363 642 457 642 z "},"Ġ":{"ha":1081,"x_min":61,"x_max":985,"o":"m 618 1240 l 618 1096 l 461 1096 l 461 1240 l 618 1240 m 985 535 l 985 -6 l 903 -6 l 871 129 q 525 -32 726 -32 q 190 115 319 -32 q 61 496 61 263 q 109 745 61 632 q 244 932 157 858 q 547 1029 363 1029 q 833 944 721 1029 q 971 706 944 860 l 839 706 q 740 859 818 803 q 546 915 661 915 q 288 802 385 915 q 190 503 190 689 q 219 324 190 408 q 297 185 247 239 q 553 82 392 82 q 781 169 692 82 q 871 393 871 257 l 871 421 l 563 421 l 563 535 l 985 535 z "},"ġ":{"ha":772,"x_min":40,"x_max":679,"o":"m 465 969 l 465 825 l 321 825 l 321 969 l 465 969 m 572 728 l 679 728 l 679 119 q 662 -85 679 -10 q 603 -210 644 -160 q 502 -278 568 -253 q 354 -303 436 -303 q 150 -244 226 -303 q 64 -83 74 -186 l 182 -83 q 226 -167 190 -139 q 358 -206 276 -206 q 519 -137 471 -206 q 561 61 561 -81 l 561 99 q 460 -1 513 29 q 340 -32 408 -32 q 132 65 218 -32 q 40 351 40 172 q 126 639 40 529 q 350 749 211 749 q 572 622 486 749 l 572 728 m 363 642 q 215 565 269 642 q 161 358 161 489 q 215 151 161 226 q 364 75 269 75 q 508 149 456 75 q 561 354 561 224 q 509 566 561 490 q 363 642 457 642 z "},"Ĥ":{"ha":1003,"x_min":115,"x_max":894,"o":"m 439 1276 l 571 1276 l 704 1068 l 617 1068 l 504 1201 l 394 1068 l 306 1068 l 439 1276 m 765 461 l 246 461 l 246 0 l 115 0 l 115 1013 l 244 1013 l 244 575 l 765 575 l 765 1013 l 894 1013 l 894 0 l 765 0 l 765 461 z "},"ĥ":{"ha":772,"x_min":-44,"x_max":675,"o":"m 89 1276 l 221 1276 l 354 1068 l 267 1068 l 154 1201 l 44 1068 l -44 1068 l 89 1276 m 97 1013 l 213 1013 l 213 628 q 316 722 264 694 q 446 749 368 749 q 613 695 551 749 q 675 550 675 642 l 675 0 l 560 0 l 560 504 q 513 614 560 581 q 410 647 468 647 q 267 580 321 647 q 213 401 213 513 l 213 0 l 97 0 l 97 1013 z "},"Ħ":{"ha":1090,"x_min":53,"x_max":1044,"o":"m 936 835 l 1044 835 l 1044 738 l 936 738 l 936 0 l 807 0 l 807 461 l 288 461 l 288 0 l 157 0 l 157 738 l 53 738 l 53 835 l 157 835 l 157 1013 l 286 1013 l 286 835 l 807 835 l 807 1013 l 936 1013 l 936 835 m 807 738 l 286 738 l 286 575 l 807 575 l 807 738 z "},"ħ":{"ha":772,"x_min":31,"x_max":675,"o":"m 97 932 l 97 1013 l 213 1013 l 213 932 l 411 932 l 411 835 l 213 835 l 213 628 q 316 722 264 694 q 446 749 368 749 q 613 695 551 749 q 675 550 675 642 l 675 0 l 560 0 l 560 504 q 513 614 560 581 q 410 647 468 647 q 267 580 321 647 q 213 401 213 513 l 213 0 l 97 0 l 97 835 l 31 835 l 31 932 l 97 932 z "},"Ĩ":{"ha":386,"x_min":-14,"x_max":422,"o":"m 342 1213 l 422 1213 q 299 1068 401 1068 q 181 1103 269 1068 q 113 1121 132 1121 q 67 1069 81 1121 l -14 1069 q 28 1175 -3 1138 q 106 1213 60 1213 q 203 1186 138 1213 q 290 1161 257 1161 q 342 1213 325 1161 m 269 1013 l 269 0 l 139 0 l 139 1013 l 269 1013 z "},"ĩ":{"ha":386,"x_min":-29,"x_max":407,"o":"m 326 928 l 407 928 q 283 783 386 783 q 165 818 254 783 q 97 836 117 836 q 51 785 65 836 l -29 785 q 13 890 -18 853 q 90 928 44 928 q 188 901 122 928 q 275 876 242 876 q 326 928 310 876 m 247 728 l 247 0 l 131 0 l 131 728 l 247 728 z "},"Ĭ":{"ha":386,"x_min":-6,"x_max":413,"o":"m -6 1256 l 76 1256 q 204 1164 86 1164 q 293 1188 260 1164 q 331 1256 326 1211 l 413 1256 q 201 1068 397 1068 q 24 1147 82 1068 q -6 1256 -4 1186 m 269 1013 l 269 0 l 139 0 l 139 1013 l 269 1013 z "},"ĭ":{"ha":386,"x_min":-19,"x_max":399,"o":"m -19 971 l 63 971 q 190 879 72 879 q 279 903 246 879 q 317 971 313 926 l 399 971 q 188 783 383 783 q 10 863 68 783 q -19 971 -18 901 m 247 728 l 247 0 l 131 0 l 131 728 l 247 728 z "},"Ĳ":{"ha":972,"x_min":139,"x_max":869,"o":"m 269 1013 l 269 0 l 139 0 l 139 1013 l 269 1013 m 740 1013 l 869 1013 l 869 253 q 792 44 869 121 q 583 -32 715 -32 q 377 40 453 -32 q 301 236 301 113 l 301 325 l 433 325 l 433 260 q 472 124 433 171 q 585 76 511 76 q 708 139 668 76 q 740 300 740 186 l 740 1013 z "},"ĳ":{"ha":519,"x_min":92,"x_max":424,"o":"m 208 728 l 208 0 l 93 0 l 93 728 l 208 728 m 208 1013 l 208 867 l 92 867 l 92 1013 l 208 1013 m 308 728 l 424 728 l 424 -151 q 225 -303 424 -303 q 186 -299 207 -303 l 186 -200 q 214 -201 210 -201 q 288 -181 267 -201 q 308 -106 308 -160 l 308 728 m 424 1013 l 424 867 l 308 867 l 308 1013 l 424 1013 z "},"Ĵ":{"ha":694,"x_min":24,"x_max":726,"o":"m 461 1276 l 593 1276 l 726 1068 l 639 1068 l 526 1201 l 417 1068 l 328 1068 l 461 1276 m 463 1013 l 592 1013 l 592 253 q 515 44 592 121 q 306 -32 438 -32 q 99 40 175 -32 q 24 236 24 113 l 24 325 l 156 325 l 156 260 q 194 124 156 171 q 307 76 233 76 q 431 139 390 76 q 463 300 463 186 l 463 1013 z "},"ĵ":{"ha":308,"x_min":-44,"x_max":354,"o":"m 97 728 l 213 728 l 213 -151 q 14 -303 213 -303 q -25 -299 -4 -303 l -25 -200 q 3 -201 -1 -201 q 76 -181 56 -201 q 97 -106 97 -160 l 97 728 m 89 1090 l 221 1090 l 354 882 l 267 882 l 154 1015 l 44 882 l -44 882 l 89 1090 z "},"ĸ":{"ha":694,"x_min":81,"x_max":697,"o":"m 196 728 l 196 419 l 504 728 l 653 728 l 275 367 l 697 0 l 554 0 l 196 300 l 196 0 l 81 0 l 81 728 l 196 728 z "},"Ŀ":{"ha":772,"x_min":111,"x_max":740,"o":"m 519 596 l 519 422 l 347 422 l 347 596 l 519 596 m 240 1013 l 240 114 l 740 114 l 740 0 l 111 0 l 111 1013 l 240 1013 z "},"ŀ":{"ha":561,"x_min":94,"x_max":496,"o":"m 211 1013 l 211 0 l 94 0 l 94 1013 l 211 1013 m 496 596 l 496 422 l 324 422 l 324 596 l 496 596 z "},"ŉ":{"ha":772,"x_min":89,"x_max":676,"o":"m 89 1096 l 218 1096 l 218 956 q 89 774 218 785 l 89 826 q 141 861 125 832 q 156 951 157 890 l 89 951 l 89 1096 m 97 728 l 204 728 l 204 606 q 309 715 253 682 q 446 749 365 749 q 614 694 551 749 q 676 550 676 640 l 676 0 l 561 0 l 561 504 q 521 608 561 569 q 411 647 481 647 q 268 580 322 647 q 214 401 214 513 l 214 0 l 97 0 l 97 728 z "},"Ŋ":{"ha":1003,"x_min":106,"x_max":897,"o":"m 751 0 l 228 821 l 228 0 l 106 0 l 106 1013 l 246 1013 l 775 185 l 775 1013 l 897 1013 l 897 25 q 833 -171 897 -100 q 640 -242 768 -242 l 568 -242 l 568 -128 l 635 -128 q 725 -103 686 -128 q 764 -40 764 -78 q 751 0 764 -21 z "},"ŋ":{"ha":772,"x_min":97,"x_max":676,"o":"m 676 0 q 615 -145 676 -92 q 447 -199 553 -199 l 411 -199 l 411 -97 q 514 -64 469 -97 q 561 46 561 -31 l 561 504 q 521 608 561 569 q 411 647 481 647 q 268 580 322 647 q 214 401 214 513 l 214 0 l 97 0 l 97 728 l 204 728 l 204 606 q 309 715 253 682 q 446 749 365 749 q 614 694 551 749 q 676 550 676 640 l 676 0 z "},"Ŏ":{"ha":1081,"x_min":53,"x_max":1031,"o":"m 333 1256 l 415 1256 q 543 1164 425 1164 q 632 1188 599 1164 q 669 1256 665 1211 l 751 1256 q 540 1068 736 1068 q 363 1147 421 1068 q 333 1256 335 1186 m 540 1029 q 897 882 763 1029 q 1031 490 1031 735 q 984 255 1031 365 q 856 75 938 144 q 542 -32 729 -32 q 188 115 322 -32 q 53 499 53 261 q 188 883 53 736 q 540 1029 322 1029 m 540 915 q 281 801 379 915 q 182 499 182 686 q 281 197 182 311 q 542 82 381 82 q 802 196 703 82 q 901 493 901 310 q 803 800 901 685 q 540 915 704 915 z "},"ŏ":{"ha":772,"x_min":50,"x_max":708,"o":"m 169 971 l 251 971 q 379 879 261 879 q 468 903 435 879 q 506 971 501 926 l 588 971 q 376 783 572 783 q 199 863 257 783 q 169 971 171 901 m 378 749 q 622 645 535 749 q 708 353 708 542 q 620 71 708 174 q 379 -32 532 -32 q 137 72 224 -32 q 50 358 50 175 q 138 645 50 542 q 378 749 225 749 m 379 642 q 226 566 282 642 q 171 358 171 490 q 226 151 171 226 q 379 75 282 75 q 531 151 475 75 q 588 354 588 226 q 533 565 588 489 q 379 642 478 642 z "},"Ŝ":{"ha":926,"x_min":67,"x_max":863,"o":"m 400 1276 l 532 1276 l 665 1068 l 578 1068 l 465 1201 l 356 1068 l 267 1068 l 400 1276 m 828 715 l 706 715 q 639 867 704 814 q 453 921 574 921 q 288 874 350 921 q 226 750 226 826 q 264 658 226 692 q 393 600 301 625 l 647 532 q 806 438 750 504 q 863 278 863 371 q 833 149 863 213 q 751 46 803 86 q 467 -32 650 -32 q 126 113 232 -32 q 67 322 68 192 l 189 322 q 242 167 188 232 q 475 82 313 82 q 661 125 599 82 q 713 187 693 149 q 733 265 733 225 q 547 429 733 381 l 296 496 q 97 732 97 547 q 194 949 97 869 q 457 1029 290 1029 q 729 947 632 1029 q 828 715 826 864 z "},"ŝ":{"ha":694,"x_min":47,"x_max":638,"o":"m 269 992 l 401 992 l 535 783 l 447 783 l 335 917 l 225 783 l 136 783 l 269 992 m 608 525 l 486 525 q 340 642 482 642 q 228 612 269 642 q 186 532 186 582 q 218 469 186 493 q 321 428 250 444 l 432 401 q 589 327 540 375 q 638 199 638 279 q 556 31 638 93 q 338 -32 475 -32 q 47 217 56 -32 l 169 217 q 203 124 178 151 q 347 75 249 75 q 470 106 424 75 q 517 189 517 138 q 490 253 517 229 q 404 290 464 276 l 296 317 q 116 394 167 347 q 65 526 65 440 q 142 688 65 628 q 344 749 218 749 q 539 690 471 749 q 608 525 607 632 z "},"Ŧ":{"ha":849,"x_min":29,"x_max":824,"o":"m 363 579 l 363 899 l 29 899 l 29 1013 l 824 1013 l 824 899 l 492 899 l 492 579 l 619 579 l 619 482 l 492 482 l 492 0 l 363 0 l 363 482 l 239 482 l 239 579 l 363 579 z "},"ŧ":{"ha":386,"x_min":18,"x_max":351,"o":"m 118 447 l 117 447 l 117 633 l 18 633 l 18 728 l 117 728 l 117 928 l 232 928 l 232 728 l 351 728 l 351 633 l 232 633 l 232 447 l 351 447 l 351 350 l 232 350 l 232 135 q 245 83 232 96 q 296 69 258 69 q 351 75 331 69 l 351 -22 q 257 -32 297 -32 q 153 -2 189 -32 q 117 83 117 28 l 117 350 l 18 350 l 18 447 l 118 447 z "},"Ũ":{"ha":1003,"x_min":118,"x_max":896,"o":"m 644 1213 l 725 1213 q 601 1068 704 1068 q 483 1103 572 1068 q 415 1121 435 1121 q 369 1069 383 1121 l 289 1069 q 331 1175 300 1138 q 408 1213 363 1213 q 506 1186 440 1213 q 593 1161 560 1161 q 644 1213 628 1161 m 767 1013 l 896 1013 l 896 301 q 790 58 896 149 q 506 -32 683 -32 q 222 58 325 -32 q 118 301 118 147 l 118 1013 l 247 1013 l 247 301 q 321 135 247 192 q 506 82 394 82 q 697 140 628 82 q 767 301 767 199 l 767 1013 z "},"ũ":{"ha":772,"x_min":90,"x_max":669,"o":"m 518 928 l 599 928 q 475 783 578 783 q 357 818 446 783 q 289 836 308 836 q 243 785 257 836 l 163 785 q 205 890 174 853 q 282 928 236 928 q 379 901 314 928 q 467 876 433 876 q 518 928 501 876 m 669 0 l 565 0 l 565 101 q 458 -1 514 29 q 322 -32 403 -32 q 153 22 217 -32 q 90 167 90 76 l 90 728 l 206 728 l 206 213 q 246 108 206 147 q 356 69 286 69 q 500 137 446 69 q 554 315 554 204 l 554 728 l 669 728 l 669 0 z "},"Ŭ":{"ha":1003,"x_min":118,"x_max":896,"o":"m 299 1256 l 381 1256 q 508 1164 392 1164 q 597 1188 564 1164 q 635 1256 631 1211 l 717 1256 q 506 1068 701 1068 q 328 1147 386 1068 q 299 1256 300 1186 m 767 1013 l 896 1013 l 896 301 q 790 58 896 149 q 506 -32 683 -32 q 222 58 325 -32 q 118 301 118 147 l 118 1013 l 247 1013 l 247 301 q 321 135 247 192 q 506 82 394 82 q 697 140 628 82 q 767 301 767 199 l 767 1013 z "},"ŭ":{"ha":772,"x_min":90,"x_max":669,"o":"m 171 971 l 253 971 q 381 879 264 879 q 469 903 436 879 q 507 971 503 926 l 589 971 q 378 783 574 783 q 200 863 258 783 q 171 971 172 901 m 669 0 l 565 0 l 565 101 q 458 -1 514 29 q 322 -32 403 -32 q 153 22 217 -32 q 90 167 90 76 l 90 728 l 206 728 l 206 213 q 246 108 206 147 q 356 69 286 69 q 500 137 446 69 q 554 315 554 204 l 554 728 l 669 728 l 669 0 z "},"Ŵ":{"ha":1311,"x_min":31,"x_max":1290,"o":"m 594 1276 l 726 1276 l 860 1068 l 772 1068 l 660 1201 l 550 1068 l 461 1068 l 594 1276 m 1033 0 l 892 0 l 658 832 l 432 0 l 290 0 l 31 1013 l 175 1013 l 365 190 l 590 1013 l 729 1013 l 960 190 l 1146 1013 l 1290 1013 l 1033 0 z "},"ŵ":{"ha":1003,"x_min":8,"x_max":983,"o":"m 431 992 l 563 992 l 696 783 l 608 783 l 496 917 l 386 783 l 297 783 l 431 992 m 769 0 l 638 0 l 490 571 l 350 0 l 219 0 l 8 728 l 136 728 l 285 161 l 424 728 l 565 728 l 708 161 l 853 728 l 983 728 l 769 0 z "},"Ŷ":{"ha":926,"x_min":18,"x_max":918,"o":"m 401 1276 l 533 1276 l 667 1068 l 579 1068 l 467 1201 l 357 1068 l 268 1068 l 401 1276 m 538 397 l 538 0 l 408 0 l 408 397 l 18 1013 l 178 1013 l 475 519 l 764 1013 l 918 1013 l 538 397 z "},"ŷ":{"ha":694,"x_min":28,"x_max":664,"o":"m 281 992 l 413 992 l 546 783 l 458 783 l 346 917 l 236 783 l 147 783 l 281 992 m 539 728 l 664 728 l 340 -153 q 261 -268 310 -232 q 153 -303 214 -303 q 75 -285 110 -303 l 75 -181 q 136 -189 113 -189 q 194 -173 172 -189 q 229 -118 215 -157 l 274 -3 l 28 728 l 151 728 l 338 161 l 539 728 z "},"ſ":{"ha":386,"x_min":25,"x_max":358,"o":"m 238 0 l 122 0 l 122 633 l 25 633 l 25 728 l 122 728 l 122 851 q 167 973 122 929 q 293 1017 213 1017 q 358 1010 325 1017 l 358 914 q 318 915 332 915 q 238 842 238 915 l 238 0 z "},"№":{"ha":1400,"x_min":106,"x_max":1358,"o":"m 1317 396 l 1317 296 l 986 296 l 986 396 l 1317 396 m 1149 874 q 1297 812 1235 874 q 1358 664 1358 750 q 1297 514 1358 575 q 1146 453 1235 453 q 999 515 1061 453 q 938 664 938 578 q 999 812 938 750 q 1149 874 1061 874 m 1241 756 q 1222 775 1241 756 q 1149 794 1203 794 q 1056 756 1094 794 q 1017 664 1017 717 q 1055 571 1017 610 q 1146 532 1093 532 q 1240 570 1201 532 q 1279 664 1279 608 q 1241 756 1279 718 m 897 1013 l 897 0 l 751 0 l 228 821 l 228 0 l 106 0 l 106 1013 l 246 1013 l 775 185 l 775 1013 l 897 1013 z "},"∞":{"ha":1050,"x_min":53,"x_max":986,"o":"m 163 426 q 210 322 163 361 q 318 283 258 283 q 425 324 378 283 q 472 426 472 364 q 425 528 472 486 q 319 569 378 569 q 208 532 254 569 q 163 426 163 494 m 519 560 q 610 665 565 636 q 724 694 654 694 q 915 624 843 694 q 986 426 986 554 q 914 228 986 299 q 724 158 842 158 q 611 188 656 158 q 519 292 567 217 q 428 188 472 217 q 315 158 383 158 q 125 228 197 158 q 53 426 53 299 q 124 624 53 554 q 315 694 196 694 q 429 665 385 694 q 519 560 474 636 m 878 426 q 832 532 878 494 q 721 569 786 569 q 615 528 663 569 q 568 426 568 486 q 615 324 568 364 q 722 283 663 283 q 830 322 782 283 q 878 426 878 361 z "}}}
